<svg width="50" height="50" viewBox="0 0 50 50" fill="none" xmlns="http://www.w3.org/2000/svg">
<g clip-path="url(#clip0_35_1694)">
<path d="M25 50C11.2149 50 0 38.7851 0 25C0 11.2149 11.2149 0 25 0C38.7851 0 50 11.2149 50 25C50 38.7851 38.7851 50 25 50Z" fill="#EFB832"/>
<g opacity="0.2">
<path d="M32.408 27.1983C32.1502 26.4451 31.7334 25.8108 31.1593 25.2953C30.7024 24.8384 30.1568 24.4819 29.5224 24.2241C28.888 23.9664 28.0846 23.7672 27.1123 23.6282L26.9248 23.5998L24.5832 23.2416C24.1279 23.183 23.7462 23.0826 23.4383 22.9437C23.3094 22.8867 23.1889 22.8231 23.0751 22.7546C22.9178 22.6592 22.7772 22.5537 22.65 22.4382C22.4308 22.2206 22.2785 21.9829 22.1881 21.7252C22.0995 21.4675 22.0542 21.1996 22.0542 20.9218C22.0542 20.187 22.317 19.5577 22.8426 19.0321C22.9146 18.9602 22.9916 18.8932 23.0752 18.8329C23.5975 18.4396 24.3389 18.2437 25.298 18.2437C25.8185 18.2437 26.3608 18.2906 26.9249 18.386C27.1139 18.4179 27.3048 18.4547 27.499 18.4965C28.2722 18.6655 28.987 19.0672 29.6414 19.7016L32.2591 17.1123C31.3469 16.2202 30.346 15.5858 29.2547 15.2093C28.5551 14.9683 27.7769 14.8025 26.9232 14.7172C26.4462 14.667 25.9441 14.6436 25.4168 14.6436C24.5733 14.6436 23.7917 14.7289 23.0752 14.9013C22.8158 14.9632 22.5648 15.0352 22.322 15.1205C21.4098 15.4369 20.6366 15.8787 20.0022 16.4428C19.3678 17.0085 18.8807 17.683 18.5444 18.4663C18.2063 19.2496 18.0389 20.1184 18.0389 21.0707C18.0389 22.875 18.5444 24.2643 19.5553 25.235C20.0324 25.6919 20.5963 26.0635 21.2508 26.3514C21.768 26.5773 22.3739 26.7581 23.0751 26.8903C23.2643 26.9271 23.4584 26.9606 23.661 26.9907L26.19 27.3773C26.4745 27.4191 26.7189 27.4644 26.9248 27.5112C27.1072 27.5548 27.2595 27.5982 27.38 27.6451C27.6377 27.7438 27.8754 27.8929 28.0947 28.0903C28.5298 28.5271 28.7491 29.113 28.7491 29.8461C28.7491 30.6997 28.4311 31.3541 27.7967 31.8094C27.5524 31.9868 27.2612 32.1291 26.9248 32.2361C26.3892 32.4085 25.7381 32.4938 24.9699 32.4938C24.3171 32.4938 23.6844 32.4353 23.0751 32.3181C22.7789 32.2611 22.4893 32.1908 22.2032 32.1072C21.3312 31.8495 20.5579 31.3842 19.8833 30.7097L17.2053 33.3859C18.2364 34.4387 19.3812 35.1668 20.6416 35.5735C21.3914 35.8162 22.2032 35.9853 23.0769 36.0823C23.6694 36.1493 24.292 36.1828 24.9415 36.1828C25.631 36.1828 26.2921 36.1275 26.9249 36.0154C27.3098 35.9484 27.6847 35.8598 28.0496 35.751C29.012 35.4647 29.8438 35.048 30.5485 34.5023C31.2532 33.9567 31.8038 33.2872 32.2005 32.4938C32.5972 31.7005 32.7948 30.7883 32.7948 29.7573C32.7946 28.8051 32.6657 27.9531 32.408 27.1983Z" fill="white"/>
<path d="M26.9248 14.7858V18.386C26.3607 18.2906 25.8185 18.2437 25.2979 18.2437C24.3389 18.2437 23.5975 18.4395 23.0752 18.8329V14.7858C23.0752 13.7264 23.9422 12.861 25 12.861C25.5289 12.861 26.0109 13.0769 26.3591 13.4267C26.6938 13.7599 26.9064 14.2151 26.9231 14.7172C26.9248 14.7406 26.9248 14.7624 26.9248 14.7858Z" fill="white"/>
<path d="M26.9248 23.5998V27.5113C26.7189 27.4644 26.4746 27.4192 26.19 27.3774L23.661 26.9908C23.4585 26.9606 23.2644 26.9272 23.0752 26.8904V22.7546C23.189 22.8232 23.3095 22.8868 23.4384 22.9436C23.7464 23.0826 24.1279 23.183 24.5832 23.2416L26.9248 23.5998Z" fill="white"/>
<path d="M24.9699 32.494C25.7382 32.494 26.3893 32.4087 26.9248 32.2363V36.0424C26.9248 37.1002 26.0595 37.9672 25 37.9672C23.9556 37.9672 23.097 37.122 23.0769 36.0825C23.0752 36.0691 23.0752 36.0558 23.0752 36.0424V32.3183C23.6845 32.4354 24.3171 32.494 24.9699 32.494Z" fill="white"/>
</g>
<g opacity="0.5">
<path d="M25 46.1556C13.3348 46.1556 3.84448 36.6652 3.84448 25C3.84448 13.3348 13.3347 3.84442 25 3.84442C36.6653 3.84442 46.1556 13.3347 46.1556 25C46.1556 36.6653 36.6653 46.1556 25 46.1556ZM25 9.23866C16.3092 9.23866 9.23872 16.3092 9.23872 25C9.23872 33.6908 16.3092 40.7613 25 40.7613C33.6909 40.7613 40.7614 33.6908 40.7614 25C40.7614 16.3092 33.6908 9.23866 25 9.23866Z" fill="#AE8132"/>
</g>
<path d="M17.9686 8.03367C18.0134 8.14734 18.0522 8.25066 18.0846 8.34324C18.1172 8.43562 18.1408 8.52351 18.1554 8.60662C18.17 8.68933 18.1739 8.76961 18.1668 8.84695C18.1601 8.924 18.1384 9.00486 18.1019 9.08855C18.0534 9.20027 17.9864 9.29793 17.9011 9.38172C17.8157 9.46511 17.7038 9.53435 17.5657 9.58855C17.4279 9.64275 17.2985 9.66853 17.1778 9.6658C17.0571 9.66306 16.941 9.63777 16.829 9.58904C16.7455 9.55232 16.6748 9.50828 16.6171 9.45633C16.5592 9.40467 16.5078 9.34295 16.4636 9.27176C16.4185 9.20056 16.3769 9.1201 16.3376 9.03025C16.298 8.94002 16.2562 8.83836 16.2115 8.72469C16.167 8.61121 16.1284 8.50818 16.096 8.41551C16.0632 8.32273 16.0392 8.23523 16.0232 8.15262C16.0076 8.07049 16.0029 7.99041 16.0102 7.91306C16.0169 7.83582 16.0388 7.75515 16.075 7.67146C16.1237 7.55974 16.1911 7.46189 16.2778 7.37761C16.3643 7.29353 16.4765 7.22449 16.6147 7.17029C16.7528 7.1158 16.8816 7.09031 17.0012 7.09353C17.1204 7.09656 17.2363 7.12234 17.348 7.17078C17.4317 7.2072 17.5024 7.25174 17.5602 7.30349C17.6179 7.35545 17.6693 7.41687 17.7154 7.48748C17.7612 7.55818 17.8038 7.63865 17.8431 7.7283C17.8821 7.81834 17.9244 7.92029 17.9686 8.03367ZM17.5045 8.21619C17.4598 8.10271 17.4205 8.00955 17.3869 7.93679C17.353 7.86404 17.322 7.80496 17.2937 7.75935C17.2655 7.71375 17.2385 7.67879 17.2121 7.65486C17.1857 7.63015 17.1567 7.61004 17.1249 7.59441C17.0766 7.56951 17.0227 7.55574 16.9635 7.55174C16.9041 7.54793 16.8423 7.55896 16.7777 7.58455C16.7133 7.60965 16.6601 7.64422 16.6193 7.68709C16.5784 7.73045 16.5475 7.77752 16.5268 7.82937C16.5143 7.86287 16.5065 7.89744 16.5041 7.93308C16.5014 7.96873 16.5052 8.01287 16.5155 8.06551C16.5261 8.11804 16.5442 8.18221 16.5701 8.25818C16.5963 8.33416 16.6315 8.42898 16.6764 8.54256C16.7209 8.65603 16.7595 8.74949 16.7923 8.82254C16.8249 8.89607 16.8553 8.95476 16.883 8.99929C16.9107 9.04383 16.9376 9.0781 16.9637 9.10232C16.9902 9.12693 17.0192 9.14666 17.0514 9.16267C17.1016 9.18621 17.1568 9.20076 17.2168 9.20545C17.2765 9.21033 17.3385 9.19998 17.4033 9.17439C17.4677 9.149 17.5203 9.11453 17.5607 9.0701C17.601 9.02586 17.6306 8.9782 17.649 8.92742C17.6617 8.89412 17.6693 8.85955 17.6721 8.8239C17.6746 8.78806 17.6712 8.74451 17.6611 8.69304C17.6513 8.64177 17.6339 8.5781 17.609 8.50154C17.5838 8.42508 17.5491 8.32976 17.5045 8.21619Z" fill="#EFB832"/>
<path d="M20.3198 8.6915L18.926 7.4498L19.3443 8.96161L18.8637 9.09472L18.1816 6.63144L18.6108 6.51279L20.0037 7.75126L19.5861 6.24286L20.0673 6.10995L20.749 8.57285L20.3198 8.6915Z" fill="#EFB832"/>
<path d="M21.262 8.49187L20.8945 5.96257L22.5604 5.72058L22.6244 6.16111L21.4523 6.33142L21.5383 6.92439L22.5367 6.77966L22.6004 7.2197L21.6024 7.36482L21.6918 7.97957L22.8641 7.80925L22.9282 8.24949L21.262 8.49187Z" fill="#EFB832"/>
<path d="M25.9903 6.41639C25.9898 6.5243 25.9703 6.62636 25.9315 6.72313C25.8928 6.82011 25.8375 6.90468 25.7655 6.97743C25.6934 7.05009 25.6044 7.10731 25.4991 7.14862C25.3935 7.19042 25.2751 7.21083 25.1438 7.21034L24.6517 7.20819L24.648 8.1703L24.1492 8.16854L24.159 5.61249L25.1497 5.61639C25.2813 5.61688 25.3999 5.63827 25.5051 5.68055C25.6102 5.72264 25.6984 5.78075 25.77 5.8538C25.8414 5.92723 25.8962 6.01239 25.934 6.10936C25.972 6.20673 25.9906 6.30848 25.9903 6.41639ZM25.4913 6.41464C25.4918 6.30936 25.4591 6.22421 25.3936 6.15946C25.3281 6.09452 25.2377 6.06161 25.123 6.06151L24.6562 6.05956L24.6537 6.75926L25.1205 6.76122C25.235 6.76161 25.3256 6.73036 25.3916 6.66727C25.4575 6.60419 25.4909 6.51991 25.4913 6.41464Z" fill="#EFB832"/>
<path d="M26.3362 8.20761L26.6227 5.66806L28.2955 5.85654L28.2457 6.29882L27.0685 6.1663L27.0015 6.76201L28.0038 6.8748L27.9538 7.31728L26.9514 7.20419L26.8819 7.82128L28.059 7.9538L28.0092 8.39628L26.3362 8.20761Z" fill="#EFB832"/>
<path d="M29.8943 8.80349L29.2623 7.04675L28.9083 8.57527L28.4221 8.46257L28.9989 5.97253L29.4324 6.07302L30.0656 7.82624L30.4186 6.30154L30.9048 6.41423L30.3283 8.90408L29.8943 8.80349Z" fill="#EFB832"/>
<path d="M32.2471 9.57313L31.8368 7.75213L31.2967 9.22479L30.8281 9.05272L31.7085 6.65359L32.1262 6.80701L32.5375 8.62488L33.0767 7.15535L33.545 7.32742L32.6646 9.72703L32.2471 9.57313Z" fill="#EFB832"/>
<path d="M34.4855 9.44745L34.0172 10.385L33.574 10.1639L34.0422 9.22597L34.0285 7.53427L34.5132 7.77626L34.4803 8.91122L35.3614 8.19951L35.8461 8.4415L34.4855 9.44745Z" fill="#EFB832"/>
<path d="M32.3439 42.2508C32.2992 42.137 32.2603 42.0338 32.228 41.9412C32.1954 41.8488 32.1718 41.761 32.1572 41.6778C32.1427 41.5952 32.1386 41.5149 32.1458 41.4376C32.1525 41.3606 32.1742 41.2797 32.2106 41.1959C32.2592 41.0842 32.3261 40.9865 32.4115 40.9027C32.4969 40.8193 32.6088 40.7501 32.7469 40.6959C32.8847 40.6417 33.014 40.6159 33.1347 40.6187C33.2555 40.6214 33.3716 40.6467 33.4836 40.6954C33.5671 40.7321 33.6378 40.7762 33.6955 40.8281C33.7534 40.8798 33.8047 40.9415 33.849 41.0127C33.894 41.0839 33.9357 41.1644 33.975 41.2542C34.0145 41.3444 34.0562 41.4461 34.1011 41.5598C34.1456 41.6733 34.1842 41.7763 34.2166 41.8689C34.2494 41.9616 34.2734 42.0491 34.2893 42.1318C34.305 42.2139 34.3096 42.294 34.3024 42.3713C34.2957 42.4486 34.2738 42.5292 34.2376 42.6129C34.1888 42.7246 34.1215 42.8225 34.0347 42.9068C33.9483 42.9909 33.8361 43.06 33.6978 43.1142C33.5597 43.1687 33.4309 43.1942 33.3114 43.1909C33.1922 43.1879 33.0762 43.1622 32.9645 43.1136C32.8808 43.0772 32.81 43.0326 32.7524 42.9809C32.6947 42.9289 32.6431 42.8675 32.5971 42.7969C32.5513 42.7262 32.5088 42.6457 32.4695 42.5561C32.4304 42.466 32.3883 42.3641 32.3439 42.2508ZM32.8081 42.0682C32.8528 42.1817 32.8921 42.2748 32.9257 42.3476C32.9595 42.4203 32.9906 42.4794 33.0188 42.525C33.047 42.5706 33.0741 42.6056 33.1005 42.6296C33.1268 42.6543 33.1558 42.6744 33.1877 42.6901C33.236 42.7151 33.2899 42.7287 33.3491 42.7327C33.4085 42.7365 33.4703 42.7256 33.5348 42.6999C33.5992 42.6748 33.6524 42.6402 33.6932 42.5974C33.7343 42.554 33.7651 42.5069 33.7857 42.4551C33.7982 42.4216 33.806 42.387 33.8086 42.3514C33.8113 42.3157 33.8075 42.2716 33.7971 42.2191C33.7866 42.1664 33.7684 42.1024 33.7426 42.0264C33.7165 41.9504 33.6811 41.8556 33.6363 41.742C33.5918 41.6285 33.5532 41.5351 33.5204 41.462C33.4878 41.3885 33.4574 41.3299 33.4297 41.2853C33.4019 41.2407 33.3751 41.2065 33.349 41.1822C33.3224 41.1576 33.2934 41.1379 33.2613 41.1219C33.2111 41.0984 33.1558 41.0838 33.0959 41.0791C33.0362 41.0742 32.9742 41.0846 32.9094 41.1102C32.845 41.1356 32.7924 41.17 32.7519 41.2145C32.7117 41.2587 32.6821 41.3064 32.6636 41.3571C32.6509 41.3904 32.6432 41.425 32.6405 41.4607C32.638 41.4965 32.6414 41.5401 32.6514 41.5915C32.6613 41.6428 32.6787 41.7065 32.7036 41.783C32.7289 41.8593 32.7636 41.9547 32.8081 42.0682Z" fill="#EFB832"/>
<path d="M29.9927 41.593L31.3865 42.8347L30.9682 41.3229L31.4488 41.1898L32.1309 43.653L31.7017 43.7717L30.3088 42.5332L30.7264 44.0416L30.2452 44.1745L29.5635 41.7116L29.9927 41.593Z" fill="#EFB832"/>
<path d="M29.0507 41.7925L29.4182 44.3218L27.7523 44.5638L27.6883 44.1232L28.8604 43.9529L28.7745 43.36L27.776 43.5047L27.7124 43.0646L28.7103 42.9195L28.6209 42.3048L27.4487 42.4751L27.3845 42.0349L29.0507 41.7925Z" fill="#EFB832"/>
<path d="M24.3223 43.868C24.3228 43.7601 24.3423 43.658 24.3811 43.5612C24.4197 43.4643 24.475 43.3797 24.5471 43.307C24.6191 43.2344 24.7081 43.1772 24.8135 43.1358C24.919 43.094 25.0374 43.0736 25.1688 43.0741L25.6607 43.0763L25.6645 42.1142L26.1633 42.1159L26.1534 44.672L25.1628 44.6681C25.0312 44.6676 24.9126 44.6462 24.8073 44.6039C24.7022 44.5618 24.6141 44.5037 24.5425 44.4307C24.4711 44.3572 24.4162 44.2721 24.3784 44.1751C24.3406 44.0776 24.3221 43.9759 24.3223 43.868ZM24.8214 43.8697C24.8208 43.975 24.8535 44.0602 24.919 44.1249C24.9846 44.1898 25.0749 44.2227 25.1896 44.2229L25.6564 44.2248L25.659 43.5251L25.1922 43.5232C25.0777 43.5228 24.987 43.554 24.9211 43.6171C24.8551 43.6802 24.8217 43.7645 24.8214 43.8697Z" fill="#EFB832"/>
<path d="M23.9764 42.0768L23.6898 44.6163L22.0171 44.4278L22.0669 43.9856L23.244 44.1181L23.311 43.5224L22.3087 43.4096L22.3587 42.9671L23.361 43.0802L23.4306 42.4631L22.2534 42.3306L22.3032 41.8881L23.9764 42.0768Z" fill="#EFB832"/>
<path d="M20.4183 41.4809L21.0503 43.2376L21.4042 41.7091L21.8904 41.8218L21.3137 44.3118L20.8802 44.2113L20.247 42.4581L19.8939 43.9828L19.4077 43.8701L19.9843 41.3803L20.4183 41.4809Z" fill="#EFB832"/>
<path d="M18.0655 40.7112L18.4756 42.5322L19.0158 41.0596L19.4843 41.2316L18.604 43.6308L18.1863 43.4773L17.7749 41.6594L17.2357 43.1289L16.7673 42.9568L17.6477 40.5572L18.0655 40.7112Z" fill="#EFB832"/>
<path d="M15.827 40.8369L16.2952 39.8994L16.7385 40.1205L16.2702 41.0584L16.284 42.7501L15.7992 42.5081L15.8321 41.3731L14.9511 42.0849L14.4663 41.8429L15.827 40.8369Z" fill="#EFB832"/>
<path d="M32.408 26.7842C32.1502 26.0309 31.7334 25.3967 31.1593 24.8811C30.7024 24.4242 30.1568 24.0678 29.5224 23.8099C28.888 23.5522 28.0846 23.353 27.1123 23.214L26.9248 23.1855L24.5832 22.8273C24.1279 22.7687 23.7462 22.6683 23.4383 22.5294C23.3094 22.4724 23.1889 22.4089 23.0751 22.3403C22.9178 22.2449 22.7772 22.1394 22.65 22.0239C22.4308 21.8063 22.2785 21.5686 22.1881 21.3109C22.0995 21.0532 22.0542 20.7853 22.0542 20.5075C22.0542 19.7727 22.317 19.1434 22.8426 18.6179C22.9146 18.5459 22.9916 18.4789 23.0752 18.4186C23.5975 18.0253 24.3389 17.8295 25.298 17.8295C25.8185 17.8295 26.3608 17.8764 26.9249 17.9718C27.1139 18.0036 27.3048 18.0404 27.499 18.0822C28.2722 18.2513 28.987 18.6529 29.6414 19.2873L32.2591 16.698C31.3469 15.8059 30.346 15.1716 29.2547 14.795C28.5551 14.554 27.7769 14.3883 26.9232 14.3029C26.4462 14.2527 25.9441 14.2293 25.4168 14.2293C24.5733 14.2293 23.7917 14.3146 23.0752 14.4871C22.8158 14.549 22.5648 14.621 22.322 14.7063C21.4098 15.0226 20.6366 15.4645 20.0022 16.0286C19.3678 16.5943 18.8807 17.2688 18.5444 18.0521C18.2063 18.8354 18.0389 19.7042 18.0389 20.6565C18.0389 22.4608 18.5444 23.85 19.5553 24.8208C20.0324 25.2777 20.5963 25.6493 21.2508 25.9372C21.768 26.1632 22.3739 26.3439 23.0751 26.4762C23.2643 26.513 23.4584 26.5465 23.661 26.5765L26.19 26.9632C26.4745 27.005 26.7189 27.0502 26.9248 27.0971C27.1072 27.1406 27.2595 27.1841 27.38 27.2309C27.6377 27.3297 27.8754 27.4787 28.0947 27.6762C28.5298 28.1131 28.7491 28.6988 28.7491 29.4319C28.7491 30.2855 28.4311 30.9399 27.7967 31.3952C27.5524 31.5726 27.2612 31.7149 26.9248 31.822C26.3892 31.9943 25.7381 32.0797 24.9699 32.0797C24.3171 32.0797 23.6844 32.0211 23.0751 31.9039C22.7789 31.847 22.4893 31.7766 22.2032 31.693C21.3312 31.4352 20.5579 30.9699 19.8833 30.2954L17.2053 32.9717C18.2364 34.0244 19.3812 34.7525 20.6416 35.1593C21.3914 35.4019 22.2032 35.571 23.0769 35.668C23.6694 35.735 24.292 35.7685 24.9415 35.7685C25.631 35.7685 26.2921 35.7133 26.9249 35.6012C27.3098 35.5342 27.6847 35.4455 28.0496 35.3367C29.012 35.0505 29.8438 34.6338 30.5485 34.0881C31.2532 33.5425 31.8038 32.8729 32.2005 32.0796C32.5972 31.2862 32.7948 30.374 32.7948 29.343C32.7946 28.391 32.6657 27.539 32.408 26.7842Z" fill="#CC9322"/>
<path d="M26.9248 14.3718V17.972C26.3607 17.8766 25.8185 17.8297 25.2979 17.8297C24.3389 17.8297 23.5975 18.0255 23.0752 18.4188V14.3718C23.0752 13.3123 23.9422 12.447 25 12.447C25.5289 12.447 26.0109 12.6629 26.3591 13.0127C26.6938 13.3458 26.9064 13.801 26.9231 14.3031C26.9248 14.3266 26.9248 14.3483 26.9248 14.3718Z" fill="#CC9322"/>
<path d="M26.9248 23.1856V27.0972C26.7189 27.0503 26.4746 27.0051 26.19 26.9633L23.661 26.5767C23.4585 26.5465 23.2644 26.5131 23.0752 26.4763V22.3404C23.189 22.4091 23.3095 22.4726 23.4384 22.5295C23.7464 22.6684 24.1279 22.7688 24.5832 22.8274L26.9248 23.1856Z" fill="#CC9322"/>
<path d="M24.9699 32.0799C25.7382 32.0799 26.3893 31.9945 26.9248 31.8221V35.6282C26.9248 36.686 26.0595 37.553 25 37.553C23.9556 37.553 23.097 36.7078 23.0769 35.6683C23.0752 35.655 23.0752 35.6416 23.0752 35.6282V31.9042C23.6845 32.0213 24.3171 32.0799 24.9699 32.0799Z" fill="#CC9322"/>
<path d="M6.44165 25.9336C6.95726 25.9336 7.37524 25.5156 7.37524 25C7.37524 24.4844 6.95726 24.0664 6.44165 24.0664C5.92604 24.0664 5.50806 24.4844 5.50806 25C5.50806 25.5156 5.92604 25.9336 6.44165 25.9336Z" fill="#EFB832"/>
<path d="M43.3711 25.9336C43.8867 25.9336 44.3047 25.5156 44.3047 25C44.3047 24.4844 43.8867 24.0664 43.3711 24.0664C42.8555 24.0664 42.4375 24.4844 42.4375 25C42.4375 25.5156 42.8555 25.9336 43.3711 25.9336Z" fill="#EFB832"/>
<path opacity="0.06" d="M25.0117 49.9765C31.4137 49.9765 37.8157 47.5397 42.6895 42.666C52.4369 32.9186 52.4369 17.0581 42.6895 7.31074C37.8156 2.43682 31.4137 0 25.0117 0V49.9765Z" fill="#040000"/>
</g>
<defs>
<clipPath id="clip0_35_1694">
<rect width="50" height="50" fill="white"/>
</clipPath>
</defs>
</svg>
