<svg width="365" height="327" viewBox="0 0 365 327" fill="none" xmlns="http://www.w3.org/2000/svg">
<path d="M308.7 103.8C308.3 103.8 308.1 103.9 307.9 104C307.7 104.1 307.6 104.2 307.4 104.4C307.3 104.6 307.2 104.9 307.1 105.2C307.1 105.4 307 105.8 307 106.4C307 107.4 307 108 306.9 108.4C306.8 108.8 306.7 109.1 306.4 109.3C306.2 109.5 305.8 109.7 305.4 109.8C305.1 109.9 304.6 109.9 304 109.9H303.6V108.1C304.1 108.1 304.5 108.1 304.6 108C304.8 107.9 304.9 107.8 305 107.7C305.1 107.6 305.1 107.4 305.1 107.1C305.1 106.8 305.1 106.2 305.2 105.4C305.2 104.9 305.3 104.5 305.4 104.2C305.5 103.9 305.7 103.6 305.8 103.4C306 103.2 306.2 103 306.5 102.8C306.1 102.6 305.9 102.3 305.7 102.1C305.5 101.8 305.3 101.4 305.2 100.9C305.1 100.6 305.1 99.8 305.1 98.6C305.1 98.2 305.1 98 305 97.9L304.7 97.6C304.5 97.5 304.2 97.5 303.6 97.5V95.7H304C304.7 95.7 305.2 95.8 305.5 95.9C305.9 96 306.2 96.2 306.4 96.4C306.6 96.6 306.8 97 306.9 97.3C307 97.7 307 98.2 307 99C307 99.9 307 100.5 307.1 100.8C307.2 101.2 307.4 101.5 307.6 101.6C307.8 101.8 308.2 101.9 308.6 101.9V103.8H308.7Z" fill="white"/>
<path d="M343.9 214.7C341.2 232.7 340.2 238.8 338.7 246.6C338.3 248.6 337.4 251.2 336.1 253.1C334.5 255.4 332.2 256.5 329.5 253.9C325.6 270.9 317.1 299.4 298.3 311.2C293.2 314.4 287.3 316.4 280.5 316.6C273.7 316.8 267.5 314.7 262.1 311.2C245.2 300.4 234.4 276.3 229.8 264.7C230.3 264.4 230.7 264 231.1 263.7C231.2 263.6 231.4 263.5 231.5 263.4L231.8 263.1C232.4 262.3 232.7 261.4 232.7 260.5C232.7 258.7 231.5 256.8 229.4 256.4L226.1 255.9C226.4 255.9 226.7 256.1 226.9 256.2L218.4 255L180.9 249.5L170.8 248L171.6 217.3C177.3 213.8 182.2 209.1 185.3 203.1C185.3 203 185.3 202.9 185.2 202.9C185.2 202.9 185.3 202.8 185.3 202.7C185.7 204.3 186.9 205.4 188.5 205.8C188.6 205.8 188.7 205.8 188.8 205.9H189.7C190.4 205.8 190.8 205.5 191.5 205.4H192.1C192.2 205.4 192.3 205.4 192.4 205.5C192.7 205.6 192.9 205.7 193.3 205.8C193.4 205.8 193.5 205.9 193.6 205.9C193.7 205.9 193.8 205.9 193.9 206H194.1C194.2 206 194.4 206 194.5 206.1H195.5C196.5 206 197.2 205.6 197.8 205.5H198.7C198.8 205.5 198.9 205.5 198.9 205.6C199 205.6 199.1 205.7 199.1 205.7C199.3 205.8 199.5 205.9 199.8 205.9C199.9 205.9 200 205.9 200.1 206H201.4C203.1 205.8 204.4 204.3 204.9 202.7C204.9 202.7 204.9 202.8 205 202.8V203C212.1 216.8 227.9 223.6 243.4 225.3C243.6 224.6 243.9 223.9 244.1 223.2C244.3 222.6 244.5 222 244.6 221.4C244.9 220.4 245.2 219.3 245.5 218.3C245.7 217.7 245.8 217.1 246 216.5C246.1 215.9 246.3 215.4 246.4 214.8V214.7C246.5 214.3 246.6 213.8 246.7 213.4V212.9C246.7 212.8 246.8 212.6 246.8 212.5C246.9 212.1 247 211.7 247 211.3C247.3 209.6 247.6 207.8 247.9 206.1C248 205.7 248 205.3 248 204.9C248.1 204.1 248.2 203.4 248.2 202.6C248.2 202.1 248.3 201.6 248.3 201.1C248.3 200.4 248.4 199.6 248.4 198.9V196.5C248.4 192.5 248 188.5 247.3 184.6C246.7 181.4 245.8 178.3 244.5 175.3L244.4 175.1C243.5 172.5 241.9 169.4 240.6 167.6C240.5 167.5 240.5 167.4 240.4 167.3H240.3C232.3 169 225.5 173.3 219.5 177.7C219 178 218.6 178.4 218.1 178.7C217.6 179 217.2 179.4 216.7 179.8C216.3 180.1 216 180.4 215.6 180.6C215.3 180.8 215 181.1 214.7 181.3L214.6 181.4C209.3 185.5 206.5 187.4 204.8 188.2C204.4 186.4 203.2 184.8 201.3 184.6H200.1C200 184.6 199.9 184.6 199.8 184.7C199.6 184.8 199.3 184.9 199.1 184.9C199 184.9 198.9 185 198.9 185C198.8 185 198.8 185 198.7 185.1H197.8C197.2 185 196.6 184.6 195.5 184.5H194.5C194.3 184.5 194.2 184.5 194.1 184.6H193.8C193.7 184.6 193.6 184.7 193.5 184.7C193.1 184.8 192.9 185 192.6 185.1C192.5 185.1 192.4 185.1 192.3 185.2H191.7C191 185.1 190.6 184.8 189.9 184.7H189.2C189 184.7 188.9 184.7 188.7 184.8C186.9 185.2 185.9 186.9 185.6 188.6C184.6 188.1 183.6 187.4 182.6 186.7C182.3 186.5 181.9 186.2 181.5 185.9C181.5 185.9 181.4 185.9 181.4 185.8C181 185.5 180.6 185.2 180.1 184.9C179.8 184.6 179.4 184.4 179.1 184.1L177.9 183.2C175.8 181.6 173.6 179.8 171.2 178.1C170.6 177.7 170.1 177.3 169.5 176.9C169 176.5 168.4 176.1 167.9 175.8C167.3 175.4 166.6 174.9 165.9 174.5C163.7 173.1 161.4 171.8 159 170.7C156.1 169.3 153.1 168.2 149.9 167.5H149.8C149.2 168.5 148.6 169.4 148.1 170.4C148.2 168.8 148.4 166.8 147.8 166.3C147.8 166.1 147.7 166.1 147.7 166.1C146.8 165.8 146.2 167.8 146 168.1C145.3 168.7 146.4 166.3 146.5 165.4C146.6 164.8 146.6 164.1 146.7 163.5C146.7 163.3 146.7 163.1 146.8 162.9C146.9 161.2 147 159.5 146.8 157.9C146.7 157.4 145.6 159.1 145.3 158.6C144.7 157.5 145.5 155.2 145.3 153.9C144.9 151.3 143.3 148.6 142.1 146.3C137.3 136.8 133 126.4 130.3 115.7C125 94.7 127 76.2 138.4 59.4C141.9 54.3 145.2 48.7 150.4 45.2C147.3 44.8 144.4 45.3 140.9 46.9C144.1 41.3 146.6 40.1 150.6 39.1C150.7 38.5 143.2 35.8 137.1 38.1C142.6 29.2 157.5 30.4 157.5 28.3C157.5 25.8 150.8 25 145.5 25.9C153.5 19.3 164.8 19.4 174 23.2C170.2 19.2 170.3 13.8 172.8 10.9C179 17 189.9 21.3 203.2 21.4C200.4 20.5 199.2 18 200.4 15.6C203.4 18.3 214.5 21.5 226.4 25.5C289.2 46.5 310.4 111.1 310.4 154.7C310.4 157.3 310.3 159.2 310.4 161.8C316.8 162.5 323.2 164.9 329.2 169.8C340.9 179 346.6 196.7 343.9 214.7Z" fill="#CAA77A"/>
<path d="M263.6 312.3C244.2 312 181.9 312.3 165.1 312.2C166.7 312 168.1 311.4 169.4 310.5C179.8 302.6 213.6 277 229.6 264.9C234.3 276.3 244.9 301.5 263.6 312.3ZM324.7 271.2C324 284 322 297.2 316.8 312.2H296.6C311.3 304 319.7 286.6 324.7 271.2ZM343.7 215.2C341 233.2 340 239.3 338.5 247.1C337.7 251.4 334.3 259.2 329.3 254.4C301.9 241.6 279.5 241.2 268.7 240.3C268 240.2 267.4 240.1 266.8 240C266.2 241.5 264.6 246 264.4 248.8C256.8 242.4 247.7 237 237.7 234.7C218.9 230.3 202.8 233.2 189.6 242.5C188.2 243.5 186.8 244.5 185.5 245.6C180.5 245.4 175.6 245.1 170.8 244.6L171.5 217.7C177.2 214.2 182.1 209.5 185.2 203.5C185.2 203.4 185.2 203.3 185.1 203.3C185.1 203.3 185.2 203.2 185.2 203.1C185.6 204.7 186.8 205.8 188.4 206.2C188.5 206.2 188.6 206.2 188.7 206.3H189.6C190.3 206.2 190.7 205.9 191.4 205.8H192C192.5 205.9 192.9 206.1 193.4 206.3H193.5C193.6 206.3 193.7 206.3 193.8 206.4C193.9 206.4 194.1 206.4 194.2 206.5H195.2C196.2 206.4 196.9 206 197.5 205.9H198.4C198.9 206 199.3 206.2 199.8 206.4H201.1C202.8 206.2 204.1 204.7 204.6 203.1C204.6 203.1 204.6 203.2 204.7 203.2V203.4C211.8 217.2 227.6 224 243.1 225.7C243.3 225 243.6 224.3 243.8 223.6C244 223 244.2 222.4 244.3 221.8C244.6 220.8 244.9 219.7 245.2 218.7C245.4 218.1 245.5 217.5 245.7 216.9C245.8 216.3 246 215.8 246.1 215.2C246.2 214.7 246.3 214.3 246.4 213.8C246.5 213.3 246.6 212.9 246.7 212.4C246.8 211.7 247 211.1 247.1 210.4C247.2 209.7 247.3 209.1 247.4 208.5C247.5 207.8 247.6 207.2 247.7 206.5C247.8 205.8 247.9 205.2 247.9 204.5C248 203.8 248 203.2 248.1 202.6C248.1 202.1 248.2 201.6 248.2 201.1C248.2 200.8 248.2 200.4 248.3 200.1C248.3 199.6 248.3 199.2 248.4 198.7V194.9C248.4 194 248.3 193.2 248.3 192.3C248.3 191.7 248.2 191.2 248.2 190.6C248.1 190.1 248.1 189.5 248 189C248 188.6 247.9 188.3 247.8 187.9C247.7 187.4 247.6 186.9 247.6 186.4C247.5 185.9 247.4 185.5 247.3 185C248.6 184.6 249.5 184.3 250.1 184C256.8 181.7 265.5 178.6 272.6 174.6C277.2 167.8 292.4 157.4 310 160.7C316.1 161.9 322.5 164.7 328.8 169.8C340.8 179.5 346.4 197.2 343.7 215.2ZM148.1 170.5C144.4 176.5 142.6 186.3 142.1 190.6C136.5 189.7 123.2 188.4 117.4 187.7C124.8 172.8 133.2 166.7 146.7 162.4C146.6 164.1 145.5 167.5 145.7 167.9C145.9 168.2 147.5 165.7 147.7 166C148.5 166.6 148.1 168.8 148.1 170.5Z" fill="#FFDB1F"/>
<path d="M117.4 187.8C124.8 172.9 133.2 166.8 146.7 162.5" stroke="#2D1F04" stroke-width="2.7806" stroke-miterlimit="10" stroke-linecap="round" stroke-linejoin="round"/>
<path d="M216.5 271.3C216.3 271 216.2 270.8 216 270.5Z" fill="#B6B1AE"/>
<path d="M134.5 92.2C137 82.1 143.2 70.8 152.2 69.1C162.8 67.1 171.6 75.7 181.8 75.2C183.7 75.1 187.4 74 188.5 72.3C189.6 70.7 188.5 68.5 188.5 68.5C190.1 69 191.7 71.3 193.7 71.9C201.4 74.1 209.3 67.4 216.3 65.3C239.5 58.3 257.6 60.8 269.9 83.2C272.7 88.2 276.9 99.7 274 112.6C269.8 131.3 267.6 139.2 247.2 153.2C223.1 169.9 173.1 178.1 148.2 146.6C136.7 131.9 129.9 111 134.5 92.2Z" fill="#FFDBAF"/>
<path d="M181.2 100.7C172.8 96.5 166 117.8 166.6 123.9C168.9 144.8 199.5 143.7 213.7 136.7C234.2 126.5 209.1 93.5 194.5 99.3M133.9 91.8C130.5 105.2 135.2 125.5 138.7 128.1C141.4 130.1 156.3 124.6 166.7 108.8C173.7 98.3 176 82.9 173.5 80.2C163.9 69.9 150.4 69.6 147.4 70.2C143.1 70.9 137 79.5 133.9 91.8Z" fill="#9D7B51"/>
<path d="M207.6 75C211.4 124.3 262.6 140.7 268.5 132.2C272.3 126.7 280.3 101.4 270.5 84.1C269.5 82.4 265.2 71.6 243.9 65.3C229.7 61.1 216.5 66 207.6 75Z" fill="#9D7B51"/>
<path d="M159.1 167.2L159 174.1M165.9 170.7V177.7" stroke="#9D7B51" stroke-width="4.1072" stroke-miterlimit="10" stroke-linecap="round" stroke-linejoin="round"/>
<path opacity="0.23" d="M126.2 256.7C124.6 260.2 131.5 248.5 133.9 247C138.9 243.8 146.5 243.7 152.1 243.7C166.6 243.7 178.4 257.4 194 257.4C198 257.4 209.5 255.2 206 248.3C204.1 244.5 195 245.4 191.5 245.4C176.6 245.4 163.2 243.7 148.8 241.3C145.3 240.7 137 240.7 134.1 235.4C133.3 234 130.8 245.2 130.2 246.1C126.8 251 129 250.5 126.2 256.7Z" fill="#3F2719"/>
<path d="M266.2 227.6C281 222.8 303.7 224.2 319.5 235.1" stroke="#2D1F04" stroke-width="2.7806" stroke-miterlimit="10" stroke-linecap="round" stroke-linejoin="round"/>
<path d="M277.7 226.9C277.5 228.9 277.6 230.4 277.8 232.4M289.2 226.9L289.1 231.6M297.2 227.9L296 232.5M267.8 205.4C269.1 201.2 270.8 196.2 270.7 191.8" stroke="#2D1F04" stroke-width="2.7806" stroke-miterlimit="10" stroke-linecap="round" stroke-linejoin="round"/>
<path d="M263.2 190.2C266.1 197.3 268.9 206.9 267.9 214.8C267.4 218.9 266.1 223.5 266.1 227.5M266.2 227.6C262.9 233.6 260.7 237.3 268.8 239.8M316.8 312.1C322.1 297.1 324.1 283.9 324.8 271.1M148.1 182.4C196.1 196.2 244.9 186.4 250.3 183.6M310.3 161.5C310.2 158.9 310.3 156.9 310.3 154.4C310.3 110.8 289.1 46.2 226.3 25.2C214.4 21.2 203.4 18.1 200.3 15.3C199.2 17.7 200.3 20.2 203.2 21.1C189.8 20.9 179 16.7 172.8 10.5C170.3 13.4 170.2 18.7 174 22.8C164.9 19 153.6 18.9 145.5 25.5C150.8 24.7 157.5 25.5 157.5 28C157.5 30.1 142.6 28.9 137.1 37.8C143.2 35.5 150.7 38.2 150.6 38.8C146.6 39.8 144.1 41 140.9 46.6C144.4 45 147.3 44.5 150.4 44.9C144.8 48.7 141.4 54.8 137.6 60.1C119.1 86.4 128.8 119.6 142 146C143.2 148.3 144.8 151 145.2 153.6C145.4 154.9 144.6 157.1 145.2 158.3C145.4 158.8 146.6 157 146.7 157.6C147 160 146.7 162.8 146.5 165.2C146.4 166.1 145.4 168.5 146 167.9C146.2 167.7 146.8 165.6 147.7 165.9C148.2 166.1 147.7 179.1 147.5 180.4" stroke="#2D1F04" stroke-width="2.7806" stroke-miterlimit="10" stroke-linecap="round" stroke-linejoin="round"/>
<path d="M162.8 90.6C162.8 103.8 137.3 104.3 136 92.5C135.4 86.8 137.7 84 141.7 84C148.7 84 163.2 81.1 162.8 90.6Z" fill="white"/>
<path d="M162.8 90.6C162.8 103.8 137.3 104.3 136 92.5C135.4 86.8 137.7 84.2 141.7 84C148.7 83.7 163.2 81.1 162.8 90.6Z" stroke="#2D1F04" stroke-width="3.2369" stroke-miterlimit="10" stroke-linecap="round" stroke-linejoin="round"/>
<path d="M144.7 91.1C144.7 88.5 146.8 86.4 149.4 86.4C152 86.4 154.1 88.5 154.1 91.1C154.1 93.7 152 95.8 149.4 95.8C146.8 95.8 144.7 93.7 144.7 91.1Z" fill="#2D1F04"/>
<path d="M255.6 89.1C254.2 100.9 224.9 103.4 224.6 87.9C224.5 81.7 234.1 81 244.7 79.9C255.1 78.9 256.5 81.1 255.6 89.1Z" fill="white"/>
<path d="M255.6 89.1C254.7 100.9 224.9 103.4 224.6 87.9C224.5 81.7 233.8 81.1 244.7 79.9C253.6 79 256.2 81.2 255.6 89.1Z" stroke="#2D1F04" stroke-width="3.2369" stroke-miterlimit="10" stroke-linecap="round" stroke-linejoin="round"/>
<path d="M235.4 88C235.7 85.4 237.9 83.5 240.5 83.8C243.1 84.1 245 86.3 244.7 88.9C244.4 91.5 242.2 93.4 239.6 93.1C237 92.9 235.2 90.6 235.4 88Z" fill="#2D1F04"/>
<path d="M190.4 106.8V116.2C190.4 120.7 197.3 128.6 207.6 121.5M187.1 122.4C184.4 124.8 180.1 125.8 175 120.7" stroke="#2D1F04" stroke-width="3.2369" stroke-miterlimit="10" stroke-linecap="round" stroke-linejoin="round"/>
<path d="M176.2 100.8C176 97.6 182.3 94.8 190.1 94.4C197.9 94 204.4 96.3 204.5 99.4C204.7 102.6 198.4 105.4 190.6 105.8C182.8 106.2 176.3 103.9 176.2 100.8Z" fill="#251707"/>
<path d="M209 78.7C227.4 60.2 251.1 62 275.1 81.4M172 80.4C153.9 64.3 137.9 66.4 121.3 90.1M173.3 88.4C181.1 81.3 197.9 79.7 207.6 85.1" stroke="#2D1F04" stroke-width="8.0658" stroke-miterlimit="10" stroke-linecap="round" stroke-linejoin="round"/>
<path opacity="0.34" d="M173.3 88.4C173.3 104.9 159.9 118.3 143.4 118.3H142.6C140.2 118.3 137.9 117.9 135.7 117.3C134.5 117 133.3 116.6 132.2 116.1C127.6 114.2 123.5 111.2 120.4 107.4C116.1 102.2 113.5 95.6 113.5 88.4C113.5 72.7 125.6 59.8 141 58.6C141.8 58.5 142.6 58.5 143.3 58.5C147.6 58.5 151.7 59.4 155.4 61.1C156.5 61.6 157.6 62.2 158.7 62.8C160.7 64 162.6 65.4 164.2 67.1C169.8 72.5 173.3 80.1 173.3 88.4Z" fill="white"/>
<path d="M155.5 61.1L132.2 116.1C127.6 114.2 123.5 111.2 120.4 107.4L141 58.7C141.8 58.6 142.6 58.6 143.3 58.6C147.7 58.6 151.8 59.5 155.5 61.1Z" fill="url(#paint0_linear_3_106)"/>
<path d="M164.3 67.1L142.6 118.3C140.2 118.3 137.9 117.9 135.7 117.3L158.8 62.8C160.8 64 162.6 65.5 164.3 67.1Z" fill="url(#paint1_linear_3_106)"/>
<path opacity="0.34" d="M267.3 85.1C267.3 101.6 253.9 115 237.4 115C236.2 115 235 114.9 233.8 114.8C231.5 114.5 229.3 114 227.2 113.2C226 112.8 224.9 112.3 223.8 111.7C219.2 109.4 215.3 105.9 212.5 101.7C209.3 97 207.5 91.2 207.5 85.1C207.5 70.4 218 58.3 232 55.7C233.7 55.4 235.6 55.2 237.4 55.2C240.8 55.2 244 55.8 247.1 56.8C248.3 57.2 249.4 57.7 250.5 58.2C252.6 59.2 254.5 60.4 256.2 61.9C263 67.4 267.3 75.7 267.3 85.1Z" fill="white"/>
<path d="M247.1 56.8L223.9 111.7C219.3 109.4 215.4 105.9 212.6 101.7L232.1 55.7C233.8 55.4 235.7 55.2 237.5 55.2C240.8 55.2 244.1 55.8 247.1 56.8Z" fill="url(#paint2_linear_3_106)"/>
<path d="M256.3 61.9L233.9 114.8C231.6 114.5 229.4 114 227.3 113.2L250.6 58.2C252.6 59.2 254.5 60.5 256.3 61.9Z" fill="url(#paint3_linear_3_106)"/>
<path d="M143.4 118.3C159.913 118.3 173.3 104.913 173.3 88.4C173.3 71.8867 159.913 58.5 143.4 58.5C126.887 58.5 113.5 71.8867 113.5 88.4C113.5 104.913 126.887 118.3 143.4 118.3Z" stroke="#2D1F04" stroke-width="8.0658" stroke-miterlimit="10" stroke-linecap="round" stroke-linejoin="round"/>
<path d="M237.5 115C254.013 115 267.4 101.613 267.4 85.1C267.4 68.5867 254.013 55.2 237.5 55.2C220.987 55.2 207.6 68.5867 207.6 85.1C207.6 101.613 220.987 115 237.5 115Z" stroke="#2D1F04" stroke-width="8.0658" stroke-miterlimit="10" stroke-linecap="round" stroke-linejoin="round"/>
<path d="M298.7 254.6L298.6 261.6M306.8 257.1V264.1" stroke="#9D7B51" stroke-width="4.1072" stroke-miterlimit="10" stroke-linecap="round" stroke-linejoin="round"/>
<path d="M205.1 202.5C204.6 204.2 203.3 205.7 201.6 205.9C199.9 206.1 199.5 205.4 198.3 205.4C197.5 205.4 196.8 206.1 195.3 206.1C193.5 206.1 193.2 205.4 192.1 205.4C190.8 205.4 190.5 206.3 188.7 205.8C187 205.4 185.9 204.3 185.4 202.6C185.2 201.9 185.2 201.2 185.3 200.3C185.7 197.1 185.8 194.6 185.5 190.1C185.5 189.6 185.5 189 185.6 188.5C185.9 186.8 186.9 185.1 188.7 184.7C190.5 184.3 190.8 185.1 192.1 185.1C193.1 185.1 193.5 184.4 195.3 184.4C196.8 184.4 197.5 185.1 198.3 185.1C199.5 185.1 199.9 184.3 201.6 184.6C203.6 184.9 204.8 186.7 205.1 188.6C205.2 189.1 205.2 189.6 205.2 190.1C204.9 193.5 204.7 196.5 205.3 200.4C205.4 201 205.4 201.8 205.1 202.5Z" fill="#FF0F0F"/>
<path d="M243.6 224.9C228.1 223.2 212.3 216.4 205.2 202.5C205.4 201.8 205.5 201 205.4 200.3C204.8 196.5 205 193.5 205.3 190C205.3 189.5 205.3 189 205.2 188.5C213.7 183.8 225 170.7 240.6 167.3C251.6 184.4 250.1 205.4 243.6 224.9ZM185.5 202.6C178.4 216.4 162.4 223.2 147 224.9C140.5 205.4 139 184.4 150 167.3C165.5 170.7 177.2 183.8 185.7 188.5C185.6 189 185.6 189.6 185.6 190.1C185.9 194.6 185.8 197.1 185.4 200.3C185.2 201.2 185.3 201.9 185.5 202.6Z" fill="#FF0F0F"/>
<path opacity="0.23" d="M192.4 189C189.8 192 189.4 198.9 192.4 201.5C191.9 196.3 193.5 192.9 192.4 189ZM197.1 189C199.7 192 200.1 198.9 197.1 201.5C197.6 196.3 196 192.9 197.1 189Z" fill="#3F2719"/>
<path opacity="0.32" d="M185.6 195.5C185 192.7 182.1 191 177.9 188.2C173.7 185.4 166.8 178.1 159.7 174.7C152.6 171.3 147.2 173.3 145.2 176.5C146.4 173.7 148.3 170.1 149.8 167.3C156.7 169 164.1 172.7 170.2 177.4C176.3 182.1 182.9 186.8 184.6 188.1C185.5 189.5 185.7 192.1 185.6 195.5ZM205.1 193.7C205.2 192.3 211.3 189.8 214.5 187.7C217 186.1 224.6 179.6 231.6 176.5C237.8 173.7 243.6 173.8 245 176.5C244.1 173.7 242 169.2 240.4 167.3C231.3 169.6 224.2 174.1 216.9 179.8C209.5 185.5 206.2 187.8 204.4 188.4C205.2 190 204.9 192.2 205.1 193.7Z" fill="white"/>
<path opacity="0.23" d="M227.3 188.2C228 189.4 227.6 190.4 225.6 190.6C223.6 190.8 221.3 191.3 219.1 192.8C216.1 194.8 213.8 195.8 211.2 195.8C213.5 196.8 216.7 198 219.1 199.6C222 201.5 222.8 204 224.8 204.8C226.8 205.6 229 204.5 230 206.7C230.7 208.3 228 210.8 224.2 208.8C220.3 206.9 218.2 204.1 216.1 202.6C214 201.1 208.7 198.5 205.9 198C203.2 197.5 203.3 194.2 205.3 194.1C207.3 194 210.8 193.4 213.2 192.3C216 191 218 189.4 220.6 188.1C223.2 186.8 226.3 186.4 227.3 188.2ZM162 186.7C161.2 189 163.7 188.2 165.9 189C168.1 189.8 170.4 191.5 173.6 193.6C176.8 195.6 177.4 195.7 180.6 196C183.8 196.4 183.4 195.5 180.6 194.1C177.8 192.7 176.2 192.4 173.3 189.6C170.4 186.8 167.1 184.9 164.6 185.4C162.2 185.8 162 186.7 162 186.7Z" fill="#3F2719"/>
<path opacity="0.23" d="M158.7 202.2C155.8 200.4 158 196.1 161 197.2C164.1 198.3 168.1 198.3 172.1 197.6C176.1 196.9 179.6 195.6 185.6 195.8C185.5 197.2 186.2 198.2 182 198.4C177.8 198.6 171.8 202.4 168.2 202.9C164.7 203.5 161.2 203.7 158.7 202.2ZM243.5 225.2C228 223.5 212.2 216.7 205.1 202.9C205.3 202.2 205.4 201.4 205.3 200.7C205.2 200.4 205.2 200 205.2 199.7C210.7 204.5 217.2 209.1 225.3 213.1C234.6 217.7 241.4 219.3 243.8 213.1C246.2 206.9 248 202.4 248.6 193.4C249.1 203.9 247 214.8 243.5 225.2Z" fill="#3F2719"/>
<path opacity="0.23" d="M185.4 203.1C178.2 216.8 162.3 223.6 146.9 225.3C144.2 217.4 142.4 209.2 141.9 201.2C143.9 208.3 148 213.6 150.2 215.6C152.7 218 163.8 214.4 170.4 209.8C176 206 180 202.5 184 198.8C184.5 198.3 185 197.8 185.6 197.3C185.5 198.5 185.4 199.6 185.3 200.8C185.1 201.6 185.2 202.4 185.4 203.1Z" fill="#3F2719"/>
<path d="M205.1 190C204.8 193.4 204.6 196.4 205.2 200.3C205.6 202.6 204.1 205.6 201.5 205.9C199.8 206.1 199.4 205.4 198.2 205.4C197.4 205.4 196.7 206.1 195.2 206.1C193.4 206.1 193.1 205.4 192 205.4C190.7 205.4 190.4 206.3 188.6 205.8C186.2 205.3 184.9 203.2 185.2 200.4C185.6 197.2 185.7 194.7 185.4 190.2C185.2 188 186.2 185.3 188.6 184.8C190.4 184.4 190.7 185.2 192 185.2C193 185.2 193.4 184.5 195.2 184.5C196.7 184.5 197.4 185.2 198.2 185.2C199.4 185.2 199.8 184.4 201.5 184.7C204.1 184.9 205.4 187.7 205.1 190Z" stroke="#2D1F04" stroke-width="2.7806" stroke-miterlimit="10" stroke-linecap="round" stroke-linejoin="round"/>
<path d="M205.1 188.5C213.6 183.8 224.9 170.7 240.5 167.3C251.5 184.5 250 205.4 243.5 224.9C228 223.2 212.2 216.4 205.1 202.5M185.3 188.5C176.8 183.8 165.5 170.7 149.9 167.3C138.9 184.5 140.4 205.4 146.9 224.9C162.4 223.2 178.2 216.4 185.3 202.5" stroke="#2D1F04" stroke-width="2.7806" stroke-miterlimit="10" stroke-linecap="round" stroke-linejoin="round"/>
<path d="M204.9 194.2C209.4 194.4 213.9 192.6 218.7 189.2C223.4 185.8 226.9 186.7 227.5 188.6M205.1 198.1C209.8 198.4 215.3 201.4 219.1 205.3C224.6 211 229.8 209.7 229.8 207M185.2 198.4C180.7 197.9 177 199.9 169.7 202.5C164.2 204.5 158.6 203.3 158.1 201.3M185.3 194.9C180.6 194.6 176.4 193.3 172.9 189.8C167.4 184.2 162 184.5 162 187.2" stroke="#2D1F04" stroke-width="2.7806" stroke-miterlimit="10" stroke-linecap="round" stroke-linejoin="round"/>
<path d="M231 263.7C215.6 275.4 180.2 302.3 169.5 310.4C166.1 312.9 161.8 312.6 156.7 311.3H156.9C163.3 312.6 169.3 307.8 169.5 301.3V300.9L170.9 248L229.4 256.6C232.7 257.2 233.7 261.6 231 263.7Z" fill="#D2D2D2"/>
<path d="M165.8 290.4L156.9 288.8L162.7 284.3L171.6 285.9L165.8 290.4ZM164.7 272.4L174.2 274.1L169 278.1L159.5 276.3L164.7 272.4ZM166.1 291.6L174.2 293.1L161.2 303.1L153.3 301.4L166.1 291.6ZM172.9 285L164 283.4L169.3 279.3L178.2 280.9L172.9 285ZM175.5 273.2L165.9 271.5L171.4 267.3L181 269L175.5 273.2ZM173.2 286.2L181.3 287.7L175.5 292.1L167.4 290.6L173.2 286.2ZM179.5 280L170.6 278.4L175.8 274.4L184.7 276L179.5 280ZM172.7 266.3L177.4 262.7L187 264.5L182.3 268L172.7 266.3ZM161.9 264.2L166.7 260.6L176.2 262.4L171.5 266L161.9 264.2ZM179.8 281.2L187.8 282.7L182.5 286.7L174.4 285.3L179.8 281.2ZM185.9 275.1L177 273.5L182.6 269.3L191.5 270.9L185.9 275.1ZM186.2 276.3L194.2 277.8L189.1 281.7L181 280.3L186.2 276.3ZM183.8 268.3L188.5 264.7L197.4 266.4L192.7 269.9L183.8 268.3ZM193 271.1L201 272.6L195.5 276.8L187.5 275.4L193 271.1ZM206.8 268.1L202.2 271.6L194.3 270.2L198.9 266.6L206.8 268.1Z" fill="#222222"/>
<path d="M188.8 250.6L176.1 259.3L170.5 258.3L170.8 248L188.8 250.6Z" fill="#9B9B9B"/>
<path d="M17.7 175.1L163.9 193.6C168.4 194.2 172.1 198.3 172.1 202.9L169.4 301.4C169.2 308 163.1 312.8 156.7 311.4L25.3 282.6C20.8 281.6 17.4 277.8 17.1 273.2L10.1 182.4C9.79999 177.8 13.2 174.5 17.7 175.1Z" fill="#D2D2D2"/>
<path d="M170.8 248L169.4 300.9V301.2L170.8 248Z" stroke="#2D1F04" stroke-width="2.8223" stroke-miterlimit="10" stroke-linecap="round" stroke-linejoin="round"/>
<path opacity="0.23" d="M169.4 299.5C169.4 309.1 162 312.5 156.6 311.4L25.3 282.6C20.8 281.6 17.4 277.8 17.1 273.2L10.1 182.4C9.9 178.9 11.9 173.2 22.3 175.7C14.9 176.8 15.4 183.3 15.4 183.3L21.9 267.6C22.2 272.2 25.6 276.1 30.1 277L161.5 305.7C164.1 306.3 167.6 304.6 169.4 299.5Z" fill="#3F2719"/>
<path opacity="0.23" d="M231 263.5C215.6 275.2 180.2 302.1 169.5 310.2C166.1 312.7 161.8 312.4 156.7 311.1H156.9C162.3 312.2 167.4 309 169 304L226.7 260.5C227.9 259.6 228.5 256.1 226.2 255.8L229.5 256.3C232.7 257 233.7 261.4 231 263.5Z" fill="#3F2719"/>
<path opacity="0.32" d="M172 202.9L169.3 301.3C169.2 306.1 165.9 207.5 165.9 207.5C165.9 203 162.3 198.8 157.7 198.2C157.7 198.2 14 174.5 17.6 175L163.8 193.5C168.4 194.2 172 198.4 172 202.9Z" fill="white"/>
<path d="M17.7 175.1L163.9 193.6C168.4 194.2 172.1 198.3 172.1 202.9L169.5 300.9C169.3 307.7 163 312.7 156.3 311.2L25.6 282.6C20.9 281.6 17.5 277.6 17.1 272.8L10.1 182.2C9.79999 177.8 13.2 174.5 17.7 175.1Z" stroke="#2D1F04" stroke-width="2.8223" stroke-miterlimit="10" stroke-linecap="round" stroke-linejoin="round"/>
<path d="M170.4 303.1L226.5 260.8M156.7 311.3C161.8 312.5 166.1 312.9 169.5 310.4C180.2 302.3 215.7 275.4 231 263.7C233.8 261.6 232.7 257.2 229.3 256.6L170.8 248" stroke="#2D1F04" stroke-width="2.37" stroke-miterlimit="10" stroke-linecap="round" stroke-linejoin="round"/>
<path d="M188.8 250.6L176.1 259.3L170.5 258.3" stroke="#2D1F04" stroke-width="2.37" stroke-miterlimit="10" stroke-linecap="round" stroke-linejoin="round"/>
<path d="M68.2 224.1C72 224.8 75.7 225.4 79.4 226.2C82.5 226.8 83.7 229.5 84 231.9C84.4 235.2 83.3 237.3 80.8 238.1C80.7 238.1 80.5 238.2 80.3 238.2C83.5 240.7 84.1 244.9 86.1 248.6C83.9 248.3 82 248 80 247.7L76.7 240.5C76.1 239.2 75.4 238.1 73.9 238.3C74 241.1 74.2 244 74.4 246.9C72.6 246.6 70.9 246.4 69.2 246.1C68.8 238.7 68.7 231.6 68.2 224.1ZM73.8 229.5C73.9 231 73.9 232.3 74 234C75.1 234.1 76.3 234.3 77.4 234.3C78.4 234.3 78.9 233.6 78.8 232.5C78.8 231.4 78.2 230.4 77.1 230.1C76 229.7 74.9 229.7 73.8 229.5ZM100.5 235.2C98.8 235.1 97.2 235 95.6 234.9C95.3 233 94.4 231.9 92.9 231.7C92 231.5 91.2 231.8 90.9 233C91 234.1 91.6 234.5 92.3 234.8C93.6 235.4 94.8 236 96.1 236.6C96.8 236.9 97.5 237.4 98.1 237.8C102.3 240.8 102.1 246.9 99.3 249.2C98.4 249.9 97.2 250.4 96 250.4C94.1 250.5 92.1 250.1 90.2 249.2C87.6 248 85.8 245 85.6 241.5C87.2 241.6 88.8 241.8 90.5 241.9C90.6 242.3 90.7 242.8 90.8 243.1C91.5 245.3 93.3 246.5 94.9 245.9C95.6 245.7 96.1 245.1 96.1 244.1C96.1 243.2 95.6 242.4 95 242C94.4 241.6 93.8 241.3 93.2 241C92 240.3 90.7 239.8 89.5 239C87.2 237.5 85.9 235.2 86 232.8C86 230.1 87.3 228.1 89.7 227.7C91.9 227.3 94.2 227.6 96.6 228.8C98.9 230 100.1 231.9 100.5 235.2Z" fill="black"/>
<path d="M253.1 240.1C248.4 237.5 243.4 235.4 238.1 234.1C219.3 229.7 203.2 232.6 190 241.9C188.6 242.9 187.2 243.9 185.9 245C184.3 246.3 182.7 247.8 181.2 249.3C180.1 250.4 179 251.5 178 252.7C176.4 254.5 174.9 256.5 173.4 258.5C172.8 259.4 172.1 260.3 171.5 261.2C171.2 261.6 171 262 170.7 262.4L170.6 265.5V267.8L170.5 271V273.1L170.4 277V279.1L170.3 284.1V284.2C179.9 278.8 187 272.8 191.1 267.7C195.6 262 204 254.6 218.9 254.7L227.4 255.9L229.8 256.2C230 256.2 230.2 256.3 230.4 256.4C230.6 256.5 230.7 256.5 230.9 256.6C232.3 257.3 233.1 258.7 233.1 260.1C233.1 261.3 232.6 262.5 231.5 263.4C231.1 263.7 230.6 264.1 230.2 264.4C230.7 265.6 231.2 266.9 231.8 268.3C233.8 273.1 236.6 279 240 285C250.7 273.4 256 256.1 253.1 240.1Z" fill="#CAA77A"/>
<path d="M182.3 248.1C180.5 249.6 178.1 252.6 178 252.8C176.4 254.6 174.9 256.6 173.4 258.6C172.8 259.5 172.1 260.4 171.5 261.3C171.2 261.7 171 262.1 170.7 262.5L170.6 265.6V267.9L170.5 271.1V273.2L170.4 277.1V279.2L170.3 284.2V284.3C179.9 278.9 187 272.9 191.1 267.8C191.6 267.2 194.1 264 196.5 262.2C193.1 256.6 188 251.7 182.3 248.1Z" fill="#B6B1AE"/>
<path d="M182.3 248.4C186.7 250.8 193.3 256.6 196.2 262.3" stroke="#2D1F04" stroke-width="2.7806" stroke-miterlimit="10" stroke-linecap="round" stroke-linejoin="round"/>
<path d="M187.5 252.1C182.3 257.8 174 268.3 170.3 277.3M156.7 311.3C161.8 312.5 166.1 312.9 169.5 310.4C180.2 302.3 215.7 275.4 231 263.7C233.8 261.6 232.7 257.2 229.3 256.6L218.5 255" stroke="#2D1F04" stroke-width="2.7806" stroke-miterlimit="10" stroke-linecap="round" stroke-linejoin="round"/>
<path d="M169.8 284.6C179.4 279.1 186.5 273.2 190.6 268C195.1 262.3 203.8 254.9 218.7 254.9" stroke="#2D1F04" stroke-width="2.7806" stroke-miterlimit="10" stroke-linecap="round" stroke-linejoin="round"/>
<path d="M170.4 262.7C176 253.9 182.4 247.2 189.7 242.1C202.9 232.8 219.1 229.9 237.8 234.3C259.5 239.4 277.2 259 283.3 271" stroke="#2D1F04" stroke-width="2.7806" stroke-miterlimit="10" stroke-linecap="round" stroke-linejoin="round"/>
<path d="M272.8 174.2C279.1 166.1 304.4 149.3 329.1 169.5C340.9 179.1 346.5 196.8 343.8 214.7C341.1 232.6 340.1 238.8 338.6 246.6C337.8 250.9 334.4 258.7 329.4 253.9C324.4 275.6 312.1 315.6 280.4 316.6C252.6 317.5 236.1 280.2 230 264.8" stroke="#2D1F04" stroke-width="2.7806" stroke-miterlimit="10" stroke-linecap="round" stroke-linejoin="round"/>
<path d="M267.1 239.1C266.6 240.2 264.5 245.2 264.5 248.2" stroke="#2D1F04" stroke-width="2.7806" stroke-miterlimit="10" stroke-linecap="round" stroke-linejoin="round"/>
<path opacity="0.23" d="M324.7 271.2C324 284 322 297.2 316.8 312.2H296.6C311.3 304 319.7 286.6 324.7 271.2ZM231.5 268.6C234.6 285.4 236.7 293.1 241.2 301C244.3 306.5 245.5 311 239.9 312.3H263.7C252 306.1 239.6 290.4 231.5 268.6ZM251.8 206.9C250.3 220.1 245.4 231 242.1 234.4C221.9 229.6 212 220.1 204.5 207.6C200 212.1 189 211.2 185.6 207.6C184.5 211.2 179.6 218.9 171.5 224.1V217.7C177.2 214.2 182.1 209.5 185.2 203.5C185.2 203.4 185.2 203.3 185.1 203.3C185.1 203.3 185.2 203.2 185.2 203.1C185.6 204.7 186.8 205.8 188.4 206.2C188.5 206.2 188.6 206.2 188.7 206.3H189.6C190.3 206.2 190.7 205.9 191.4 205.8H192C192.5 205.9 192.9 206.1 193.4 206.3H193.5C193.6 206.3 193.7 206.3 193.8 206.4C193.9 206.4 194.1 206.4 194.2 206.5H195.2C196.2 206.4 196.9 206 197.5 205.9H198.4C198.9 206 199.3 206.2 199.8 206.4H201.1C202.8 206.2 204.1 204.7 204.6 203.1C204.6 203.1 204.6 203.2 204.7 203.2V203.4C211.8 217.2 227.6 224 243.1 225.7C243.3 225 243.6 224.3 243.8 223.6C244 223 244.2 222.4 244.3 221.8C244.6 220.8 244.9 219.7 245.2 218.7C245.4 218.1 245.5 217.5 245.7 216.9C245.8 216.3 246 215.8 246.1 215.2C246.2 214.7 246.3 214.3 246.4 213.8C246.5 213.3 246.6 212.9 246.7 212.4C246.8 211.7 247 211.1 247.1 210.4C247.2 209.7 247.3 209.1 247.4 208.5C247.5 207.8 247.6 207.2 247.7 206.5C247.8 205.8 247.9 205.2 247.9 204.5C248 203.8 248 203.2 248.1 202.6C248.1 202.1 248.2 201.6 248.2 201.1C248.2 200.8 248.2 200.4 248.3 200.1C248.3 199.6 248.3 199.2 248.4 198.7V194.9C248.4 194 248.3 193.2 248.3 192.3C248.3 191.7 248.2 191.2 248.2 190.6C248.1 190.1 248.1 189.5 248 189C248 188.6 247.9 188.3 247.8 187.9C247.7 187.4 247.6 186.9 247.6 186.4C247.5 185.9 247.4 185.5 247.3 185C248.5 184.7 249.4 184.3 250 184.1C252.1 191.7 252.7 198.3 251.8 206.9ZM310.3 160.4C302.7 159.1 295.6 160.3 289.6 162.6C289.4 135.1 286 108.7 275.3 88.8C262.3 64.8 242.2 46.6 213.8 42.3C212.4 42.1 209.2 40.8 210.1 38.4C206.6 38.4 206.2 41.5 204.6 41.4C203.5 41.4 199.1 39.2 202.4 32.6C192.7 34.9 194.6 41.4 191.4 41.6C190.1 41.7 189.5 35.6 181.9 34.8C184.5 37.4 185.2 42.1 184 42.2C182.4 42.4 180.9 38.9 176.7 39.3C178.4 41.2 175.6 43.5 173.8 43.9C155.4 48.1 143 56.7 133.8 66.9C135.1 64.2 136.7 61.5 138.5 58.8C142 53.7 145.3 48.1 150.5 44.6C147.4 44.2 144.5 44.7 141 46.3C144.2 40.7 146.7 39.5 150.7 38.5C150.8 37.9 143.3 35.2 137.2 37.5C142.7 28.6 157.6 29.8 157.6 27.7C157.6 25.2 150.9 24.4 145.6 25.3C153.6 18.7 164.9 18.8 174.1 22.6C170.3 18.6 170.4 13.2 172.9 10.3C179.1 16.4 190 20.7 203.3 20.8C200.5 19.9 199.3 17.4 200.5 15C203.5 17.7 214.6 20.9 226.5 24.9C289.3 45.9 310.5 110.5 310.5 154.1C310.3 156.5 310.3 158.3 310.3 160.4ZM263.2 190.8C264.6 197.7 263 212.6 260.9 218.6C258.8 224.7 255.7 234 248.6 237.7C250.6 238.7 259.9 244.1 264.5 248.2C264.8 245.9 266 242.2 266.8 239.7C264.7 238.2 262.7 236.6 263.2 233.6C263.7 230.7 265.7 228.9 266.2 226.8C266.7 224.7 267.6 218.5 268.1 214C268.6 209.5 267.6 198.9 263.2 190.8Z" fill="#3F2719"/>
<path opacity="0.23" d="M343.7 215.2C341 233.2 340 239.3 338.5 247.1C337.7 251.4 334.3 259.2 329.3 254.4C324.4 252.1 319.7 250.2 315.2 248.7C315.2 248.7 315.1 248.7 315.1 248.6C318 248.5 320.3 246 321.1 243.8C321.9 241.6 322.4 237 321.2 235.7C322.3 232.7 324.3 226.7 326.7 213.6C329.1 200.5 327.9 181.2 320.8 171.9C313.4 162.2 300.1 159 288.6 163C294.8 160.5 302.3 159.2 310.2 160.7C316.3 161.9 322.7 164.7 329 169.8C340.8 179.5 346.4 197.2 343.7 215.2Z" fill="#3F2719"/>
<path opacity="0.23" d="M329.3 254.4C325.4 271.5 316.9 299.5 298.2 311.2C293.1 314.4 287.2 316.4 280.4 316.6C273.6 316.8 267.4 314.7 262 311.2C245.1 300.4 234.3 276.3 229.7 264.7C230.2 264.4 230.6 264 231 263.7C231.1 263.6 231.3 263.5 231.4 263.4L231.7 263.1C232.3 262.3 232.6 261.4 232.6 260.5C232.6 259.2 232.1 258 231 257.2H230.9C230.4 256.9 229.9 256.6 229.3 256.5L226 256C226.2 256 226.4 256.1 226.6 256.2C226.7 256.2 226.8 256.3 226.9 256.4L218.4 255.2L217.9 255.1C203.5 255.3 195.3 262.6 190.9 268.1C186.8 273.3 179.8 279.2 170.1 284.6V284.5L170.2 279.5V277.4C180.6 271.4 189.5 260.4 196.6 254.9C197.1 254.5 197.6 254.2 198 253.9C205.6 248.8 221.9 240.6 233.8 248.4C240.9 253 235.5 267 248.6 286.9C260.6 305.2 278.4 309.7 288.3 303.3C298.5 296.7 311 278.3 316.4 249.3C321.1 250.7 324.2 252 329.3 254.4Z" fill="#3F2719"/>
<defs>
<linearGradient id="paint0_linear_3_106" x1="130.473" y1="82.998" x2="143.172" y2="88.355" gradientUnits="userSpaceOnUse">
<stop stop-color="white" stop-opacity="0.2"/>
<stop offset="1" stop-color="white" stop-opacity="0"/>
</linearGradient>
<linearGradient id="paint1_linear_3_106" x1="147.282" y1="90.098" x2="153.136" y2="92.578" gradientUnits="userSpaceOnUse">
<stop offset="0.006" stop-color="white" stop-opacity="0"/>
<stop offset="1" stop-color="white" stop-opacity="0.2"/>
</linearGradient>
<linearGradient id="paint2_linear_3_106" x1="222.104" y1="78.625" x2="234.803" y2="83.982" gradientUnits="userSpaceOnUse">
<stop stop-color="white" stop-opacity="0.2"/>
<stop offset="1" stop-color="white" stop-opacity="0"/>
</linearGradient>
<linearGradient id="paint3_linear_3_106" x1="238.922" y1="85.722" x2="244.756" y2="88.194" gradientUnits="userSpaceOnUse">
<stop stop-color="white" stop-opacity="0"/>
<stop offset="1" stop-color="white" stop-opacity="0.2"/>
</linearGradient>
</defs>
</svg>
