<svg width="365" height="327" fill="none" xmlns="http://www.w3.org/2000/svg">
    <path d="M343.9 214.7c-2.7 18-3.7 24.1-5.2 31.9-.4 2-1.3 4.6-2.6 6.5-1.6 2.3-3.9 3.4-6.6.8-3.9 17-12.4 45.5-31.2 57.3-5.1 3.2-11 5.2-17.8 5.4-6.8.2-13-1.9-18.4-5.4-16.9-10.8-27.7-34.9-32.3-46.5.5-.3.9-.7 1.3-1 .1-.1.3-.2.4-.3l.3-.3c.6-.8.9-1.7.9-2.6 0-1.8-1.2-3.7-3.3-4.1l-3.3-.5c.3 0 .6.2.8.3l-8.5-1.2-37.5-5.5-10.1-1.5.8-30.7c5.7-3.5 10.6-8.2 13.7-14.2 0-.1 0-.2-.1-.2 0 0 .1-.1.1-.2.4 1.6 1.6 2.7 3.2 3.1.1 0 .2 0 .3.1h.9c.7-.1 1.1-.4 1.8-.5h.6c.1 0 .2 0 .3.1.3.1.5.2.9.3.1 0 .2.1.3.1.1 0 .2 0 .3.1h.2c.1 0 .3 0 .4.1h1c1-.1 1.7-.5 2.3-.6h.9c.1 0 .2 0 .2.1.1 0 .2.1.2.1.2.1.4.2.7.2.1 0 .2 0 .3.1h1.3c1.7-.2 3-1.7 3.5-3.3 0 0 0 .1.1.1v.2c7.1 13.8 22.9 20.6 38.4 22.3.2-.7.5-1.4.7-2.1.2-.6.4-1.2.5-1.8.3-1 .6-2.1.9-3.1.2-.6.3-1.2.5-1.8.1-.6.3-1.1.4-1.7v-.1c.1-.4.2-.9.3-1.3v-.5c0-.1.1-.3.1-.4.1-.4.2-.8.2-1.2.3-1.7.6-3.5.9-5.2.1-.4.1-.8.1-1.2.1-.8.2-1.5.2-2.3 0-.5.1-1 .1-1.5 0-.7.1-1.5.1-2.2v-2.4c0-4-.4-8-1.1-11.9-.6-3.2-1.5-6.3-2.8-9.3l-.1-.2c-.9-2.6-2.5-5.7-3.8-7.5-.1-.1-.1-.2-.2-.3h-.1c-8 1.7-14.8 6-20.8 10.4-.5.3-.9.7-1.4 1-.5.3-.9.7-1.4 1.1-.4.3-.7.6-1.1.8-.3.2-.6.5-.9.7l-.1.1c-5.3 4.1-8.1 6-9.8 6.8-.4-1.8-1.6-3.4-3.5-3.6h-1.2c-.1 0-.2 0-.3.1-.2.1-.5.2-.7.2-.1 0-.2.1-.2.1-.1 0-.1 0-.2.1h-.9c-.6-.1-1.2-.5-2.3-.6h-1c-.2 0-.3 0-.4.1h-.3c-.1 0-.2.1-.3.1-.4.1-.6.3-.9.4-.1 0-.2 0-.3.1h-.6c-.7-.1-1.1-.4-1.8-.5h-.7c-.2 0-.3 0-.5.1-1.8.4-2.8 2.1-3.1 3.8-1-.5-2-1.2-3-1.9-.3-.2-.7-.5-1.1-.8 0 0-.1 0-.1-.1-.4-.3-.8-.6-1.3-.9-.3-.3-.7-.5-1-.8l-1.2-.9c-2.1-1.6-4.3-3.4-6.7-5.1-.6-.4-1.1-.8-1.7-1.2-.5-.4-1.1-.8-1.6-1.1-.6-.4-1.3-.9-2-1.3-2.2-1.4-4.5-2.7-6.9-3.8-2.9-1.4-5.9-2.5-9.1-3.2h-.1c-.6 1-1.2 1.9-1.7 2.9.1-1.6.3-3.6-.3-4.1 0-.2-.1-.2-.1-.2-.9-.3-1.5 1.7-1.7 2-.7.6.4-1.8.5-2.7.1-.6.1-1.3.2-1.9 0-.2 0-.4.1-.6.1-1.7.2-3.4 0-5-.1-.5-1.2 1.2-1.5.7-.6-1.1.2-3.4 0-4.7-.4-2.6-2-5.3-3.2-7.6-4.8-9.5-9.1-19.9-11.8-30.6-5.3-21-3.3-39.5 8.1-56.3 3.5-5.1 6.8-10.7 12-14.2-3.1-.4-6 .1-9.5 1.7 3.2-5.6 5.7-6.8 9.7-7.8.1-.6-7.4-3.3-13.5-1 5.5-8.9 20.4-7.7 20.4-9.8 0-2.5-6.7-3.3-12-2.4 8-6.6 19.3-6.5 28.5-2.7-3.8-4-3.7-9.4-1.2-12.3 6.2 6.1 17.1 10.4 30.4 10.5-2.8-.9-4-3.4-2.8-5.8 3 2.7 14.1 5.9 26 9.9 62.8 21 84 85.6 84 129.2 0 2.6-.1 4.5 0 7.1 6.4.7 12.8 3.1 18.8 8 11.7 9.2 17.4 26.9 14.7 44.9Z" fill="#CAA77A"/>
    <path d="M263.6 312.3c-19.4-.3-81.7 0-98.5-.1 1.6-.2 3-.8 4.3-1.7 10.4-7.9 44.2-33.5 60.2-45.6 4.7 11.4 15.3 36.6 34 47.4Zm61.1-41.1c-.7 12.8-2.7 26-7.9 41h-20.2c14.7-8.2 23.1-25.6 28.1-41Zm19-56c-2.7 18-3.7 24.1-5.2 31.9-.8 4.3-4.2 12.1-9.2 7.3-27.4-12.8-49.8-13.2-60.6-14.1-.7-.1-1.3-.2-1.9-.3-.6 1.5-2.2 6-2.4 8.8-7.6-6.4-16.7-11.8-26.7-14.1-18.8-4.4-34.9-1.5-48.1 7.8-1.4 1-2.8 2-4.1 3.1-5-.2-9.9-.5-14.7-1l.7-26.9c5.7-3.5 10.6-8.2 13.7-14.2 0-.1 0-.2-.1-.2 0 0 .1-.1.1-.2.4 1.6 1.6 2.7 3.2 3.1.1 0 .2 0 .3.1h.9c.7-.1 1.1-.4 1.8-.5h.6c.5.1.9.3 1.4.5h.1c.1 0 .2 0 .3.1.1 0 .3 0 .4.1h1c1-.1 1.7-.5 2.3-.6h.9c.5.1.9.3 1.4.5h1.3c1.7-.2 3-1.7 3.5-3.3 0 0 0 .1.1.1v.2c7.1 13.8 22.9 20.6 38.4 22.3.2-.7.5-1.4.7-2.1.2-.6.4-1.2.5-1.8.3-1 .6-2.1.9-3.1.2-.6.3-1.2.5-1.8.1-.6.3-1.1.4-1.7.1-.5.2-.9.3-1.4.1-.5.2-.9.3-1.4.1-.7.3-1.3.4-2 .1-.7.2-1.3.3-1.9.1-.7.2-1.3.3-2 .1-.7.2-1.3.2-2 .1-.7.1-1.3.2-1.9 0-.5.1-1 .1-1.5 0-.3 0-.7.1-1 0-.5 0-.9.1-1.4v-3.8c0-.9-.1-1.7-.1-2.6 0-.6-.1-1.1-.1-1.7-.1-.5-.1-1.1-.2-1.6 0-.4-.1-.7-.2-1.1-.1-.5-.2-1-.2-1.5-.1-.5-.2-.9-.3-1.4 1.3-.4 2.2-.7 2.8-1 6.7-2.3 15.4-5.4 22.5-9.4 4.6-6.8 19.8-17.2 37.4-13.9 6.1 1.2 12.5 4 18.8 9.1 12 9.7 17.6 27.4 14.9 45.4Zm-195.6-44.7c-3.7 6-5.5 15.8-6 20.1-5.6-.9-18.9-2.2-24.7-2.9 7.4-14.9 15.8-21 29.3-25.3-.1 1.7-1.2 5.1-1 5.5.2.3 1.8-2.2 2-1.9.8.6.4 2.8.4 4.5Z" fill="#FFDB1F"/>
    <path d="M117.4 187.8c7.4-14.9 15.8-21 29.3-25.3" stroke="#2D1F04" stroke-width="2.781" stroke-miterlimit="10" stroke-linecap="round" stroke-linejoin="round"/>
    <path d="M216.5 271.3c-.2-.3-.3-.5-.5-.8l.5.8Z" fill="#B6B1AE"/>
    <path d="M134.5 92.2c2.5-10.1 8.7-21.4 17.7-23.1 10.6-2 19.4 6.6 29.6 6.1 1.9-.1 5.6-1.2 6.7-2.9 1.1-1.6 0-3.8 0-3.8 1.6.5 3.2 2.8 5.2 3.4 7.7 2.2 15.6-4.5 22.6-6.6 23.2-7 41.3-4.5 53.6 17.9 2.8 5 7 16.5 4.1 29.4-4.2 18.7-6.4 26.6-26.8 40.6-24.1 16.7-74.1 24.9-99-6.6-11.5-14.7-18.3-35.6-13.7-54.4Z" fill="#FFDBAF"/>
    <path d="M181.2 100.7c-8.4-4.2-15.2 17.1-14.6 23.2 2.3 20.9 32.9 19.8 47.1 12.8 20.5-10.2-4.6-43.2-19.2-37.4m-60.6-7.5c-3.4 13.4 1.3 33.7 4.8 36.3 2.7 2 17.6-3.5 28-19.3 7-10.5 9.3-25.9 6.8-28.6-9.6-10.3-23.1-10.6-26.1-10-4.3.7-10.4 9.3-13.5 21.6Z" fill="#9D7B51"/>
    <path d="M207.6 75c3.8 49.3 55 65.7 60.9 57.2 3.8-5.5 11.8-30.8 2-48.1-1-1.7-5.3-12.5-26.6-18.8-14.2-4.2-27.4.7-36.3 9.7Z" fill="#9D7B51"/>
    <path d="m159.1 167.2-.1 6.9m6.9-3.4v7" stroke="#9D7B51" stroke-width="4.107" stroke-miterlimit="10" stroke-linecap="round" stroke-linejoin="round"/>
    <path opacity=".23" d="M126.2 256.7c-1.6 3.5 5.3-8.2 7.7-9.7 5-3.2 12.6-3.3 18.2-3.3 14.5 0 26.3 13.7 41.9 13.7 4 0 15.5-2.2 12-9.1-1.9-3.8-11-2.9-14.5-2.9-14.9 0-28.3-1.7-42.7-4.1-3.5-.6-11.8-.6-14.7-5.9-.8-1.4-3.3 9.8-3.9 10.7-3.4 4.9-1.2 4.4-4 10.6Z" fill="#3F2719"/>
    <path d="M266.2 227.6c14.8-4.8 37.5-3.4 53.3 7.5" stroke="#2D1F04" stroke-width="2.781" stroke-miterlimit="10" stroke-linecap="round" stroke-linejoin="round"/>
    <path d="M277.7 226.9c-.2 2-.1 3.5.1 5.5m11.4-5.5-.1 4.7m8.1-3.7-1.2 4.6m-28.2-27.1c1.3-4.2 3-9.2 2.9-13.6" stroke="#2D1F04" stroke-width="2.781" stroke-miterlimit="10" stroke-linecap="round" stroke-linejoin="round"/>
    <path d="M263.2 190.2c2.9 7.1 5.7 16.7 4.7 24.6-.5 4.1-1.8 8.7-1.8 12.7m.1.1c-3.3 6-5.5 9.7 2.6 12.2m48 72.3c5.3-15 7.3-28.2 8-41m-176.7-88.7c48 13.8 96.8 4 102.2 1.2m60-22.1c-.1-2.6 0-4.6 0-7.1 0-43.6-21.2-108.2-84-129.2-11.9-4-22.9-7.1-26-9.9-1.1 2.4 0 4.9 2.9 5.8-13.4-.2-24.2-4.4-30.4-10.6-2.5 2.9-2.6 8.2 1.2 12.3-9.1-3.8-20.4-3.9-28.5 2.7 5.3-.8 12 0 12 2.5 0 2.1-14.9.9-20.4 9.8 6.1-2.3 13.6.4 13.5 1-4 1-6.5 2.2-9.7 7.8 3.5-1.6 6.4-2.1 9.5-1.7-5.6 3.8-9 9.9-12.8 15.2-18.5 26.3-8.8 59.5 4.4 85.9 1.2 2.3 2.8 5 3.2 7.6.2 1.3-.6 3.5 0 4.7.2.5 1.4-1.3 1.5-.7.3 2.4 0 5.2-.2 7.6-.1.9-1.1 3.3-.5 2.7.2-.2.8-2.3 1.7-2 .5.2 0 13.2-.2 14.5" stroke="#2D1F04" stroke-width="2.781" stroke-miterlimit="10" stroke-linecap="round" stroke-linejoin="round"/>
    <path d="M162.8 90.6c0 13.2-25.5 13.7-26.8 1.9-.6-5.7 1.7-8.5 5.7-8.5 7 0 21.5-2.9 21.1 6.6Z" fill="#fff"/>
    <path d="M162.8 90.6c0 13.2-25.5 13.7-26.8 1.9-.6-5.7 1.7-8.3 5.7-8.5 7-.3 21.5-2.9 21.1 6.6Z" stroke="#2D1F04" stroke-width="3.237" stroke-miterlimit="10" stroke-linecap="round" stroke-linejoin="round"/>
    <path d="M144.7 91.1c0-2.6 2.1-4.7 4.7-4.7s4.7 2.1 4.7 4.7-2.1 4.7-4.7 4.7-4.7-2.1-4.7-4.7Z" fill="#2D1F04"/>
    <path d="M255.6 89.1c-1.4 11.8-30.7 14.3-31-1.2-.1-6.2 9.5-6.9 20.1-8 10.4-1 11.8 1.2 10.9 9.2Z" fill="#fff"/>
    <path d="M255.6 89.1c-.9 11.8-30.7 14.3-31-1.2-.1-6.2 9.2-6.8 20.1-8 8.9-.9 11.5 1.3 10.9 9.2Z" stroke="#2D1F04" stroke-width="3.237" stroke-miterlimit="10" stroke-linecap="round" stroke-linejoin="round"/>
    <path d="M235.4 88c.3-2.6 2.5-4.5 5.1-4.2 2.6.3 4.5 2.5 4.2 5.1-.3 2.6-2.5 4.5-5.1 4.2-2.6-.2-4.4-2.5-4.2-5.1Z" fill="#2D1F04"/>
    <path d="M190.4 106.8v9.4c0 4.5 6.9 12.4 17.2 5.3m-20.5.9c-2.7 2.4-7 3.4-12.1-1.7" stroke="#2D1F04" stroke-width="3.237" stroke-miterlimit="10" stroke-linecap="round" stroke-linejoin="round"/>
    <path d="M176.2 100.8c-.2-3.2 6.1-6 13.9-6.4 7.8-.4 14.3 1.9 14.4 5 .2 3.2-6.1 6-13.9 6.4-7.8.4-14.3-1.9-14.4-5Z" fill="#251707"/>
    <path d="M209 78.7c18.4-18.5 42.1-16.7 66.1 2.7m-103.1-1c-18.1-16.1-34.1-14-50.7 9.7m52-1.7c7.8-7.1 24.6-8.7 34.3-3.3" stroke="#2D1F04" stroke-width="8.066" stroke-miterlimit="10" stroke-linecap="round" stroke-linejoin="round"/>
    <path opacity=".34" d="M173.3 88.4c0 16.5-13.4 29.9-29.9 29.9h-.8c-2.4 0-4.7-.4-6.9-1-1.2-.3-2.4-.7-3.5-1.2-4.6-1.9-8.7-4.9-11.8-8.7-4.3-5.2-6.9-11.8-6.9-19 0-15.7 12.1-28.6 27.5-29.8.8-.1 1.6-.1 2.3-.1 4.3 0 8.4.9 12.1 2.6 1.1.5 2.2 1.1 3.3 1.7 2 1.2 3.9 2.6 5.5 4.3 5.6 5.4 9.1 13 9.1 21.3Z" fill="#fff"/>
    <path d="m155.5 61.1-23.3 55c-4.6-1.9-8.7-4.9-11.8-8.7L141 58.7c.8-.1 1.6-.1 2.3-.1 4.4 0 8.5.9 12.2 2.5Z" fill="url(#a)"/>
    <path d="m164.3 67.1-21.7 51.2c-2.4 0-4.7-.4-6.9-1l23.1-54.5c2 1.2 3.8 2.7 5.5 4.3Z" fill="url(#b)"/>
    <path opacity=".34" d="M267.3 85.1c0 16.5-13.4 29.9-29.9 29.9-1.2 0-2.4-.1-3.6-.2-2.3-.3-4.5-.8-6.6-1.6-1.2-.4-2.3-.9-3.4-1.5-4.6-2.3-8.5-5.8-11.3-10-3.2-4.7-5-10.5-5-16.6 0-14.7 10.5-26.8 24.5-29.4 1.7-.3 3.6-.5 5.4-.5 3.4 0 6.6.6 9.7 1.6 1.2.4 2.3.9 3.4 1.4 2.1 1 4 2.2 5.7 3.7 6.8 5.5 11.1 13.8 11.1 23.2Z" fill="#fff"/>
    <path d="m247.1 56.8-23.2 54.9c-4.6-2.3-8.5-5.8-11.3-10l19.5-46c1.7-.3 3.6-.5 5.4-.5 3.3 0 6.6.6 9.6 1.6Z" fill="url(#c)"/>
    <path d="m256.3 61.9-22.4 52.9c-2.3-.3-4.5-.8-6.6-1.6l23.3-55c2 1 3.9 2.3 5.7 3.7Z" fill="url(#d)"/>
    <path d="M143.4 118.3c16.513 0 29.9-13.387 29.9-29.9 0-16.513-13.387-29.9-29.9-29.9-16.513 0-29.9 13.387-29.9 29.9 0 16.513 13.387 29.9 29.9 29.9ZM237.5 115c16.513 0 29.9-13.387 29.9-29.9 0-16.513-13.387-29.9-29.9-29.9-16.513 0-29.9 13.387-29.9 29.9 0 16.513 13.387 29.9 29.9 29.9Z" stroke="#2D1F04" stroke-width="8.066" stroke-miterlimit="10" stroke-linecap="round" stroke-linejoin="round"/>
    <path d="m298.7 254.6-.1 7m8.2-4.5v7" stroke="#9D7B51" stroke-width="4.107" stroke-miterlimit="10" stroke-linecap="round" stroke-linejoin="round"/>
    <path d="M205.1 202.5c-.5 1.7-1.8 3.2-3.5 3.4-1.7.2-2.1-.5-3.3-.5-.8 0-1.5.7-3 .7-1.8 0-2.1-.7-3.2-.7-1.3 0-1.6.9-3.4.4-1.7-.4-2.8-1.5-3.3-3.2-.2-.7-.2-1.4-.1-2.3.4-3.2.5-5.7.2-10.2 0-.5 0-1.1.1-1.6.3-1.7 1.3-3.4 3.1-3.8 1.8-.4 2.1.4 3.4.4 1 0 1.4-.7 3.2-.7 1.5 0 2.2.7 3 .7 1.2 0 1.6-.8 3.3-.5 2 .3 3.2 2.1 3.5 4 .1.5.1 1 .1 1.5-.3 3.4-.5 6.4.1 10.3.1.6.1 1.4-.2 2.1Z" fill="#FF0F0F"/>
    <path d="M243.6 224.9c-15.5-1.7-31.3-8.5-38.4-22.4.2-.7.3-1.5.2-2.2-.6-3.8-.4-6.8-.1-10.3 0-.5 0-1-.1-1.5 8.5-4.7 19.8-17.8 35.4-21.2 11 17.1 9.5 38.1 3 57.6Zm-58.1-22.3c-7.1 13.8-23.1 20.6-38.5 22.3-6.5-19.5-8-40.5 3-57.6 15.5 3.4 27.2 16.5 35.7 21.2-.1.5-.1 1.1-.1 1.6.3 4.5.2 7-.2 10.2-.2.9-.1 1.6.1 2.3Z" fill="#FF0F0F"/>
    <path opacity=".23" d="M192.4 189c-2.6 3-3 9.9 0 12.5-.5-5.2 1.1-8.6 0-12.5Zm4.7 0c2.6 3 3 9.9 0 12.5.5-5.2-1.1-8.6 0-12.5Z" fill="#3F2719"/>
    <path opacity=".32" d="M185.6 195.5c-.6-2.8-3.5-4.5-7.7-7.3s-11.1-10.1-18.2-13.5c-7.1-3.4-12.5-1.4-14.5 1.8 1.2-2.8 3.1-6.4 4.6-9.2 6.9 1.7 14.3 5.4 20.4 10.1 6.1 4.7 12.7 9.4 14.4 10.7.9 1.4 1.1 4 1 7.4Zm19.5-1.8c.1-1.4 6.2-3.9 9.4-6 2.5-1.6 10.1-8.1 17.1-11.2 6.2-2.8 12-2.7 13.4 0-.9-2.8-3-7.3-4.6-9.2-9.1 2.3-16.2 6.8-23.5 12.5-7.4 5.7-10.7 8-12.5 8.6.8 1.6.5 3.8.7 5.3Z" fill="#fff"/>
    <path opacity=".23" d="M227.3 188.2c.7 1.2.3 2.2-1.7 2.4-2 .2-4.3.7-6.5 2.2-3 2-5.3 3-7.9 3 2.3 1 5.5 2.2 7.9 3.8 2.9 1.9 3.7 4.4 5.7 5.2 2 .8 4.2-.3 5.2 1.9.7 1.6-2 4.1-5.8 2.1-3.9-1.9-6-4.7-8.1-6.2-2.1-1.5-7.4-4.1-10.2-4.6-2.7-.5-2.6-3.8-.6-3.9 2-.1 5.5-.7 7.9-1.8 2.8-1.3 4.8-2.9 7.4-4.2 2.6-1.3 5.7-1.7 6.7.1Zm-65.3-1.5c-.8 2.3 1.7 1.5 3.9 2.3 2.2.8 4.5 2.5 7.7 4.6 3.2 2 3.8 2.1 7 2.4 3.2.4 2.8-.5 0-1.9s-4.4-1.7-7.3-4.5c-2.9-2.8-6.2-4.7-8.7-4.2-2.4.4-2.6 1.3-2.6 1.3Z" fill="#3F2719"/>
    <path opacity=".23" d="M158.7 202.2c-2.9-1.8-.7-6.1 2.3-5 3.1 1.1 7.1 1.1 11.1.4 4-.7 7.5-2 13.5-1.8-.1 1.4.6 2.4-3.6 2.6-4.2.2-10.2 4-13.8 4.5-3.5.6-7 .8-9.5-.7Zm84.8 23c-15.5-1.7-31.3-8.5-38.4-22.3.2-.7.3-1.5.2-2.2-.1-.3-.1-.7-.1-1 5.5 4.8 12 9.4 20.1 13.4 9.3 4.6 16.1 6.2 18.5 0 2.4-6.2 4.2-10.7 4.8-19.7.5 10.5-1.6 21.4-5.1 31.8Z" fill="#3F2719"/>
    <path opacity=".23" d="M185.4 203.1c-7.2 13.7-23.1 20.5-38.5 22.2-2.7-7.9-4.5-16.1-5-24.1 2 7.1 6.1 12.4 8.3 14.4 2.5 2.4 13.6-1.2 20.2-5.8 5.6-3.8 9.6-7.3 13.6-11 .5-.5 1-1 1.6-1.5-.1 1.2-.2 2.3-.3 3.5-.2.8-.1 1.6.1 2.3Z" fill="#3F2719"/>
    <path d="M205.1 190c-.3 3.4-.5 6.4.1 10.3.4 2.3-1.1 5.3-3.7 5.6-1.7.2-2.1-.5-3.3-.5-.8 0-1.5.7-3 .7-1.8 0-2.1-.7-3.2-.7-1.3 0-1.6.9-3.4.4-2.4-.5-3.7-2.6-3.4-5.4.4-3.2.5-5.7.2-10.2-.2-2.2.8-4.9 3.2-5.4 1.8-.4 2.1.4 3.4.4 1 0 1.4-.7 3.2-.7 1.5 0 2.2.7 3 .7 1.2 0 1.6-.8 3.3-.5 2.6.2 3.9 3 3.6 5.3Z" stroke="#2D1F04" stroke-width="2.781" stroke-miterlimit="10" stroke-linecap="round" stroke-linejoin="round"/>
    <path d="M205.1 188.5c8.5-4.7 19.8-17.8 35.4-21.2 11 17.2 9.5 38.1 3 57.6-15.5-1.7-31.3-8.5-38.4-22.4m-19.8-14c-8.5-4.7-19.8-17.8-35.4-21.2-11 17.2-9.5 38.1-3 57.6 15.5-1.7 31.3-8.5 38.4-22.4" stroke="#2D1F04" stroke-width="2.781" stroke-miterlimit="10" stroke-linecap="round" stroke-linejoin="round"/>
    <path d="M204.9 194.2c4.5.2 9-1.6 13.8-5 4.7-3.4 8.2-2.5 8.8-.6m-22.4 9.5c4.7.3 10.2 3.3 14 7.2 5.5 5.7 10.7 4.4 10.7 1.7m-44.6-8.6c-4.5-.5-8.2 1.5-15.5 4.1-5.5 2-11.1.8-11.6-1.2m27.2-6.4c-4.7-.3-8.9-1.6-12.4-5.1-5.5-5.6-10.9-5.3-10.9-2.6" stroke="#2D1F04" stroke-width="2.781" stroke-miterlimit="10" stroke-linecap="round" stroke-linejoin="round"/>
    <path d="M231 263.7c-15.4 11.7-50.8 38.6-61.5 46.7-3.4 2.5-7.7 2.2-12.8.9h.2c6.4 1.3 12.4-3.5 12.6-10v-.4l1.4-52.9 58.5 8.6c3.3.6 4.3 5 1.6 7.1Z" fill="#D2D2D2"/>
    <path d="m165.8 290.4-8.9-1.6 5.8-4.5 8.9 1.6-5.8 4.5Zm-1.1-18 9.5 1.7-5.2 4-9.5-1.8 5.2-3.9Zm1.4 19.2 8.1 1.5-13 10-7.9-1.7 12.8-9.8Zm6.8-6.6-8.9-1.6 5.3-4.1 8.9 1.6-5.3 4.1Zm2.6-11.8-9.6-1.7 5.5-4.2 9.6 1.7-5.5 4.2Zm-2.3 13 8.1 1.5-5.8 4.4-8.1-1.5 5.8-4.4Zm6.3-6.2-8.9-1.6 5.2-4 8.9 1.6-5.2 4Zm-6.8-13.7 4.7-3.6 9.6 1.8-4.7 3.5-9.6-1.7Zm-10.8-2.1 4.8-3.6 9.5 1.8-4.7 3.6-9.6-1.8Zm17.9 17 8 1.5-5.3 4-8.1-1.4 5.4-4.1Zm6.1-6.1-8.9-1.6 5.6-4.2 8.9 1.6-5.6 4.2Zm.3 1.2 8 1.5-5.1 3.9-8.1-1.4 5.2-4Zm-2.4-8 4.7-3.6 8.9 1.7-4.7 3.5-8.9-1.6Zm9.2 2.8 8 1.5-5.5 4.2-8-1.4 5.5-4.3Zm13.8-3-4.6 3.5-7.9-1.4 4.6-3.6 7.9 1.5Z" fill="#222"/>
    <path d="m188.8 250.6-12.7 8.7-5.6-1 .3-10.3 18 2.6Z" fill="#9B9B9B"/>
    <path d="m17.7 175.1 146.2 18.5c4.5.6 8.2 4.7 8.2 9.3l-2.7 98.5c-.2 6.6-6.3 11.4-12.7 10L25.3 282.6c-4.5-1-7.9-4.8-8.2-9.4l-7-90.8c-.3-4.6 3.1-7.9 7.6-7.3Z" fill="#D2D2D2"/>
    <path d="m170.8 248-1.4 52.9v.3l1.4-53.2Z" stroke="#2D1F04" stroke-width="2.822" stroke-miterlimit="10" stroke-linecap="round" stroke-linejoin="round"/>
    <path opacity=".23" d="M169.4 299.5c0 9.6-7.4 13-12.8 11.9L25.3 282.6c-4.5-1-7.9-4.8-8.2-9.4l-7-90.8c-.2-3.5 1.8-9.2 12.2-6.7-7.4 1.1-6.9 7.6-6.9 7.6l6.5 84.3c.3 4.6 3.7 8.5 8.2 9.4l131.4 28.7c2.6.6 6.1-1.1 7.9-6.2Z" fill="#3F2719"/>
    <path opacity=".23" d="M231 263.5c-15.4 11.7-50.8 38.6-61.5 46.7-3.4 2.5-7.7 2.2-12.8.9h.2c5.4 1.1 10.5-2.1 12.1-7.1l57.7-43.5c1.2-.9 1.8-4.4-.5-4.7l3.3.5c3.2.7 4.2 5.1 1.5 7.2Z" fill="#3F2719"/>
    <path opacity=".32" d="m172 202.9-2.7 98.4c-.1 4.8-3.4-93.8-3.4-93.8 0-4.5-3.6-8.7-8.2-9.3 0 0-143.7-23.7-140.1-23.2l146.2 18.5c4.6.7 8.2 4.9 8.2 9.4Z" fill="#fff"/>
    <path d="m17.7 175.1 146.2 18.5c4.5.6 8.2 4.7 8.2 9.3l-2.6 98c-.2 6.8-6.5 11.8-13.2 10.3L25.6 282.6c-4.7-1-8.1-5-8.5-9.8l-7-90.6c-.3-4.4 3.1-7.7 7.6-7.1Z" stroke="#2D1F04" stroke-width="2.822" stroke-miterlimit="10" stroke-linecap="round" stroke-linejoin="round"/>
    <path d="m170.4 303.1 56.1-42.3m-69.8 50.5c5.1 1.2 9.4 1.6 12.8-.9 10.7-8.1 46.2-35 61.5-46.7 2.8-2.1 1.7-6.5-1.7-7.1l-58.5-8.6" stroke="#2D1F04" stroke-width="2.37" stroke-miterlimit="10" stroke-linecap="round" stroke-linejoin="round"/>
    <path d="m188.8 250.6-12.7 8.7-5.6-1" stroke="#2D1F04" stroke-width="2.37" stroke-miterlimit="10" stroke-linecap="round" stroke-linejoin="round"/>
    <path d="M68.2 224.1c3.8.7 7.5 1.3 11.2 2.1 3.1.6 4.3 3.3 4.6 5.7.4 3.3-.7 5.4-3.2 6.2-.1 0-.3.1-.5.1 3.2 2.5 3.8 6.7 5.8 10.4-2.2-.3-4.1-.6-6.1-.9l-3.3-7.2c-.6-1.3-1.3-2.4-2.8-2.2.1 2.8.3 5.7.5 8.6-1.8-.3-3.5-.5-5.2-.8-.4-7.4-.5-14.5-1-22Zm5.6 5.4c.1 1.5.1 2.8.2 4.5 1.1.1 2.3.3 3.4.3 1 0 1.5-.7 1.4-1.8 0-1.1-.6-2.1-1.7-2.4-1.1-.4-2.2-.4-3.3-.6Zm26.7 5.7c-1.7-.1-3.3-.2-4.9-.3-.3-1.9-1.2-3-2.7-3.2-.9-.2-1.7.1-2 1.3.1 1.1.7 1.5 1.4 1.8 1.3.6 2.5 1.2 3.8 1.8.7.3 1.4.8 2 1.2 4.2 3 4 9.1 1.2 11.4-.9.7-2.1 1.2-3.3 1.2-1.9.1-3.9-.3-5.8-1.2-2.6-1.2-4.4-4.2-4.6-7.7 1.6.1 3.2.3 4.9.4.1.4.2.9.3 1.2.7 2.2 2.5 3.4 4.1 2.8.7-.2 1.2-.8 1.2-1.8 0-.9-.5-1.7-1.1-2.1-.6-.4-1.2-.7-1.8-1-1.2-.7-2.5-1.2-3.7-2-2.3-1.5-3.6-3.8-3.5-6.2 0-2.7 1.3-4.7 3.7-5.1 2.2-.4 4.5-.1 6.9 1.1 2.3 1.2 3.5 3.1 3.9 6.4Z" fill="#000"/>
    <path d="M253.1 240.1c-4.7-2.6-9.7-4.7-15-6-18.8-4.4-34.9-1.5-48.1 7.8-1.4 1-2.8 2-4.1 3.1-1.6 1.3-3.2 2.8-4.7 4.3-1.1 1.1-2.2 2.2-3.2 3.4-1.6 1.8-3.1 3.8-4.6 5.8-.6.9-1.3 1.8-1.9 2.7-.3.4-.5.8-.8 1.2l-.1 3.1v2.3l-.1 3.2v2.1l-.1 3.9v2.1l-.1 5v.1c9.6-5.4 16.7-11.4 20.8-16.5 4.5-5.7 12.9-13.1 27.8-13l8.5 1.2 2.4.3c.2 0 .4.1.6.2.2.1.3.1.5.2 1.4.7 2.2 2.1 2.2 3.5 0 1.2-.5 2.4-1.6 3.3-.4.3-.9.7-1.3 1 .5 1.2 1 2.5 1.6 3.9 2 4.8 4.8 10.7 8.2 16.7 10.7-11.6 16-28.9 13.1-44.9Z" fill="#CAA77A"/>
    <path d="M182.3 248.1c-1.8 1.5-4.2 4.5-4.3 4.7-1.6 1.8-3.1 3.8-4.6 5.8-.6.9-1.3 1.8-1.9 2.7-.3.4-.5.8-.8 1.2l-.1 3.1v2.3l-.1 3.2v2.1l-.1 3.9v2.1l-.1 5v.1c9.6-5.4 16.7-11.4 20.8-16.5.5-.6 3-3.8 5.4-5.6-3.4-5.6-8.5-10.5-14.2-14.1Z" fill="#B6B1AE"/>
    <path d="M182.3 248.4c4.4 2.4 11 8.2 13.9 13.9" stroke="#2D1F04" stroke-width="2.781" stroke-miterlimit="10" stroke-linecap="round" stroke-linejoin="round"/>
    <path d="M187.5 252.1c-5.2 5.7-13.5 16.2-17.2 25.2m-13.6 34c5.1 1.2 9.4 1.6 12.8-.9 10.7-8.1 46.2-35 61.5-46.7 2.8-2.1 1.7-6.5-1.7-7.1l-10.8-1.6" stroke="#2D1F04" stroke-width="2.781" stroke-miterlimit="10" stroke-linecap="round" stroke-linejoin="round"/>
    <path d="M169.8 284.6c9.6-5.5 16.7-11.4 20.8-16.6 4.5-5.7 13.2-13.1 28.1-13.1" stroke="#2D1F04" stroke-width="2.781" stroke-miterlimit="10" stroke-linecap="round" stroke-linejoin="round"/>
    <path d="M170.4 262.7c5.6-8.8 12-15.5 19.3-20.6 13.2-9.3 29.4-12.2 48.1-7.8 21.7 5.1 39.4 24.7 45.5 36.7" stroke="#2D1F04" stroke-width="2.781" stroke-miterlimit="10" stroke-linecap="round" stroke-linejoin="round"/>
    <path d="M272.8 174.2c6.3-8.1 31.6-24.9 56.3-4.7 11.8 9.6 17.4 27.3 14.7 45.2-2.7 17.9-3.7 24.1-5.2 31.9-.8 4.3-4.2 12.1-9.2 7.3-5 21.7-17.3 61.7-49 62.7-27.8.9-44.3-36.4-50.4-51.8" stroke="#2D1F04" stroke-width="2.781" stroke-miterlimit="10" stroke-linecap="round" stroke-linejoin="round"/>
    <path d="M267.1 239.1c-.5 1.1-2.6 6.1-2.6 9.1" stroke="#2D1F04" stroke-width="2.781" stroke-miterlimit="10" stroke-linecap="round" stroke-linejoin="round"/>
    <path opacity=".23" d="M324.7 271.2c-.7 12.8-2.7 26-7.9 41h-20.2c14.7-8.2 23.1-25.6 28.1-41Zm-93.2-2.6c3.1 16.8 5.2 24.5 9.7 32.4 3.1 5.5 4.3 10-1.3 11.3h23.8c-11.7-6.2-24.1-21.9-32.2-43.7Zm20.3-61.7c-1.5 13.2-6.4 24.1-9.7 27.5-20.2-4.8-30.1-14.3-37.6-26.8-4.5 4.5-15.5 3.6-18.9 0-1.1 3.6-6 11.3-14.1 16.5v-6.4c5.7-3.5 10.6-8.2 13.7-14.2 0-.1 0-.2-.1-.2 0 0 .1-.1.1-.2.4 1.6 1.6 2.7 3.2 3.1.1 0 .2 0 .3.1h.9c.7-.1 1.1-.4 1.8-.5h.6c.5.1.9.3 1.4.5h.1c.1 0 .2 0 .3.1.1 0 .3 0 .4.1h1c1-.1 1.7-.5 2.3-.6h.9c.5.1.9.3 1.4.5h1.3c1.7-.2 3-1.7 3.5-3.3 0 0 0 .1.1.1v.2c7.1 13.8 22.9 20.6 38.4 22.3.2-.7.5-1.4.7-2.1.2-.6.4-1.2.5-1.8.3-1 .6-2.1.9-3.1.2-.6.3-1.2.5-1.8.1-.6.3-1.1.4-1.7.1-.5.2-.9.3-1.4.1-.5.2-.9.3-1.4.1-.7.3-1.3.4-2 .1-.7.2-1.3.3-1.9.1-.7.2-1.3.3-2 .1-.7.2-1.3.2-2 .1-.7.1-1.3.2-1.9 0-.5.1-1 .1-1.5 0-.3 0-.7.1-1 0-.5 0-.9.1-1.4v-3.8c0-.9-.1-1.7-.1-2.6 0-.6-.1-1.1-.1-1.7-.1-.5-.1-1.1-.2-1.6 0-.4-.1-.7-.2-1.1-.1-.5-.2-1-.2-1.5-.1-.5-.2-.9-.3-1.4 1.2-.3 2.1-.7 2.7-.9 2.1 7.6 2.7 14.2 1.8 22.8Zm58.5-46.5c-7.6-1.3-14.7-.1-20.7 2.2-.2-27.5-3.6-53.9-14.3-73.8-13-24-33.1-42.2-61.5-46.5-1.4-.2-4.6-1.5-3.7-3.9-3.5 0-3.9 3.1-5.5 3-1.1 0-5.5-2.2-2.2-8.8-9.7 2.3-7.8 8.8-11 9-1.3.1-1.9-6-9.5-6.8 2.6 2.6 3.3 7.3 2.1 7.4-1.6.2-3.1-3.3-7.3-2.9 1.7 1.9-1.1 4.2-2.9 4.6-18.4 4.2-30.8 12.8-40 23 1.3-2.7 2.9-5.4 4.7-8.1 3.5-5.1 6.8-10.7 12-14.2-3.1-.4-6 .1-9.5 1.7 3.2-5.6 5.7-6.8 9.7-7.8.1-.6-7.4-3.3-13.5-1 5.5-8.9 20.4-7.7 20.4-9.8 0-2.5-6.7-3.3-12-2.4 8-6.6 19.3-6.5 28.5-2.7-3.8-4-3.7-9.4-1.2-12.3 6.2 6.1 17.1 10.4 30.4 10.5-2.8-.9-4-3.4-2.8-5.8 3 2.7 14.1 5.9 26 9.9 62.8 21 84 85.6 84 129.2-.2 2.4-.2 4.2-.2 6.3Zm-47.1 30.4c1.4 6.9-.2 21.8-2.3 27.8-2.1 6.1-5.2 15.4-12.3 19.1 2 1 11.3 6.4 15.9 10.5.3-2.3 1.5-6 2.3-8.5-2.1-1.5-4.1-3.1-3.6-6.1.5-2.9 2.5-4.7 3-6.8.5-2.1 1.4-8.3 1.9-12.8s-.5-15.1-4.9-23.2Z" fill="#3F2719"/>
    <path opacity=".23" d="M343.7 215.2c-2.7 18-3.7 24.1-5.2 31.9-.8 4.3-4.2 12.1-9.2 7.3-4.9-2.3-9.6-4.2-14.1-5.7 0 0-.1 0-.1-.1 2.9-.1 5.2-2.6 6-4.8.8-2.2 1.3-6.8.1-8.1 1.1-3 3.1-9 5.5-22.1 2.4-13.1 1.2-32.4-5.9-41.7-7.4-9.7-20.7-12.9-32.2-8.9 6.2-2.5 13.7-3.8 21.6-2.3 6.1 1.2 12.5 4 18.8 9.1 11.8 9.7 17.4 27.4 14.7 45.4Z" fill="#3F2719"/>
    <path opacity=".23" d="M329.3 254.4c-3.9 17.1-12.4 45.1-31.1 56.8-5.1 3.2-11 5.2-17.8 5.4-6.8.2-13-1.9-18.4-5.4-16.9-10.8-27.7-34.9-32.3-46.5.5-.3.9-.7 1.3-1 .1-.1.3-.2.4-.3l.3-.3c.6-.8.9-1.7.9-2.6 0-1.3-.5-2.5-1.6-3.3h-.1c-.5-.3-1-.6-1.6-.7l-3.3-.5c.2 0 .4.1.6.2.1 0 .2.1.3.2l-8.5-1.2-.5-.1c-14.4.2-22.6 7.5-27 13-4.1 5.2-11.1 11.1-20.8 16.5v-.1l.1-5v-2.1c10.4-6 19.3-17 26.4-22.5.5-.4 1-.7 1.4-1 7.6-5.1 23.9-13.3 35.8-5.5 7.1 4.6 1.7 18.6 14.8 38.5 12 18.3 29.8 22.8 39.7 16.4 10.2-6.6 22.7-25 28.1-54 4.7 1.4 7.8 2.7 12.9 5.1Z" fill="#3F2719"/>
    <defs>
        <linearGradient id="a" x1="130.473" y1="82.998" x2="143.172" y2="88.355" gradientUnits="userSpaceOnUse">
            <stop stop-color="#fff" stop-opacity=".2"/>
            <stop offset="1" stop-color="#fff" stop-opacity="0"/>
        </linearGradient>
        <linearGradient id="b" x1="147.282" y1="90.098" x2="153.136" y2="92.578" gradientUnits="userSpaceOnUse">
            <stop offset=".006" stop-color="#fff" stop-opacity="0"/>
            <stop offset="1" stop-color="#fff" stop-opacity=".2"/>
        </linearGradient>
        <linearGradient id="c" x1="222.104" y1="78.625" x2="234.803" y2="83.982" gradientUnits="userSpaceOnUse">
            <stop stop-color="#fff" stop-opacity=".2"/>
            <stop offset="1" stop-color="#fff" stop-opacity="0"/>
        </linearGradient>
        <linearGradient id="d" x1="238.922" y1="85.722" x2="244.756" y2="88.194" gradientUnits="userSpaceOnUse">
            <stop stop-color="#fff" stop-opacity="0"/>
            <stop offset="1" stop-color="#fff" stop-opacity=".2"/>
        </linearGradient>
    </defs>
</svg>
