<svg width="315" height="359" fill="none" xmlns="http://www.w3.org/2000/svg">
    <path d="M287.5 198c-18.3-35.8-46.2-72.7-47.9-80.2-7-32.5-13.2-66.6-59-89.3-12.8-6.4-40.1-13.1-40.4-13-1.5.7 2.5 4.3 2.5 4.3s-7.8-.7-13.4-1.2c-5.1-.4-13-2.2-15-8.7-4.5 3.8-.2 8.7 1.1 11.4-5.4-3.5-11.9-3.8-18.5-2.1-5.6 1.5-8.2 4.5-8.1 4.6.8.8 11.2 0 11.2 2.3-3.5-.3-7.6.3-12.5 2.2-5.3 2.1-7.8 6.7-7.5 6.9.9.7 4-.8 6.8-.8 3.6 0 6.9 1.4 6.8 1.7-.1.4-.8.4-1.2.5-10.3 2.5-16.5 7.9-17.8 14.4 6.1-5.9 10.7-8.3 18.7-9.2-5.3 3.5-9 8.8-11.9 14.2-10.4 19.7-11.6 37-3 63.2.9 2.8 1 8.7.2 13 2.5-.2 3-4.6 4.1-2.5 1.1 2.1.5 6.8-.6 11.2 3.2.6 3.7-5.6 4.7-3.4 1 2.2-.3 7-1 8.6 2.3.3 3.1-3 3.3-1.2.1.8.1 1.6.1 2.3C72.7 161 69.1 176 51.6 202.3c-17.6 26.5-14.3 40.4-4.8 47.4 4.4 3.2 9.3 5.3 14.5 6.5-22.3 0-31.6 19.8-25.7 34.7 1.5 3.7 4.7 7.8 8.4 9.8-18.1 8.9-35.6 26.4-33.9 26.4 32.1 0 57.3 8.6 73.3.6 3.7-1.8 6-5.9 6.8-10.4 3.4.1 15.4 2.1 27.9 4.7 10.7 2.3 17.3 1.8 25.6 1-11 11.1-22.3 24.3-22 24.6 1.1 1.1 30.1 1.5 48.8-7.6 7.7-3.7 12.1-5.7 22.3-4.7 26.5 2.5 65.3 6 77.6-5.3 17-15.7 8.7-33-4.9-38.8-7.1-3-14.3-4.7-21.1-5.6 4-.5 5.8-4.2 8.9-4.9 5.6 1.4 11.9 5.4 17.7 5.6 45.9 2.2 36.9-48.4 16.5-88.3Z" fill="#CAA77A"/>
    <path d="M81.1 181.8c-3.5 20.6.9 24.3.7 28-.4 6.5-3.6 11.2-2.7 21.6.3 3.7-9.9.9-11.2 4.4-1.8 4.9-19.2 25.5-16.7 30.6-.1 0-3.6 3.6-6.2 4.5-5.9-2.6-10.2-5.6-14.5-8.8-2.5-1.8-4.4-5.8-4.4-11.1-.1-15 5.2-41.4 18.2-61 17.6-26.5 29.5-39.3 43.2-41.6 0 1.2 1.6 1.6 1.3 3.1-2 10.1-6 20.3-7.7 30.3Z" fill="#CAA77A"/>
    <path d="M41.1 302.6c-4.9 4.9-18.5 11.2-24.6 16.6-1.7 1.5-6 5.2-5.8 7.8.1.8.7.5 1.1.4 4.8-.5 12-1 16.8-.2 4.7.8 24.4 6.4 27.5 3.4 1.4-1.3.9-3.5.6-5.1-1.3-8.6-6.8-14.2-12.6-20.3-.9-.9-2.2-3.4-3-2.6Z" fill="#D2D2D2"/>
    <path opacity=".23" d="M101.4 294.7c-1.1-3.3-1.6-15.8-4.7-16.9-9.9-3.4-27.9 14.9-42.1 11.8-6.3-1.4-14.5-5.2-16.7-11.8-.5-1.4-1.9-4.8-1.8-6.4-2.8 7-2.9 16.5 1.1 23.4 3 5.2 7.1 5.6 6.8 5.6-8.8 4.4-29.9 19.2-33.3 26.4 6.3.3 16.2 1 19.1 1.2 13.5 1.2 42.9 7.2 54.4-.5 3.9-2.6 5.5-6.3 6-10.3 5.6-.1 16.4 2.1 27.9 4.7 7.2 1.6 16.5 2.6 25.6 1 9.8-9.9 22-21.1 39.6-28.4-24.8 6.8-31.2 16.4-37 18.1-11.2 3.5-38.5 1.3-44.9-17.9Z" fill="#3F2719"/>
    <path d="M174.2 338.4c-1.2.5-2.4 1.1-3.7 1.7-18.7 9-47.7 8.7-48.8 7.6-.4-.4 20.8-24.6 32.4-34.5l.4.7c3.1 5.5 9.1 18.5 19.7 24.5Zm-47.4-82.8c-10.7 1.7-14.5 0-20.8-.8 1.7-5.4 1.7-13.2-.1-18 6-2.1 14.6 2.2 24.2 2.2 7.4 0 12.6-2.8 13.2.4.2 1-5.1 14.4-16.5 16.2Z" fill="#B6B1AE"/>
    <path d="M283.4 190.2c-11.8-21.6-26.1-42.9-35.1-57-1.2 3.8-1.3 3.8-.1 0 1.5-4.7.5-7.5-.9-9.4-3.2-4.7-7.1-9.3-7.8-6-8.4 43.9-56.1 55.2-91.7 55.2-31.1 0-47.6-7.5-59.7-18.6.2-.9.4-1.9.6-2.8.2-1.3.4-2.6.4-3.9-14.6 1.1-31.8 15.8-41.4 32.3-1.2-.6-3.5 1.8-4.5 3.2-.8 1.1-2.3 3.7-.7 5.4 4.4 4.7 28.3 19.3 36.3 29.4-.2-.9-.2-1.8-.2-2.9 0 1.2 0 2 .2 2.9.1.2.2.3.4.5 0 0 0-.1.1-.1 0 0 .1-.1.1-.2.1-.1.1-.2.1-.2.1-.2.2-.4.3-.7.1-.2.2-.3.2-.5.1-.2.2-.3.2-.5.1-.2.2-.4.2-.5.1-.2.1-.3.2-.5.1-.1.1-.2.1-.4.1-.2.5-1.7.5-1.8.1-.3.2-.3.1 0 0 .1-.5 1.6-.5 1.8 0 .1-.1.2-.1.4-.1.2-.1.3-.2.5s-.1.3-.2.5-.1.3-.2.5-.1.3-.2.5-.2.5-.4.7c0 .1-.1.2-.1.2 0 .1-.1.1-.1.2 0 0 0 .1-.1.1-.1.1-.1.3-.2.4-.2.3-1 7.6.6 13.2-1.1 8.8-9.4 14.3-12.6 25.5 12.1.5 23.1 7.1 29 14.1 9.4 10.6 15.6 23.3 37.2 25.2 21.3 1.9 31.9.8 44.9-3.8 12.8-4.5 29.4-12.1 64.7-7.4 21 2.8 15.2-18.9 11.6-29.2-4.3-12.3-9.6-19-13-26.3-.3.6-.7.9-1.1.8.4 0 .7-.3 1-.8 10.8-22.4 41.5-29.7 46.5-31 4.4-1.4-.7-8.7-4.4-9Z" fill="#FFDB1F"/>
    <path d="M80.3 79.3c2.3-9.4 6.5-13.1 14.9-14.7 9.9-1.8 13-16.8 22.5-17.2 1.8-.1 5.9-1 6.8-2.6 2.7-5.1-3.5-7.3-.4-6.7 3.1.6 22.9 7.5 29.6 8.2 19.4 2.1 37.5 5.9 49 26.7 2.6 4.7 8.8 20.2 6.1 32.2-3.9 17.5-6 24.8-24.9 37.8-22.5 15.5-82.4 10.9-96.2-14.5.4-19.8-11.7-31.7-7.4-49.2Z" fill="#FFDBAF"/>
    <path d="M134.3 103.5c-7.8-3.9-16.8 11.6-17.1 22.6-.8 22.5 29.8 27.9 46.9 16.7 17.9-11.7-3.7-46.1-17.3-40.6" fill="#9D7B51"/>
    <path d="M80.2 75c-7.4 16.1 2.1 48.5 8.5 54.8 7.5-2.4 13.6-5.5 18.4-9.2 30.9-23.5 11.4-68.4 9.3-70.5-1.4-1.4-26.8 14.3-29.6 14.8-4 .8-5.1 6.8-6.6 10.1Zm76.5-25.8c-14.1 67.9 41.4 82.2 46.9 74.2 3.5-5.1 10.4-28.9 1.3-45-.9-1.6-13.4-19.5-15.1-19.2-13.6 2.2-30.3-23.6-33.1-10Z" fill="#9D7B51"/>
    <path d="m101.6 151-.1 6.5m6.5-3.1-.1 6.5" stroke="#9D7B51" stroke-width="3.87" stroke-miterlimit="10" stroke-linecap="round" stroke-linejoin="round"/>
    <path d="M93.5 42c-8 .9-12.6 3.2-18.7 9.2 1.3-6.6 7.5-11.9 17.8-14.4.4-.1 1-.1 1.1-.5.1-.3-3.2-1.7-6.8-1.7-2.8 0-5.9 1.5-6.8.8-.3-.2 2.3-4.8 7.5-6.9 4.9-1.9 9-2.5 12.5-2.2 0-2.3-10.4-1.5-11.2-2.3-.1-.1 2.5-3.2 8.1-4.6 6.6-1.7 13.1-1.4 18.5 2.1" stroke="#2D1F04" stroke-width="2.62" stroke-miterlimit="10" stroke-linecap="round" stroke-linejoin="round"/>
    <path d="M151.8 46c38.8.4 57.8 39.4 57.8 39.4m-91-36.1c-40.3 4.3-47.9 50-47.9 50" stroke="#2D1F04" stroke-width="7.6" stroke-miterlimit="10" stroke-linecap="round" stroke-linejoin="round"/>
    <path d="M128.8 104.2c-.1-3 5.6-5.6 12.9-6 7.3-.4 13.3 1.7 13.5 4.7.1 3-5.6 5.6-12.9 6-7.4.3-13.4-1.8-13.5-4.7Z" fill="#251707"/>
    <path d="M173.1 87.4c-.3 0-.7-.1-1-.1Z" fill="#2D1F04"/>
    <path d="M61.2 256.4c-21.2-.1-31.7 19.8-25.7 34.7 1.5 3.7 2.8 7.2 6.6 9.1m20.1-4.4c-22-.3-54.4 31.4-52.2 31.4 32.1 0 57.3 8.6 73.3.6 6.6-3.3 8.9-13.7 5.3-20.8m95-12.5c-10 5-18 9.9-27 16.7-10.8 8.1-35.3 36.1-34.9 36.5 1.1 1.1 30.1 1.5 48.8-7.6 7.7-3.7 12.1-5.7 22.4-4.7 26.5 2.5 65.3 6.1 77.6-5.3 17-15.7 8.7-33-4.9-38.8-27.6-11.8-57.1-3.7-57.4-3.2M66.1 257.3c14.4 2 25.5 7.9 31.3 16" stroke="#2D1F04" stroke-width="2.62" stroke-miterlimit="10" stroke-linecap="round" stroke-linejoin="round"/>
    <path d="M41.8 303c6.4 6.1 14.8 15.6 13.8 26.8" stroke="#2D1F04" stroke-width="2.62" stroke-miterlimit="10" stroke-linecap="round" stroke-linejoin="round"/>
    <path d="M12.5 326c8.2-6.8 24.9-15.7 36-14.7" stroke="#2D1F04" stroke-width="2.62" stroke-miterlimit="10" stroke-linecap="round" stroke-linejoin="round"/>
    <path d="M14.7 324.8c13.2 1.2 26.5-5.2 39.7-4m100.1-7c3.1 5.6 8.8 18.6 19.6 24.5m-52.4 9.4c11.4-10.9 24.4-18.9 36.8-23.8" stroke="#2D1F04" stroke-width="2.62" stroke-miterlimit="10" stroke-linecap="round" stroke-linejoin="round"/>
    <path opacity=".23" d="M180.8 296.7c1.1-.5 2-.9 2.4-1.1l-.2-.2c-.5.3-1.2.7-2.2 1.3Z" fill="#3F2719"/>
    <path opacity=".23" d="M183.2 295.6c.1-.1.2-.1.2-.2s.1-.2.1-.3c-.1.1-.3.2-.5.3l.2.2Z" fill="#3F2719"/>
    <path d="M236.4 219.6c-5-8.4-9.6-14.8-15.1-24.8m26.9-61.5c9.2 14.4 23.3 34.8 35.2 56.9M115.5 21.4c-1.4-2.7-5.7-7.6-1.1-11.4 2 6.4 9.8 8.2 15 8.7 5.5.5 13.4 1.2 13.4 1.2s-4-3.6-2.5-4.3c.3-.1 27.6 6.6 40.4 13 45.7 22.7 51.9 56.9 59 89.3" stroke="#2D1F04" stroke-width="2.62" stroke-miterlimit="10" stroke-linecap="round" stroke-linejoin="round"/>
    <path opacity=".23" d="M212.3 222.2c-4.4.6-5.7 12.1-29.5 7.9-14.1-2.5-23.1-8.8-31.6-10.8-6.4-1.5-9 1.5-19.2 1.6-7.8.1-18.2-.9-25.9-3.1-11.6-3.4-19.3-8.1-20.8-4.8-3.1 7.2 19.2 12 39.8 12.6 12.1.4 21.6-3.4 24.8-2.2 13.6 5.3 29.6 15 46.4 13.4 9.4-.9 24.6-15.8 16-14.6Z" fill="#3F2719"/>
    <path d="M121.7 347.7c11.4-1.9 34.3-7.2 44.8-15.3" stroke="#2D1F04" stroke-width="2.62" stroke-miterlimit="10" stroke-linecap="round" stroke-linejoin="round"/>
    <path d="M142.9 125.4c-7.3 0-17.2 6-13.2 9.8 3.9 3.7 7.2-5.5 14.2-5.5 7 0 7.9 8 12.7 4.6 4.8-3.4-3.1-8.9-13.7-8.9Z" fill="#2D1F04"/>
    <path d="M142.2 108.9c-.7 8.1-.5 13 1.1 18.1" stroke="#2D1F04" stroke-width="2.62" stroke-miterlimit="10" stroke-linecap="round" stroke-linejoin="round"/>
    <path d="M180.4 80.7c6.7 0 12.1 5.4 12.1 12v.8c0 6.6-5.4 12-12.1 12-6.7 0-12.1-5.4-12.1-12v-.8c0-6.6 5.4-12 12.1-12Z" fill="#fff"/>
    <path d="M173.1 96.5c0-2.1 1.7-3.8 3.7-3.8s3.7 1.7 3.7 3.8c0 2.1-1.7 3.8-3.7 3.8s-3.7-1.7-3.7-3.8Z" fill="#2D1F04"/>
    <path d="M180.4 80.7c6.7 0 12.1 5.4 12.1 12v.8c0 6.6-5.4 12-12.1 12-6.7 0-12.1-5.4-12.1-12v-.8c0-6.6 5.4-12 12.1-12Z" stroke="#2D1F04" stroke-width="2.6" stroke-miterlimit="10" stroke-linecap="round" stroke-linejoin="round"/>
    <path d="M103.4 78.6c-6.7 0-12.1 5.4-12.1 12v.8c0 6.6 5.4 12 12.1 12 6.7 0 12.1-5.4 12.1-12v-.8c0-6.6-5.4-12-12.1-12Z" fill="#fff"/>
    <path d="M110.2 95c0-2.1-1.7-3.8-3.7-3.8s-3.7 1.7-3.7 3.8c0 2.1 1.7 3.8 3.7 3.8 2.1 0 3.7-1.7 3.7-3.8Z" fill="#2D1F04"/>
    <path d="M103.4 78.6c-6.7 0-12.1 5.4-12.1 12v.8c0 6.6 5.4 12 12.1 12 6.7 0 12.1-5.4 12.1-12v-.8c0-6.6-5.4-12-12.1-12Z" stroke="#2D1F04" stroke-width="2.6" stroke-miterlimit="10" stroke-linecap="round" stroke-linejoin="round"/>
    <path d="M88.2 154.4c.2-.9.4-1.9.6-2.8.4-2.2.5-4.4.2-6.6-.2-1.9-1 1.5-3.3 1.2.6-1.6 1.9-6.4 1-8.6-1-2.2-1.4 4-4.7 3.4 1.1-4.4 1.7-9 .6-11.2-1.1-2.1-1.6 2.3-4.1 2.5.8-4.3.7-10.2-.2-13C69.8 93 71 75.7 81.7 56.2c2.9-5.4 6.6-10.7 11.9-14.2" stroke="#2D1F04" stroke-width="2.62" stroke-miterlimit="10" stroke-linecap="round" stroke-linejoin="round"/>
    <path d="M198 177.3c-13.1 4.1-29.5 6.7-50.2 6.7-32.8 0-63.6-23.6-63.4-25.1.5-3.6 2.6-5.8 3.8-4.6 12.1 11.1 28.6 18.6 59.7 18.6 35.6 0 83.4-11.3 91.7-55.2.7-3.4 4.6 1.3 7.8 6 1.3 2 2.4 4.8.9 9.5-.7 2.2-4.3 15.5-19.3 28" stroke="#2D1F04" stroke-width="2.62" stroke-miterlimit="10" stroke-linecap="round" stroke-linejoin="round"/>
    <path opacity=".23" d="M75.8 199c1.5 4.2.8 10.2-1.5 13.5 1.2 1.4 3 3.4 4.9 5.7.5-2.7-2.3-18.1-3.4-19.2Z" fill="#3F2719"/>
    <path d="M96 271.5c9.4 10.6 15.6 23.3 37.3 25.2 21.3 1.9 31.9.8 44.9-3.8s29.9-12.1 66.3-7.2m22.5-90.9c-12.9 5.1-24 13.5-30.6 24.8-1.6 2.5.1 7.4.8 9 .7 1.6 2.9 3.8 4.4 1.4 1.7 3.4 5.5 10.1 7.5 13.7m30.6-42.3c3.9-1.3 6.9-2 8.2-2.4 2.6-.7 1.8-2.7.6-4.5-1.1-1.6-3.2-4.7-5.2-4.3" stroke="#2D1F04" stroke-width="2.62" stroke-miterlimit="10" stroke-linecap="round" stroke-linejoin="round"/>
    <path d="M240.7 213.5c.3 2.7 1.5 4.1 3.1 5m2-10.5c.3 2 1.9 4 3.3 4.9m3.6-10.4c.6 2.2 2.2 3.6 3.8 4.6M97.1 161.2c-1.4 1.4-2.1 3.1-2.5 4.9m13.4.8c-.7 1.5-1.3 3.6-1.4 5.4m18.9-1c-.7 2.1-.7 3.9-.7 5.5m7.9-4.5c-.3 1.5-.6 4.1-.4 6.4m7.6-5.9c-.3 1.3-.5 4.1-.4 5.9m36.6-8.2c.6 1.4 1.1 3.3 1.2 5m6.6-6.7c.5 1.1 1.1 3.2 1.2 4.7m38.9-25.6c1.6 1.2 2.8 2.3 3.7 3.4m0-7.5c1.3.7 2.9 1.8 4.3 3.1m-1.6-6.9c1.6.7 2.7 1.3 3.7 2.1" stroke="#2D1F04" stroke-width="2.62" stroke-miterlimit="10" stroke-linecap="round" stroke-linejoin="round"/>
    <path d="m231 299.2-.1 6.5m6.5-3.2-.1 6.5m32.7-89.5v6.5m6.4-3.2v6.5" stroke="#9D7B51" stroke-width="3.87" stroke-miterlimit="10" stroke-linecap="round" stroke-linejoin="round"/>
    <path opacity=".23" d="M270.4 330.1c-.8.8-1.8 1.4-2.8 2.1-3.6 2.2-8.6 3.7-14.3 4.5-10.1 1.6-22.6 1.5-35 .7-3.5-.2-7.1-.5-10.5-.7-1.7-.1-3.4-.3-5.1-.4-1.7-.2-3.3-.3-4.9-.5-1.6-.2-3.2-.3-4.8-.5-4.4-.4-7.7-.3-10.7.3-4 .8-7.3 2.3-11.7 4.4-5.5 2.6-11.8 4.5-18.1 5.7-13.6 2.7-26.9 2.7-30.1 2.1-.3-.1-.6-.1-.6-.2-.1-.1.3-.6 1-1.5l.1-.1c.1-.1.2-.3.4-.5.7-.9 1.7-2.1 2.9-3.4.3-.4.7-.8 1-1.2.3-.3.6-.7.9-1 12.7.4 27.5-5.4 39.3-12.3 11.7-7 21.8-8 34.6-5.5s38.8 5 54.5-3.2c9.7-5.1 9.4-16.5 2.2-23.3-6.4-6.1-23.5-9.2-43.6-9.2 6.7-1.2 17.6-2.3 29.8-.7.5.1 1 .1 1.5.2l2.1.3c1.3.2 2.6.5 3.9.8.5.1.9.2 1.4.3.7.2 1.4.4 2.1.5 1.5.4 2.9.8 4.4 1.3.4.1.7.2 1.1.4.4.1.7.3 1.1.4.4.1.7.3 1.1.4.7.3 1.4.6 2.2.9 13.3 5.8 21.6 23.1 4.6 38.9Zm-30.8-212.4c-2.7 14-9.3 24.6-18.2 32.7 6.3-48.8-12-84.7-33.3-101.1-14.2-10.9-29.1-15.5-42.5-16.4-1.5-.1-6.9-.8-6.2-2.6-2.4 0-3 2.4-5.3 2.6-2.3.2-4.8-4.3-9.7-2.9 2.2.8.4 3.5-2.2 4.7-2.2 1-6.2.4-6.2-1.8-1.7 1.7-.2 3.5-1.4 3.8-1.5.5-6.6-3.8-9.6-.4 3.8.2 2.7 3 1.5 3.5C97 44 89.4 49.6 81.7 56c2.9-5.4 6.6-10.7 11.9-14.1-8 .9-12.6 3.2-18.7 9.2 1.3-6.6 7.5-11.9 17.8-14.4.4-.1 1-.1 1.1-.5.1-.3-3.2-1.7-6.8-1.7-2.8 0-5.9 1.5-6.8.8-.3-.2 2.3-4.8 7.5-6.9 4.9-1.9 9-2.5 12.5-2.2 0-2.3-10.4-1.5-11.2-2.3-.1-.1 2.5-3.2 8.1-4.6 6.6-1.7 13.1-1.4 18.5 2.1-1.4-2.7-5.7-7.6-1.1-11.4 2 6.4 9.8 8.2 15 8.7 5.5.5 13.4 1.2 13.4 1.2s-4-3.6-2.5-4.3c.3-.1 27.6 6.6 40.4 13 45.5 22.6 51.8 56.7 58.8 89.1Z" fill="#3F2719"/>
    <path opacity=".23" d="M248.2 133.2c-.7 2.1-3.8 13.4-15.8 24.8 1.4-6.9-.6-11.2-6.6-12.1 6.7-7.4 11.6-16.7 13.7-28.1.7-3.3 4.6 1.4 7.8 6 1.4 1.9 2.4 4.7.9 9.4Z" fill="#3F2719"/>
    <path d="M143.7 323.1c-10.2 1.3-18.7.5-25.6-1-11.7-2.5-22-4.6-27.5-4.6" stroke="#2D1F04" stroke-width="2.62" stroke-miterlimit="10" stroke-linecap="round" stroke-linejoin="round"/>
    <path d="M277.1 286.4c-12.9 1.2-24.7-5.4-32.9-10.4-18.6-11.4-28.6-17-34.9-20.2-1.7-6.6-1.5-11.3.7-18 23.8 8.3 51.5 3.5 69.8 15.4" fill="#CAA77A"/>
    <path d="M209.2 255.8c6.3 3.2 14.1 7.8 33 19 8 4.8 22 12.5 34.9 11.6 11.8-.8 20.5-5.1 24.7-16.6 4.2-11.4 3.6-35.6-13.9-70.8" stroke="#2D1F04" stroke-width="2.62" stroke-miterlimit="10" stroke-linecap="round" stroke-linejoin="round"/>
    <path d="M279.7 253.1c-21.4-12.6-43.1-6.3-69.8-15.4m44.5 43.9c-.9 1.4-3.9 4.3-5.3 4.8" stroke="#2D1F04" stroke-width="2.62" stroke-miterlimit="10" stroke-linecap="round" stroke-linejoin="round"/>
    <path d="M194.2 46c7.9 9.8 12.2 26.9 1.6 26.9s-6.3-17.1-1.6-26.9Z" fill="#9CDAF0"/>
    <path d="M194.2 46c7.9 9.8 12.2 26.9 1.6 26.9-7.6 0-7.6-8.8-5.2-17.3" stroke="#2D1F04" stroke-width="2.62" stroke-miterlimit="10" stroke-linecap="round" stroke-linejoin="round"/>
    <path d="M197.8 67.8c.939 0 1.7-1.343 1.7-3s-.761-3-1.7-3-1.7 1.343-1.7 3 .761 3 1.7 3Z" fill="#fff"/>
    <path d="M82 306c-3.6 3-5.9 5.2-10 6.2-6.1 1.4-17.5-4.8-27.6-17.5C33 280.5 27.6 267.8 26 250.1c4.9-6.8 11.5 7.2 15.8 5.7 8.1 5.6 25.9 36.6 40.2 50.2Z" fill="#CAA77A"/>
    <path opacity=".23" d="M143.7 290.1c11.4 1.1 25.9-5.1 37.8-8.5 11.9-3.5 18.4-4.1 20.7-4.2-9.4-.5-20.3 1.5-28 3.3-7.7 1.8-20.1 5.7-27.5 5-.8 2.1-3 4.4-3 4.4Z" fill="#3F2719"/>
    <path d="M106.4 287.4c-14.1 5.2-19.8 4.1-28.6 4.7.9-7.8-1.4-18.5-5.2-24.6 7.6-4.6 20.5-1.1 33.7-3.7 10-2 16.5-7.4 18.1-3.2.5 1.5-3 21.2-18 26.8Z" fill="#B6B1AE"/>
    <path d="M100.4 316.5 38 276.2c-11.9-7.7-15.2-23.5-7.6-35.3l40.3-62.4c7.7-11.9 23.5-15.2 35.3-7.6l62.4 40.3c11.9 7.7 15.2 23.5 7.6 35.3l-40.3 62.4c-7.6 11.9-23.4 15.3-35.3 7.6Z" fill="#39C"/>
    <path d="m104.4 220.6.1.5-.5-.3c.1 0 .2-.1.4-.2Z" fill="#00342B"/>
    <path d="m104.4 220.6.1.5-.5-.3c.1 0 .2-.1.4-.2Z" fill="#00342B"/>
    <path opacity=".23" d="m176.1 246.5-40.3 62.4c-7.7 11.8-23.5 15.2-35.3 7.6L38 276.2c-10-6.5-14-18.8-10.4-29.6.7 7.6 4.7 14.8 11.6 19.2l62.4 40.3c11.8 7.7 27.7 4.3 35.3-7.6l40.3-62.4c1.2-1.8 2.1-3.8 2.8-5.8.6 5.6-.7 11.3-3.9 16.2Z" fill="#3F2719"/>
    <path d="m129.2 229.5-12.5-5.6 6.9 8.8-6.8-3.5 5.1 6.2-15.9-10.5 7.1 34.9c5.8 1.6 10.6 6.3 11.9 12.7 1.8 9-4 17.8-12.9 19.6-9 1.8-17.8-4-19.6-12.9-1.3-6.5 1.4-13 6.4-16.7l-7.5-36.9c-6.1-1.4-11.1-6.3-12.4-12.8-.4-2-.4-4-.1-5.9l-18-11.9 7.8-11.9 18.2 12c1.5-.9 3.2-1.6 5.1-1.9 9-1.8 17.8 4 19.6 13 .4 1.8.4 3.6.2 5.4l18.9 13.1-8.7-2.6 7.2 7.4Z" fill="#fff"/>
    <path d="M100.4 316.5 38 276.2c-11.9-7.7-15.2-23.5-7.6-35.3l40.3-62.4c7.7-11.9 23.5-15.2 35.3-7.6l62.4 40.3c11.9 7.7 15.2 23.5 7.6 35.3l-40.3 62.4c-7.6 11.9-23.4 15.3-35.3 7.6Z" stroke="#2D1F04" stroke-width="2.62" stroke-miterlimit="10" stroke-linecap="round" stroke-linejoin="round"/>
    <path d="M108.6 292.4c9.168 0 16.6-7.432 16.6-16.6 0-9.168-7.432-16.6-16.6-16.6-9.168 0-16.6 7.432-16.6 16.6 0 9.168 7.432 16.6 16.6 16.6Z" fill="#FF8A8A"/>
    <path d="M108.6 292.4c9.168 0 16.6-7.432 16.6-16.6 0-9.168-7.432-16.6-16.6-16.6-9.168 0-16.6 7.432-16.6 16.6 0 9.168 7.432 16.6 16.6 16.6Z" stroke="#2D1F04" stroke-width="2.62" stroke-miterlimit="10" stroke-linecap="round" stroke-linejoin="round"/>
    <path d="M95 225.9c9.168 0 16.6-7.432 16.6-16.6 0-9.168-7.432-16.6-16.6-16.6-9.168 0-16.6 7.432-16.6 16.6 0 9.168 7.432 16.6 16.6 16.6Z" fill="#fff"/>
    <path d="M95 225.9c9.168 0 16.6-7.432 16.6-16.6 0-9.168-7.432-16.6-16.6-16.6-9.168 0-16.6 7.432-16.6 16.6 0 9.168 7.432 16.6 16.6 16.6Z" fill="#FF8A8A"/>
    <path d="m68.5 183.1 18.2 12c1.5-.9 3.2-1.6 5.1-1.9 9-1.8 17.8 4 19.6 13 .4 1.8.4 3.6.2 5.4l18.9 13.1m-8.7 10.7-15.9-10.5 7.1 34.9c5.8 1.6 10.6 6.3 11.9 12.7 1.8 9-4 17.8-12.9 19.6-9 1.8-17.8-4-19.6-12.9-1.3-6.5 1.4-13 6.4-16.7l-7.5-36.9c-6.1-1.4-11.1-6.3-12.4-12.8-.4-2-.4-4-.1-5.9l-18-11.9" stroke="#2D1F04" stroke-width="2.62" stroke-miterlimit="10" stroke-linecap="round" stroke-linejoin="round"/>
    <path d="M192 222.6c7.2 5.7 8.4 16.2 2.7 23.3-5.7 7.2-16.1 8.4-23.3 2.7-1.5-1.2-2.8-2.6-3.8-4.2l-10.7 1.1-7.9-1.5 7.4-2.1-10.9-2.3 13.2-3.8-10.4-1 8.3-3.6 9.4-.9c.6-1.7 1.5-3.4 2.7-5 5.7-7.2 16.2-8.4 23.3-2.7Z" fill="#fff"/>
    <path d="M181.7 252.2c9.168 0 16.6-7.432 16.6-16.6 0-9.168-7.432-16.6-16.6-16.6-9.168 0-16.6 7.432-16.6 16.6 0 9.168 7.432 16.6 16.6 16.6Z" fill="#FF8A8A"/>
    <path d="M181.7 252.2c9.168 0 16.6-7.432 16.6-16.6 0-9.168-7.432-16.6-16.6-16.6-9.168 0-16.6 7.432-16.6 16.6 0 9.168 7.432 16.6 16.6 16.6ZM167.6 244.4l-10.7 1.1m9.1-15.2-9.4.9M95 225.9c9.168 0 16.6-7.432 16.6-16.6 0-9.168-7.432-16.6-16.6-16.6-9.168 0-16.6 7.432-16.6 16.6 0 9.168 7.432 16.6 16.6 16.6Z" stroke="#2D1F04" stroke-width="2.62" stroke-miterlimit="10" stroke-linecap="round" stroke-linejoin="round"/>
    <path d="m131.1 236.5 3.9 7.2 5.5.4-9.4-7.6Zm-3.7 2.9-2.4 2.8 1.3-3 1.1.2Zm7.4-10.7-.7-2.4-3.3 1.9 4 .5Zm7.7 6.1-6.4-1.5 7 4.5-.6-3Z" fill="#fff"/>
    <path d="M209.2 255.8c-2-6.6-1-12.8.7-18" stroke="#2D1F04" stroke-width="2.62" stroke-miterlimit="10" stroke-linecap="round" stroke-linejoin="round"/>
    <path d="M209.9 237.8c-1.7 5.2-2.7 11.4-.7 18-6.3.7-10.2 2.2-20.8.2-11.3-2.1-16.2-15.6-15.9-16.8.7-3.1 5.8-.2 13.2.1 9.6.2 18.3-4.1 24.2-1.5Z" fill="#B6B1AE"/>
    <path d="M172.4 239.1c5.3 5.8 15.5 12.4 35.8 6.3" stroke="#2D1F04" stroke-width="2.62" stroke-miterlimit="10" stroke-linecap="round" stroke-linejoin="round"/>
    <path d="M26.6 251.1c-.1-15 4.7-41.4 17.7-61m165.6 47.7c-1.7 5.2-2.7 11.4-.7 18-6.3.7-10.2 2.2-20.8.2-11.3-2.1-16.2-15.6-15.9-16.8.7-3.1 5.8-.2 13.2.1 9.6.2 18.3-4.1 24.2-1.5Z" stroke="#2D1F04" stroke-width="2.62" stroke-miterlimit="10" stroke-linecap="round" stroke-linejoin="round"/>
    <path d="M89.1 147.6c-14.6 1.1-31.8 15.8-41.4 32.3h-.1c-1.1-.6-3.5 1.8-4.5 3.2-.8 1.1-2.3 3.7-.7 5.4.4.5 1.1 1 1.8 1.6 1.7 1.4 4.2 3.2 7.1 5.3M72 312.2c-6.1 1.4-17.5-4.8-27.6-17.5-7.5-9.5-12.4-18.2-15.3-28.2" stroke="#2D1F04" stroke-width="2.62" stroke-miterlimit="10" stroke-linecap="round" stroke-linejoin="round"/>
    <path d="M71.5 312.7c16.6.3 25.5-15.3 22.3-22.2-4-8.6-5.5 1-20.1.1-4.6-.3-7.6.4-10 2.2-.7 1.7-.7 3.3-.9 7.5-.4 7.4 2.4 12.3 8.7 12.4Z" fill="#B6B1AE"/>
    <path d="M71.5 312.7c16.6.3 25.5-15.3 22.3-22.2-4-8.6-5.5 1.2-20.1.1-4.3-.3-7.6.8-10 2.2-.4 1.3-.6 2.6-.9 7.5-.4 7.4 2.4 12.3 8.7 12.4Z" stroke="#2D1F04" stroke-width="2.62" stroke-miterlimit="10" stroke-linecap="round" stroke-linejoin="round"/>
    <path opacity=".23" d="M302.6 267.8c-.1.2-.1.4-.2.7-.1.4-.3.9-.4 1.3-.1.2-.2.5-.3.7-.1.2-.2.5-.3.7-.2.5-.4.9-.6 1.4-.5 1-1 1.9-1.6 2.8-.1 0-.1-.1-.2-.1 0 0 .1 0 .1.1-4.2 6.4-11.3 10.5-22 11.1-1.7.1-3.5.1-5.4.1-1.1-.1-2.1-.2-3.2-.3-5.6-.8-10.9-2.9-15.5-5.2-3.2-1.6-6.2-3.3-8.8-4.9-18.6-11.4-28.6-17-34.9-20.2-6.3.7-10.2 2.2-20.8.2-11.3-2.2-16.2-15.7-15.9-16.8.5-2.1 2.9-1.5 6.6-.8-2.3 2.1-2.7 5.6 3.4 9.5 7.6 4.8 18.3 2.3 25.7 1.9 1.4-.1 2.7-.1 3.8 0 11.2 1.4 21.1 6 37.2 16.7 5.3 3.5 17 12.1 28.5 13.3 6.1.6 12.2-.9 17.1-6.4 1.1-1.2 1.9-2.7 2.3-4.5 3.9-20.8-15.2-63.3-30-62.4.8-.4 1.4-.9 1.8-1.5 4.3-6.4-7.8-23.9-14.1-35.4-6.9-12.5-14.1-18.7-18-15.8 6.6-7.5 9.6-14.4 10.9-18.1-.2.9.1.1.9-2.4v-.1c9 14.1 23.3 35.3 35.1 57 3.7.3 8.7 7.6 4.6 8.8 16.1 33.1 17.6 56.4 14.2 68.6ZM94.2 296.1c-3.8-5.5-11.5 1.1-18.2 3.6-.1 0-.2.1-.3.1-.3.1-.5.2-.8.2-4.2 1.3-8.1 1.2-12.1.1-3.1-.9-5.3-4.6-8.5-8-11.8-12.6-12.5-4.4-7.4 5.7-.9-1-1.7-2-2.6-3.1-7.8-9.8-12.8-18.9-15.7-29.4 2 4.3 5.1 8.1 9.4 10.8l25.7 16.6c1.4-1.1 3.1-1.8 5.2-2 1.4-.2 2.9-.2 4.8-.1 14.6.8 16.1-8.7 20.1-.1.7 1.5.8 3.4.4 5.6Z" fill="#3F2719"/>
    <path d="M63.2 304c10.9 1 22.1-1.6 29.7-14.6" stroke="#2D1F04" stroke-width="2.62" stroke-miterlimit="10" stroke-linecap="round" stroke-linejoin="round"/>
    <path opacity=".23" d="m57.1 199.5-26.7 41.3c-2.7 4.2-4 8.8-4.1 13.4-.2-1-.2-2-.2-3.1 0-5.1.6-11.6 1.9-18.7 2.8 3.9 6.1.4 8.5-4 6.9-12.5 11.4-22.7 16-32.3 1.4 1.1 2.1 1.6 4.6 3.4Z" fill="#3F2719"/>
    <path opacity=".23" d="M51.4 195.4c4.4 0 12.1-9.4 16.2-15 4.2-5.6 10.2-19.2 16.8-20.8-2.3 5.2-3 7.1-3.8 10-3.4 2.8-7.2 4.9-13 13.8s-9.4 14.6-10.5 16.2c-1.7-1.4-5.7-4.2-5.7-4.2Zm204.2 86.7c-2.2 2.7-6.2 4.2-12.6 3.3-11.7-1.6-21.4-1.8-29.5-1.2 5.7-2.2 7.8-4.5 8.8-6.4 2.2-4 .9-8.3-4.2-11-5.1-2.7-11.7-5.4-17.2-6.1-4.3-.6-8.5-2-11.7-4.7 10.1 1.8 13.9.4 20.1-.3 6.3 3.2 16.3 8.8 34.9 20.2 3.2 2.1 7.1 4.3 11.4 6.2Zm-113.8-88.2c-4.1-4.6 10.5-5.2 27.6-6.5 17.1-1.3 32.4-7 41.6-14.7-7.4 3.4-17.4 6.6-33.7 9.3-16.3 2.7-39.3 4-59.8-3.8 5.5 3.5 16.5 10.8 24.3 15.7Z" fill="#3F2719"/>
    <path d="M47.7 179.9c3.2 2 7.6 5.1 9.4 6.6" stroke="#2D1F04" stroke-width="2.62" stroke-miterlimit="10" stroke-linecap="round" stroke-linejoin="round"/>
    <path d="M50.7 181.8c-.6.2-1.9 1.5-2.5 2.6m7.8 1.2c-.8.5-1.4 1.5-1.7 2" stroke="#2D1F04" stroke-width="2.62" stroke-miterlimit="10" stroke-linecap="round" stroke-linejoin="round"/>
    <path d="M235.8 171.6c3.2-3 6.1-5.1 8.9-6.8 2.3-1.4 3.9-.5 4.8.7 1.2 1.7 1 3.4-.4 4.9l-.3.3c2.8-.1 4.2 2 6.7 3.4-1.5.7-2.9 1.4-4.3 2.2-1.4-.9-2.8-1.8-4.2-2.6-.8-.4-1.5-.6-2.5.4.9 1.5 1.8 3.1 3 4.9-1.2 1-2.3 2.1-3.5 3.3-3.1-4.4-4.9-7.7-8.2-10.7Zm5.9-1.6c.5.7.9 1.3 1.5 2.1.8-.7 1.7-1.2 2.4-1.9.7-.5.8-1.2.5-1.7-.3-.6-1-.8-1.8-.3-.9.5-1.7 1.1-2.6 1.8Z" fill="#000"/>
    <path d="M261 159.4c-1.1.8-2.2 1.5-3.3 2.3-.8-1.1-1.8-1.4-2.8-.7-.6.4-1 1-.8 1.9.4.6.9.6 1.4.5 1-.3 2-.5 3-.8.6-.1 1.1-.2 1.7-.2 3.6-.1 6 3.7 4.8 6.5-.4.9-1.2 1.8-2.1 2.4-1.4 1-3 1.6-4.7 1.8-2.2.3-4.2-.7-5.3-2.7 1.1-.6 2.2-1.2 3.4-1.9l.6.6c1.1 1 2.7 1 3.7-.1.4-.5.6-1.1.3-1.7-.3-.6-.9-.8-1.5-.8-.5 0-1 .1-1.5.2-1 .2-2 .4-3.1.5-2 .1-3.3-.6-4-2-.8-1.6-.6-3.4.6-5.1 1.2-1.6 2.6-2.8 4.5-3.3 2.2-.5 3.8.5 5.1 2.6Z" fill="#000"/>
</svg>
