<svg width="100" height="100" viewBox="0 0 430 385" fill="none" xmlns="http://www.w3.org/2000/svg">
<path fill-rule="evenodd" clip-rule="evenodd" d="M211.494 384.558L215 384.583C213.771 384.583 212.544 384.574 211.319 384.556C210.2 384.539 209.082 384.514 207.966 384.482C207.898 384.48 207.829 384.479 207.761 384.476C206.64 384.443 205.522 384.403 204.406 384.354C204.375 384.353 204.344 384.352 204.312 384.35C203.174 384.3 202.039 384.243 200.906 384.177C200.862 384.175 200.817 384.172 200.772 384.169C199.661 384.105 198.553 384.032 197.448 383.952C197.374 383.947 197.3 383.942 197.225 383.936C196.131 383.856 195.04 383.769 193.951 383.674C193.895 383.67 193.84 383.665 193.784 383.66C192.693 383.564 191.603 383.462 190.516 383.351C190.438 383.344 190.36 383.336 190.282 383.328C189.232 383.22 188.184 383.106 187.139 382.985C187.006 382.97 186.874 382.955 186.741 382.939C185.757 382.824 184.775 382.702 183.795 382.575C183.615 382.551 183.435 382.528 183.256 382.504C182.28 382.375 181.305 382.24 180.332 382.099C180.189 382.078 180.046 382.058 179.903 382.037C178.895 381.889 177.889 381.735 176.886 381.574C176.781 381.558 176.675 381.541 176.57 381.524C175.569 381.362 174.57 381.195 173.574 381.021C173.431 380.996 173.288 380.971 173.145 380.946C172.171 380.774 171.199 380.596 170.229 380.413C170.082 380.385 169.935 380.357 169.789 380.329C168.818 380.143 167.849 379.952 166.883 379.754C166.751 379.728 166.62 379.701 166.488 379.674C165.5 379.47 164.515 379.26 163.531 379.045C163.415 379.019 163.298 378.993 163.181 378.967C162.203 378.751 161.227 378.529 160.254 378.301C160.133 378.272 160.012 378.244 159.892 378.215C158.915 377.985 157.941 377.748 156.97 377.505C156.861 377.478 156.753 377.451 156.644 377.424C155.638 377.171 154.634 376.911 153.634 376.646C153.565 376.627 153.497 376.609 153.429 376.591C152.416 376.321 151.407 376.045 150.401 375.762C150.331 375.742 150.261 375.722 150.191 375.703C148.079 375.107 145.981 374.483 143.899 373.831C143.883 373.826 143.867 373.821 143.851 373.816L143.816 373.805C140.679 372.822 137.575 371.776 134.506 370.668C134.412 370.634 134.318 370.6 134.224 370.566C133.263 370.218 132.304 369.863 131.35 369.503C131.309 369.487 131.269 369.472 131.229 369.457C130.258 369.09 129.29 368.716 128.326 368.336C128.244 368.303 128.161 368.271 128.078 368.238C127.137 367.866 126.199 367.488 125.265 367.104C125.198 367.077 125.13 367.049 125.063 367.021C124.14 366.641 123.221 366.255 122.305 365.863C122.19 365.814 122.075 365.765 121.96 365.716C121.076 365.336 120.196 364.951 119.319 364.561C119.2 364.508 119.081 364.455 118.962 364.402C118.082 364.009 117.205 363.61 116.331 363.206C116.231 363.16 116.132 363.114 116.033 363.068C115.167 362.666 114.305 362.259 113.446 361.847C113.304 361.78 113.163 361.712 113.021 361.643C112.163 361.229 111.307 360.81 110.455 360.386C110.375 360.345 110.294 360.305 110.214 360.265C109.329 359.823 108.447 359.375 107.57 358.922C107.486 358.879 107.403 358.836 107.319 358.792C106.474 358.355 105.634 357.912 104.796 357.465C104.654 357.389 104.513 357.313 104.371 357.237C103.559 356.801 102.75 356.36 101.945 355.914C101.833 355.852 101.721 355.79 101.609 355.728C100.772 355.263 99.9392 354.793 99.1099 354.318C99.0077 354.26 98.9053 354.201 98.803 354.142C97.9766 353.667 97.1545 353.187 96.3363 352.702C96.2446 352.648 96.153 352.594 96.0614 352.539C95.2364 352.049 94.4152 351.553 93.5982 351.053C93.5058 350.996 93.4135 350.94 93.3213 350.883C92.4774 350.365 91.638 349.841 90.803 349.312C90.7517 349.28 90.7004 349.247 90.6491 349.215C84.3943 345.246 78.3874 340.986 72.6532 336.457C72.5857 336.404 72.5184 336.35 72.4511 336.297C70.8817 335.054 69.3328 333.791 67.8048 332.509C67.7218 332.439 67.639 332.37 67.5563 332.3C66.9175 331.762 66.2821 331.22 65.6504 330.675C25.1714 295.744 0 246.748 0 192.5C0 86.4153 96.2588 0.416656 215 0.416656C272.022 0.416656 326.708 20.654 367.028 56.6766C407.348 92.6992 430 141.556 430 192.5C430 246.75 404.827 295.747 364.347 330.677C364.345 330.679 364.346 330.684 364.347 330.688C354.185 339.45 343.063 347.326 331.136 354.177C331.081 354.209 331.025 354.241 330.97 354.272C330.127 354.756 329.281 355.234 328.43 355.706C328.323 355.766 328.216 355.825 328.108 355.885C327.281 356.343 326.449 356.797 325.614 357.245C325.509 357.302 325.403 357.358 325.297 357.415C324.453 357.866 323.606 358.312 322.756 358.753C322.658 358.804 322.56 358.855 322.462 358.906C320.617 359.858 318.755 360.787 316.877 361.692C316.749 361.754 316.62 361.816 316.491 361.878C315.644 362.283 314.795 362.684 313.942 363.079C313.822 363.136 313.702 363.191 313.582 363.246C312.754 363.628 311.922 364.006 311.086 364.38C310.899 364.464 310.711 364.548 310.523 364.631C309.725 364.985 308.925 365.334 308.122 365.68C307.943 365.757 307.763 365.834 307.583 365.911C306.762 366.261 305.939 366.606 305.114 366.947C304.938 367.021 304.762 367.093 304.585 367.166C303.738 367.512 302.887 367.855 302.034 368.193C301.89 368.251 301.746 368.308 301.602 368.364C300.713 368.714 299.821 369.058 298.926 369.398C298.799 369.447 298.672 369.494 298.545 369.542C297.614 369.893 296.68 370.238 295.742 370.578C295.589 370.634 295.435 370.69 295.281 370.745C294.412 371.057 293.541 371.364 292.668 371.667C292.49 371.729 292.311 371.791 292.132 371.852C291.257 372.152 290.38 372.448 289.5 372.738C289.359 372.785 289.219 372.831 289.078 372.877C288.201 373.164 287.32 373.447 286.437 373.725C286.244 373.787 286.05 373.847 285.856 373.908C284.974 374.182 284.09 374.452 283.203 374.717C283.048 374.763 282.894 374.81 282.739 374.855C281.821 375.127 280.901 375.393 279.978 375.655C279.848 375.692 279.72 375.728 279.591 375.764C278.609 376.04 277.624 376.31 276.635 376.573C276.572 376.591 276.509 376.608 276.445 376.624C275.437 376.892 274.425 377.154 273.41 377.41C273.273 377.444 273.137 377.479 273 377.513C272.035 377.753 271.066 377.989 270.095 378.218C269.969 378.248 269.842 378.278 269.716 378.308C268.756 378.532 267.795 378.751 266.83 378.965C266.71 378.992 266.588 379.018 266.467 379.045C265.49 379.259 264.51 379.467 263.529 379.67C263.39 379.699 263.251 379.727 263.113 379.755C262.175 379.947 261.236 380.132 260.295 380.313C260.113 380.348 259.932 380.382 259.75 380.417C258.812 380.594 257.873 380.766 256.931 380.932C256.78 380.959 256.629 380.986 256.477 381.012C254.332 381.386 252.176 381.732 250.008 382.05C249.923 382.062 249.838 382.075 249.752 382.087C248.691 382.241 247.626 382.388 246.559 382.529C246.462 382.541 246.364 382.554 246.267 382.567C245.225 382.702 244.18 382.831 243.133 382.954C243.043 382.964 242.952 382.975 242.862 382.985C241.82 383.106 240.776 383.219 239.73 383.326C239.625 383.337 239.52 383.348 239.416 383.358C238.371 383.464 237.323 383.563 236.272 383.655C236.172 383.664 236.072 383.673 235.972 383.681C234.921 383.772 233.867 383.856 232.812 383.934C232.705 383.941 232.597 383.949 232.49 383.957C231.403 384.035 230.314 384.106 229.223 384.17C229.177 384.172 229.131 384.175 229.086 384.178C227.945 384.244 226.801 384.302 225.655 384.352C225.641 384.352 225.626 384.353 225.611 384.353C224.483 384.402 223.354 384.444 222.222 384.477L222.179 384.478C219.795 384.548 217.402 384.583 215 384.583C213.829 384.583 212.66 384.575 211.494 384.558ZM236.5 269.333H193.5C159.251 269.333 129.298 287.338 115.528 313.665L113.971 316.855L115.319 317.745C139.825 333.34 169.103 343.339 200.816 345.652C200.86 345.655 200.903 345.658 200.946 345.661L200.816 345.652C201.762 345.721 202.711 345.783 203.662 345.838L200.946 345.661C201.871 345.728 202.796 345.788 203.724 345.842L203.662 345.838C204.581 345.892 205.501 345.939 206.424 345.979L203.724 345.842C204.682 345.897 205.642 345.945 206.604 345.987L206.424 345.979C207.114 346.009 207.805 346.036 208.498 346.059L215 346.167L217.695 346.148C217.78 346.147 217.864 346.146 217.948 346.145C218.857 346.131 219.764 346.111 220.668 346.085L217.948 346.145C218.865 346.131 219.78 346.111 220.693 346.084L220.668 346.085C221.59 346.058 222.51 346.025 223.428 345.985L220.693 346.084C221.642 346.056 222.589 346.022 223.535 345.981L223.428 345.985C224.384 345.944 225.339 345.896 226.291 345.841L223.535 345.981C224.467 345.94 225.397 345.893 226.326 345.839L226.291 345.841C227.222 345.787 228.151 345.726 229.079 345.659L226.326 345.839C227.274 345.784 228.22 345.722 229.165 345.653L229.079 345.659C229.979 345.594 230.878 345.523 231.774 345.445L229.165 345.653C230.105 345.585 231.044 345.509 231.981 345.427L231.774 345.445C262.428 342.795 290.727 332.955 314.534 317.838L316.007 316.855L314.473 313.669C301.306 288.487 273.326 270.915 240.942 269.435L236.5 269.333ZM215 38.8333C120.007 38.8333 43 107.632 43 192.5C43 229.149 57.3605 262.802 81.3286 289.211C103.529 254.391 145.446 230.917 193.5 230.917H236.5C284.556 230.917 326.474 254.393 348.671 289.209C372.639 262.802 387 229.149 387 192.5C387 107.632 309.993 38.8333 215 38.8333ZM215 58.0417C262.496 58.0417 301 92.4411 301 134.875C301 176.023 264.795 209.616 219.292 211.614L215 211.708C167.504 211.708 129 177.309 129 134.875C129 93.727 165.205 60.1338 210.708 58.1357L215 58.0417ZM215 96.4583C191.252 96.4583 172 113.658 172 134.875C172 156.092 191.252 173.292 215 173.292C238.748 173.292 258 156.092 258 134.875C258 113.658 238.748 96.4583 215 96.4583Z" fill="black"/>
</svg>
