<svg width="245" height="239" viewBox="0 0 245 239" fill="none" xmlns="http://www.w3.org/2000/svg">
<g clip-path="url(#clip0_16_11)">
<path d="M244.642 174.579V174.518C244.928 173.724 245 172.869 244.928 172.014C244.785 171.098 244.427 170.182 243.855 169.388C243.927 169.266 243.927 169.205 243.998 169.083C244.284 168.228 244.356 167.434 244.284 166.579C244.141 165.725 243.855 164.931 243.426 164.198C243.354 164.137 243.283 164.015 243.283 163.954C243.64 163.038 243.784 162.122 243.712 161.145C243.64 160.29 243.354 159.496 242.853 158.763C242.853 158.763 242.853 158.763 242.853 158.702C242.567 158.214 242.209 157.786 241.78 157.42C242.138 155.955 242.138 154.428 241.708 152.901C240.921 150.276 239.061 148.138 236.342 146.795C235.626 146.429 234.839 146.123 234.052 145.879C234.482 145.269 234.839 144.597 235.054 143.864C235.984 141.299 235.698 138.674 234.267 136.292C233.194 134.46 231.548 133.117 229.544 132.14C229.544 131.529 229.473 130.919 229.33 130.308C229.043 129.087 228.543 127.927 227.684 126.95C227.04 126.156 226.324 125.484 225.466 124.935C225.18 124.019 224.679 123.225 224.035 122.431C223.677 122.004 223.319 121.637 222.89 121.271C222.675 120.904 222.46 120.538 222.174 120.172C221.817 119.744 221.459 119.378 221.029 119.012C220.886 118.706 220.743 118.401 220.529 118.157C219.813 117.119 218.811 116.264 217.595 115.714C217.666 114.554 217.309 113.394 216.593 112.356C216.164 111.745 215.663 111.195 215.09 110.768C215.09 110.035 215.019 109.303 214.733 108.631C214.446 107.837 213.946 107.104 213.302 106.433C213.373 105.578 213.23 104.784 212.944 103.99C212.443 102.708 211.513 101.609 210.296 100.876C209.939 100.632 209.509 100.448 209.08 100.265C209.295 100.082 209.509 99.8988 209.724 99.7157C210.296 99.105 210.797 98.3723 211.012 97.5785C211.298 96.7846 211.37 95.9297 211.227 95.0749C211.155 94.4642 210.94 93.8536 210.654 93.3041C210.94 92.4492 211.155 91.5332 211.155 90.5562C211.155 89.1518 210.869 87.7473 210.153 86.5261C211.083 85.3048 211.656 83.9614 211.871 82.4959C212.085 80.9083 211.942 79.4428 211.37 77.9773C211.584 77.7941 211.799 77.6109 211.942 77.3666C212.729 76.4507 213.302 75.4737 213.659 74.3746L214.518 71.3825C214.733 70.5276 214.804 69.6727 214.661 68.8789C214.518 68.024 214.16 67.2302 213.659 66.4975C213.159 65.8258 212.586 65.2762 211.799 64.7877C211.727 64.7266 211.656 64.7266 211.656 64.6656C212.085 63.5664 212.085 62.3452 211.656 61.185C210.94 59.4752 209.366 58.1318 207.291 57.6433L185.753 52.5141C185.467 52.1477 185.324 51.9034 185.253 51.5981C185.181 51.3539 185.181 51.1096 185.181 50.7432C185.181 49.7052 185.396 48.4229 185.61 47.0184L185.682 46.7131C186.254 43.4157 187.041 38.897 184.108 34.7448C181.89 31.5695 178.312 30.5925 176.165 30.0429C175.736 29.9208 175.235 29.7987 174.949 29.6766C174.376 29.0659 173.876 28.0279 173.375 26.8677C172.373 24.6694 171.013 21.6163 167.65 19.1127C165.647 17.6472 163.357 16.6702 160.567 16.0595C159.779 15.8763 158.921 15.7542 157.991 15.6321C157.633 15.571 157.203 15.51 156.846 15.51C156.345 15.4489 155.772 15.3878 155.272 15.3268L154.771 15.2657C153.268 15.0825 151.837 14.9604 150.907 14.594C149.69 14.1055 148.546 12.9453 147.186 11.5409C145.111 9.34262 142.463 6.65586 138.099 5.12929C136.524 4.57972 134.807 4.33547 132.947 4.33547C131.015 4.33547 129.226 4.64078 127.723 4.88503C127.008 5.00716 126.364 5.12929 125.791 5.19035C125.72 5.06822 125.577 4.9461 125.505 4.88503C124.861 4.21334 124.003 3.35846 123.001 2.62571C122.643 2.38146 122.357 2.13721 121.999 1.95402C121.212 1.46551 120.353 1.09914 119.423 0.793823C118.922 0.610634 118.421 0.488508 117.849 0.427446C116.776 0.244257 115.774 0.122131 114.701 0.122131C114.057 0.122131 113.413 0.183194 112.84 0.244257C109.763 0.549571 107.187 1.6487 105.184 2.56465C104.111 3.05315 103.037 3.48059 102.179 3.72484C101.892 3.60271 101.606 3.41953 101.32 3.23634C100.104 2.56465 98.4579 1.58764 96.3828 1.1602C95.9535 1.09914 95.4526 0.977011 95.0233 0.977011C94.3078 0.915948 93.5922 0.854886 92.8767 0.854886C83.2169 0.854886 76.9918 6.35054 71.983 10.7471C71.6968 10.9913 71.4106 11.2356 71.1244 11.4798C70.9812 11.4798 70.7666 11.4798 70.6235 11.4798C70.2657 11.4798 69.8364 11.4798 69.4786 11.4798C67.9044 11.4798 63.8259 11.4798 60.4628 14.3498C58.03 16.4259 56.9567 18.9295 56.0981 20.8835C55.8119 21.4941 55.5256 22.2879 55.1679 22.7764C54.023 22.9596 52.3057 23.265 50.5169 24.1809C49.372 24.7915 48.4418 25.5243 47.5832 26.5013C45.2219 29.1881 44.5779 32.1191 44.1486 34.5005C43.9339 35.6607 43.6477 36.8209 43.2899 37.4926C43.1468 37.5537 43.0753 37.5537 42.9322 37.6147L42.7175 37.6758C41.9304 37.92 41.0718 38.1643 40.1416 38.6528C37.4941 39.9351 35.7052 42.0723 34.8466 44.8812C34.4888 46.1635 34.2742 47.4458 34.3457 48.7892C34.3457 49.1556 34.4173 49.583 34.4173 49.9494C34.4888 50.3158 34.4888 50.6822 34.5604 51.0486C34.7035 51.6592 34.8466 52.2087 35.0613 52.9415C35.2044 53.3689 35.3475 53.7353 35.419 54.1628C35.8484 55.6283 36.1346 56.5442 36.063 57.338C36.063 57.338 36.063 57.3991 35.9915 57.4602C35.7052 57.8876 35.1328 58.4982 34.4888 59.1089L34.2742 59.231C34.0595 59.4752 33.8449 59.6584 33.6302 59.9027C31.9845 61.6735 29.9809 64.1771 29.337 67.7187C29.1939 68.3904 29.1939 69.0621 29.1939 69.6727C29.1939 73.0922 30.6965 76.0233 33.6302 78.2215C34.9182 79.1375 36.1346 79.7481 37.2079 80.2977C37.2794 80.3587 37.351 80.3587 37.4941 80.4198C37.4941 80.603 37.5656 80.7862 37.5656 81.0304C37.5656 81.2747 37.6372 81.58 37.6372 81.8853C37.6372 82.0074 37.6372 82.1295 37.6372 82.3127V82.6791C37.6372 82.8012 37.6372 82.9234 37.6372 83.0455C37.6372 83.4119 37.6372 83.5951 37.5656 83.7172C37.4225 84.0836 37.2794 84.4499 37.0648 84.7552C36.9932 84.8774 36.9217 84.9995 36.8501 85.1216L36.7786 85.1827C35.9915 86.7093 34.8466 88.7243 34.9182 91.6554C34.9182 92.327 34.9897 92.9987 35.1328 93.6704C36.1346 99.2271 40.6425 102.647 44.4348 105.028C44.5779 105.15 44.7926 105.272 45.0072 105.333C45.5081 105.639 46.0805 105.944 46.5814 106.249C46.9392 106.433 47.297 106.616 47.5832 106.86L48.084 107.165C49.0142 107.715 49.9444 108.203 50.8031 108.753C51.2324 108.997 51.5902 109.241 51.8764 109.486C52.0911 109.608 52.3057 109.791 52.5204 109.913C53.5937 110.707 54.023 111.134 54.0946 111.623C39.4976 120.904 28.8361 132.018 22.4678 144.78C19.9634 149.787 18.9617 157.481 20.035 164.259C20.8221 169.51 22.754 173.907 25.6162 177.265C23.8989 178.487 22.3247 180.013 21.0367 181.967C20.8221 182.212 20.6074 182.517 20.4643 182.822L20.3927 182.944C19.0332 184.593 17.9599 186.059 17.5306 187.646C17.459 187.951 17.1728 188.928 17.2444 191.554C17.0297 193.875 17.3159 196.195 17.9599 198.454C18.103 198.943 18.2461 199.37 18.3892 199.859C18.747 201.08 19.1048 202.179 19.6057 203.156C19.6772 203.278 19.7488 203.4 19.8203 203.522C17.1013 205.171 14.6684 206.82 13.452 207.675C13.0943 207.919 12.6649 208.224 12.3072 208.469C9.9459 209.751 8.30017 210.789 6.94065 211.827L6.72599 211.949C4.86559 213.354 2.86208 215.002 1.71722 216.956C-6.52075e-05 219.032 -0.357834 221.048 0.715472 223.063C1.64567 224.711 3.43451 225.871 5.43802 226.177C6.082 226.36 6.72599 226.421 7.36997 226.421C7.9424 226.421 8.44328 226.36 8.80104 226.299H8.8726C14.5253 226.36 19.6772 226.787 24.1135 227.154C28.6214 228.009 33.2724 228.803 36.7786 228.803C37.995 228.803 39.0683 228.68 40.07 228.497C40.6425 228.558 41.2149 228.558 41.7158 228.558C43.2899 228.741 45.0788 228.864 46.9392 228.864C50.66 228.864 59.4611 228.497 64.1121 225.261C66.8311 223.917 67.976 222.208 68.5484 220.742C68.62 220.742 68.62 220.742 68.6915 220.742L83.1454 221.963C83.2885 221.963 83.5031 222.025 83.6463 222.086C85.0773 222.452 86.5084 222.757 87.9395 222.94C87.4386 223.49 86.7946 224.162 86.2222 224.833C84.7911 226.177 83.5747 227.398 82.6445 228.375C82.1436 228.925 81.7859 229.291 81.4996 229.596C78.6375 232.894 80.3548 235.947 81.7859 237.168C83.0023 238.206 84.7196 238.817 86.5084 238.817H86.6515C87.2239 238.939 87.7964 239 88.3688 239C89.7999 239 90.9447 238.634 91.8749 238.145C94.7371 237.596 97.6708 236.252 100.962 234.726C101.606 234.42 102.393 234.054 102.68 233.932L102.894 233.871H102.966C103.61 233.688 104.182 233.504 104.826 233.321C108.332 232.711 113.27 231.734 118.064 230.39C118.421 230.329 118.851 230.268 119.352 230.207C119.423 230.207 119.495 230.207 119.566 230.207C119.638 230.207 119.709 230.207 119.781 230.207C121.784 230.695 123.931 230.94 126.221 230.94C128.51 230.94 130.586 230.695 132.589 230.512H132.661C133.949 230.634 135.308 230.757 136.739 230.879C140.031 231.184 143.751 231.489 147.544 231.795L147.973 231.856C150.048 232.283 152.195 232.772 154.341 233.138C155.343 233.321 156.345 233.382 157.49 233.382C158.635 233.382 159.779 233.321 160.71 233.199C161.067 233.199 161.354 233.138 161.711 233.138C162.427 233.138 163.142 233.199 163.786 233.199C165.861 233.504 168.008 233.688 170.226 233.688C175.02 233.688 180.172 232.955 185.109 231.55C188.115 230.879 190.834 230.024 193.123 228.986L193.267 228.925C196.773 227.337 199.492 225.261 201.209 222.757C201.209 222.696 201.281 222.696 201.281 222.635L220.028 223.856C220.171 223.856 220.385 223.856 220.529 223.856C223.462 223.856 226.11 222.147 226.754 219.643L227.04 218.727H227.111C228.328 218.727 229.473 218.483 230.546 217.994C231.977 217.323 233.122 216.285 233.838 214.941C234.267 214.147 234.482 213.354 234.482 212.499C235.197 211.888 235.769 211.216 236.127 210.423C236.771 209.201 236.914 207.858 236.628 206.576C236.557 206.27 236.485 205.965 236.342 205.721C238.274 204.499 239.633 202.851 240.42 200.836C240.993 199.37 241.136 197.844 240.921 196.378C241.279 196.073 241.637 195.706 241.923 195.34C242.496 194.607 242.782 193.814 242.996 193.02C243.14 192.165 243.14 191.31 242.925 190.516C242.853 190.333 242.853 190.211 242.782 190.028C242.925 189.905 242.996 189.783 243.14 189.6C243.712 188.867 244.07 188.135 244.213 187.28C244.356 186.547 244.356 185.753 244.213 185.02C244.571 184.288 244.785 183.555 244.785 182.761C244.857 181.662 244.571 180.624 243.998 179.708C244.642 178.792 245 177.754 245.071 176.716C245.071 176.044 244.928 175.311 244.642 174.579ZM114.629 5.49566C114.629 5.49566 114.701 5.49566 114.772 5.49566C114.844 5.49566 114.844 5.49566 114.915 5.49566H114.629ZM157.418 227.887C157.347 227.887 157.347 227.887 157.275 227.887H157.561C157.561 227.887 157.49 227.887 157.418 227.887ZM212.586 133.178C212.586 133.178 212.658 133.178 212.729 133.178C212.658 133.117 212.658 133.178 212.586 133.178ZM222.103 145.085C222.174 145.085 222.174 145.085 222.103 145.085V145.085ZM223.033 152.474C223.104 152.474 223.104 152.474 223.033 152.474V152.474ZM225.752 144.963C225.824 144.963 225.824 144.963 225.752 144.963V144.963ZM229.401 208.835H229.33C229.401 208.835 229.473 208.835 229.544 208.835C229.544 208.835 229.473 208.835 229.401 208.835ZM230.188 150.825C230.188 150.825 230.26 150.825 230.331 150.825H230.403H230.188ZM237.344 183.494C237.272 183.494 237.344 183.433 237.344 183.494V183.494Z" fill="white"/>
<path d="M58.6026 114.92C65.1856 103.624 42.6461 102.463 40.7857 92.266C40.1418 88.7243 42.1453 87.3199 43.0755 84.511C43.5763 83.0455 43.2186 79.1375 42.9324 77.672C42.1453 74.4356 33.9166 75.0463 35.0614 67.963C35.9201 62.9558 41.2151 61.1239 41.8591 57.3991C42.5746 53.1247 39.14 50.0105 40.428 45.4918C41.6444 41.4006 45.4367 42.9272 47.5834 40.4236C50.4455 37.1873 49.2291 32.3633 52.0912 29.127C54.0947 26.8677 56.8853 28.0279 58.7457 26.4402C61.4648 24.1198 61.5363 19.9065 64.3269 17.525C67.2606 15.0215 71.7685 17.4029 74.1298 15.4489C79.4963 10.8692 85.006 5.00716 93.664 5.73991C96.383 5.98416 98.6012 8.97624 101.893 8.5488C106.83 7.87711 110.479 4.15228 115.846 5.12928C119.423 5.80097 120.425 9.77006 123.502 10.0754C127.294 10.4417 131.301 8.36561 135.022 9.64793C140.603 11.5409 142.249 17.0365 147.615 19.0516C152.338 20.8224 158.42 19.5401 162.785 22.7764C166.792 25.7075 166.434 30.2261 169.94 33.2182C172.087 35.0501 176.237 34.6226 177.954 37.0652C180.888 41.2785 177.167 47.3848 178.312 52.0866C179.099 55.5061 182.319 56.9106 183.392 60.1469C184.394 63.2001 181.103 64.9709 181.675 67.9019C182.319 71.0772 186.326 71.8099 187.113 74.6188C188.043 78.1605 185.038 81.2747 184.68 84.5721C184.466 86.5871 185.324 88.2969 184.537 90.373C183.106 93.9757 178.026 95.7466 175.951 99.1661" fill="#FFDB1F"/>
<path d="M58.6026 114.92C65.1856 103.624 42.6461 102.463 40.7857 92.266C40.1418 88.7243 42.1453 87.3199 43.0755 84.511C43.5763 83.0455 43.2186 79.1375 42.9324 77.672C42.1453 74.4356 33.9166 75.0463 35.0614 67.963C35.9201 62.9558 41.2151 61.1239 41.8591 57.3991C42.5746 53.1247 39.14 50.0105 40.428 45.4918C41.6444 41.4006 45.4367 42.9272 47.5834 40.4236C50.4455 37.1873 49.2291 32.3633 52.0912 29.127C54.0947 26.8677 56.8853 28.0279 58.7457 26.4402C61.4648 24.1198 61.5363 19.9065 64.3269 17.525C67.2606 15.0215 71.7685 17.4029 74.1298 15.4489C79.4963 10.8692 85.006 5.00716 93.664 5.73991C96.383 5.98416 98.6012 8.97624 101.893 8.5488C106.83 7.87711 110.479 4.15228 115.846 5.12928C119.423 5.80097 120.425 9.77006 123.502 10.0754C127.294 10.4417 131.301 8.36561 135.022 9.64793C140.603 11.5409 142.249 17.0365 147.615 19.0516C152.338 20.8224 158.42 19.5401 162.785 22.7764C166.792 25.7075 166.434 30.2261 169.94 33.2182C172.087 35.0501 176.237 34.6226 177.954 37.0652C180.888 41.2785 177.167 47.3848 178.312 52.0866C179.099 55.5061 182.319 56.9106 183.392 60.1469C184.394 63.2001 181.103 64.9709 181.675 67.9019C182.319 71.0772 186.326 71.8099 187.113 74.6188C188.043 78.1605 185.038 81.2747 184.68 84.5721C184.466 86.5871 185.324 88.2969 184.537 90.373C183.106 93.9757 178.026 95.7466 175.951 99.1661" stroke="#2D1F04" stroke-width="2.62" stroke-miterlimit="10" stroke-linecap="round" stroke-linejoin="round"/>
<path d="M60.8923 164.442C59.1034 167.434 53.9516 173.296 50.4454 174.945C49.6583 175.311 45.0073 177.327 45.1505 178.181C45.222 178.67 52.8067 179.158 53.7369 179.403C58.6026 180.746 61.6794 182.639 65.7579 185.082" fill="#9D7B51"/>
<path d="M158.491 108.997C159.708 112.172 164.073 113.638 166.505 116.08C171.944 121.698 177.525 126.95 182.748 132.751C184.823 135.01 187.685 140.567 190.762 141.849" fill="#CAA77A"/>
<path d="M87.5103 30.7757C84.2188 30.7757 83.3602 27.9057 80.9273 27.4172C80.6411 27.3562 80.2118 27.4172 80.1402 27.6615C79.6394 28.6385 81.4282 35.2943 82.2869 35.2943C82.3584 35.2943 80.7127 32.6076 80.4265 32.5465C79.1385 32.3023 76.7772 32.8518 75.4177 32.6686C71.9116 32.2412 70.552 33.5846 67.189 34.1341C66.9028 34.1952 63.5398 34.5616 63.4682 34.5616C63.182 35.0501 64.6846 34.989 65.3286 34.989C66.2588 35.0501 70.7667 35.1722 71.1245 36.3324C71.3391 37.0041 68.477 37.3705 67.9761 37.4315C66.6881 37.6758 56.6706 40.9732 57.3862 42.1334C57.5293 42.3776 64.3269 42.3776 65.5433 42.3776C65.8295 42.3776 66.3304 42.3776 66.3304 42.3776C66.3304 42.3776 64.3269 42.744 63.3967 43.0493C61.3216 43.7821 59.6759 44.2095 58.1017 45.5529C57.4577 46.1025 57.0999 46.8352 56.5275 47.3848C56.3844 47.5069 55.8835 47.5069 56.0266 47.629C56.6706 48.1786 65.2571 45.614 66.0442 46.2856C66.4735 46.652 64.8277 46.7742 64.47 47.2016C63.9691 47.7512 63.4682 48.2397 62.8958 48.7892C60.8923 50.499 59.3181 52.3919 57.887 54.407C53.7369 60.3301 52.0912 64.3603 50.7317 71.0772C50.4454 72.7259 49.8015 74.9852 50.2308 76.6949C51.161 80.603 51.161 84.3889 52.5921 88.1748C53.5223 90.4951 55.5973 96.5404 56.9568 98.7386C60.1052 104.173 63.6113 106.738 62.1087 112.966C60.6776 119.073 57.7439 125.301 56.5991 131.468C55.5258 137.086 57.887 142.887 57.0999 148.566C56.3129 154.794 54.3809 160.901 51.805 166.824C50.517 169.816 48.0842 170.304 46.51 172.93C46.2238 173.48 44.6496 175.189 45.4367 175.861C45.7229 176.105 47.0824 175.922 46.7247 175.617C46.7247 175.617 41.0719 177.327 40.3564 177.449C34.2743 178.487 28.4784 179.403 25.5447 184.41C25.1154 185.143 23.1119 187.28 22.8257 188.379C22.5395 189.539 22.611 196.378 24.6145 200.591C25.0439 201.507 31.4121 204.438 31.4121 204.499C31.3406 204.805 27.9776 204.988 28.1207 205.415C28.6931 208.469 34.489 210.728 36.4925 212.804C38.1382 214.575 37.852 221.536 38.3529 221.841C42.1452 223.795 57.1715 223.063 59.7474 220.132C60.6776 219.032 62.8958 212.56 63.3967 212.193C63.6829 211.949 62.9673 214.086 63.2536 214.27C64.47 214.758 67.3321 213.781 68.6916 214.025C71.4822 214.514 75.6324 214.575 78.2798 214.941C79.6394 215.124 79.1385 214.758 80.5696 214.941C86.7232 215.796 88.5836 216.59 94.7372 217.506C95.3812 217.567 103.538 217.445 104.111 216.956C104.969 216.224 108.189 210.667 109.12 210.423C109.334 210.362 110.121 210.423 109.907 210.85C109.048 212.987 114.128 220.986 115.989 222.574C116.776 223.246 119.209 224.101 120.21 224.406C126.507 226.177 132.661 223.734 138.957 224.406C144.324 224.956 149.547 226.421 154.771 227.337C157.633 227.826 160.853 226.848 163.715 227.337C173.089 228.925 185.324 226.177 193.052 221.231C196.129 219.277 202.426 208.591 192.05 200.53C254.803 184.41 186.541 120.477 172.158 96.4182C169.726 92.327 168.795 88.2969 167.937 84.0225C167.221 80.2366 165.218 75.8401 163.429 72.2984C159.708 64.9709 154.27 58.7425 148.403 52.453C144.753 48.3007 140.245 45.1865 135.451 42.1334C128.654 37.7368 120.21 35.0501 111.839 33.1571C109.048 32.5465 106.329 31.9969 103.61 31.5084C102.68 31.3252 101.678 31.1421 100.748 31.0199C97.4563 30.4704 100.318 32.7297 99.6744 33.2793C99.0304 33.8288 96.7407 31.9359 94.7372 31.7527C92.7337 31.5695 93.3777 31.5084 88.0112 30.2872" fill="#CAA77A"/>
<path d="M56.0981 68.8789C57.7438 63.139 60.7491 60.8797 66.7596 59.9027C73.8434 58.8035 76.0616 49.6441 82.8592 49.3999C84.1472 49.3388 87.0809 48.7892 87.7248 47.8122C89.6568 44.698 85.2205 43.3546 87.4386 43.721C89.6568 44.0874 103.824 48.3007 108.619 48.7282C122.5 50.0105 135.451 52.3309 143.68 65.0319C145.54 67.9019 149.977 77.3666 148.045 84.6942C145.254 95.3802 143.751 99.8378 130.228 107.776C114.128 117.241 71.2675 114.432 61.3931 98.9218C61.6793 86.8314 53.0213 79.5649 56.0981 68.8789Z" fill="#FFDBAF"/>
<path d="M94.7372 83.6561C89.156 81.2747 82.7161 90.7394 82.5015 97.4563C81.9291 111.195 103.824 114.493 116.06 107.654C128.868 100.509 113.413 79.5038 103.681 82.8623" fill="#9D7B51"/>
<path d="M56.0267 66.2532C50.7317 76.0843 57.5293 95.8687 62.1088 99.7157C67.4753 98.2501 71.8401 96.3572 75.2747 94.0979C97.3848 79.7481 83.4318 52.3309 81.9292 51.0486C80.9274 50.1937 62.7528 59.7805 60.7492 60.0859C57.8871 60.5133 57.1 64.2381 56.0267 66.2532Z" fill="#9D7B51"/>
<path d="M110.765 50.499C100.676 91.9607 140.388 100.693 144.324 95.8076C146.828 92.6934 151.765 78.1605 145.254 68.3293C144.61 67.3523 135.666 56.4221 134.449 56.6053C124.718 57.9487 112.769 42.1944 110.765 50.499Z" fill="#9D7B51"/>
<path d="M194.555 39.5687C194.34 39.3855 194.197 39.1413 193.982 38.9581L194.555 39.5687Z" fill="#9D7B51"/>
<path d="M71.3385 115.714L71.2676 119.683" stroke="#9D7B51" stroke-width="3.87" stroke-miterlimit="10" stroke-linecap="round" stroke-linejoin="round"/>
<path d="M75.9179 117.729L75.8469 121.698" stroke="#9D7B51" stroke-width="3.87" stroke-miterlimit="10" stroke-linecap="round" stroke-linejoin="round"/>
<path opacity="0.23" d="M54.2378 48.1175C57.6008 48.1175 60.3914 47.3237 63.6113 46.7131C64.5415 46.5299 66.4019 45.675 66.4019 46.4688C66.4019 46.652 66.0442 46.591 65.8295 46.7131C63.0389 48.1175 60.8207 50.1326 59.175 52.6362C58.6026 53.4911 57.1715 55.8115 57.5293 55.2008C70.1943 35.7218 162.069 28.3942 156.774 107.593C156.703 108.326 155.701 109.486 156.488 109.73C158.134 110.218 160.352 102.586 162.427 103.257C163.357 103.563 169.654 93.7315 170.37 93.304C171.586 92.6323 170.012 94.7085 169.94 93.5483C168.366 72.5427 155.272 56.4221 137.169 42.9883C122.214 31.8748 100.962 31.081 100.39 30.9589C100.318 30.9589 98.1718 32.058 97.0985 31.8748C93.0915 31.3253 88.6551 30.0429 84.6481 29.0659C84.0042 28.9438 80.3549 26.5013 80.2118 26.6845C79.7825 27.4783 79.4963 31.7527 79.9256 32.3633C80.2118 32.7908 82.2153 32.1191 81.5713 32.1191C76.4195 32.1191 69.9796 33.5235 64.47 34.5005C64.2553 34.5616 63.8975 34.5616 63.8975 34.7448C63.8975 36.0882 71.0529 35.2333 71.0529 36.1492C71.0529 36.8209 61.107 39.2024 59.7474 40.1794C59.3181 40.4847 57.7439 41.5227 58.1017 41.8281C59.4612 42.9883 62.6811 41.5227 64.47 42.3166" fill="#3F2719"/>
<path d="M65.6148 46.1024C61.8224 48.2396 59.1749 51.476 57.0999 54.7734C49.4436 66.6806 49.229 77.0613 54.7386 93.304C55.955 96.9678 58.1016 100.387 60.0336 103.685C60.8207 105.028 61.894 106.494 62.1802 108.02C62.3233 108.753 61.8224 110.035 62.1802 110.646C62.3233 110.951 63.1104 109.913 63.1819 110.218C63.3966 111.623 63.1819 113.211 63.0388 114.554C62.9673 115.042 62.2517 116.447 62.6811 116.08C62.8242 115.958 63.2535 114.798 63.8259 114.981C64.1837 115.103 63.8259 122.492 63.6828 123.225" stroke="#2D1F04" stroke-width="2.62" stroke-miterlimit="10" stroke-linecap="round" stroke-linejoin="round"/>
<path d="M64.4698 46.5299C62.6094 47.3237 61.4646 47.3237 59.5326 47.8122C58.6024 48.0565 57.8869 48.3618 56.8851 48.4839C56.0265 48.6671 55.0963 48.7282 54.2376 48.9113C53.8799 49.0335 53.0928 49.522 53.0928 49.2167C53.0928 48.1786 62.9672 43.4768 64.8991 42.9272C65.1854 42.8661 65.6147 42.8661 65.6862 42.6219C65.8293 42.2555 64.9707 42.3166 64.5414 42.1944C62.681 41.767 58.2446 43.0493 56.6705 42.0723C56.2411 41.8281 59.6042 40.0572 59.7473 39.9962C61.8223 39.0192 63.8258 37.7368 66.1156 37.1873C67.4751 36.882 70.1941 37.6758 70.1941 36.5156C70.1941 35.1111 62.7525 35.5996 62.1801 35.1111C62.1085 35.0501 62.3948 34.989 62.5379 34.989C64.2552 34.2563 66.1156 33.7067 67.9044 33.3403C71.2674 32.6686 77.3495 31.9969 80.641 32.9129" stroke="#2D1F04" stroke-width="2.62" stroke-miterlimit="10" stroke-linecap="round" stroke-linejoin="round"/>
<path d="M81.2852 33.5235C80.2834 31.8748 78.5661 29.127 79.4963 27.234C79.5679 27.1119 80.2834 26.4402 80.4981 26.5623C81.1421 26.8677 81.643 27.8447 82.43 28.211C85.65 29.6766 89.2992 30.7146 92.8769 31.4474C95.0235 31.8748 97.1701 31.9969 99.2452 32.4244C99.746 32.4854 100.748 32.5465 100.748 32.5465C100.748 32.5465 97.8857 30.3482 98.959 29.9208C99.1736 29.8597 118.994 33.4625 127.867 37.859" stroke="#2D1F04" stroke-width="2.62" stroke-miterlimit="10" stroke-linecap="round" stroke-linejoin="round"/>
<path d="M107.259 48.4839C139.888 51.2317 148.617 72.5427 148.617 72.5427" stroke="#2D1F04" stroke-width="7.6" stroke-miterlimit="10" stroke-linecap="round" stroke-linejoin="round"/>
<path d="M83.5032 50.5601C54.6671 53.1858 49.229 81.0915 49.229 81.0915" stroke="#2D1F04" stroke-width="7.6" stroke-miterlimit="10" stroke-linecap="round" stroke-linejoin="round"/>
<path d="M90.8017 84.0225C90.7302 82.1906 94.8087 80.603 100.032 80.3587C105.256 80.1145 109.549 81.3968 109.692 83.2287C109.763 85.0606 105.685 86.6482 100.461 86.8924C95.1665 87.1367 90.8733 85.8544 90.8017 84.0225Z" fill="#251707"/>
<path d="M121.069 23.5703C121.069 23.5092 121.14 23.5092 121.212 23.5092C121.284 23.5092 121.355 23.5703 121.355 23.5703C121.355 23.6313 121.284 23.6313 121.212 23.6313C121.14 23.6924 121.069 23.6313 121.069 23.5703Z" fill="#2D1F04"/>
<path d="M122.5 73.825C122.285 73.825 121.999 73.7639 121.784 73.7639L122.5 73.825Z" fill="#2D1F04"/>
<path d="M134.664 40.6679C133.519 38.1643 136.811 32.1801 138.743 30.6535" stroke="#2D1F04" stroke-width="2.62" stroke-miterlimit="10" stroke-linecap="round" stroke-linejoin="round"/>
<path d="M147.973 50.499C146.828 47.9954 148.617 40.8511 154.484 38.4696" stroke="#2D1F04" stroke-width="2.62" stroke-miterlimit="10" stroke-linecap="round" stroke-linejoin="round"/>
<path d="M159.35 63.0779C162.642 63.3222 164.359 62.2841 167.507 60.269L159.35 63.0779Z" fill="#689BD4"/>
<path d="M159.35 63.0779C162.642 63.3222 164.359 62.2841 167.507 60.269" stroke="#2D1F04" stroke-width="2.62" stroke-miterlimit="10" stroke-linecap="round" stroke-linejoin="round"/>
<path d="M166.076 75.4126C167.722 75.5348 170.298 75.4737 172.444 74.7409L166.076 75.4126Z" fill="#689BD4"/>
<path d="M166.076 75.4126C167.722 75.5348 170.298 75.4737 172.444 74.7409" stroke="#2D1F04" stroke-width="2.62" stroke-miterlimit="10" stroke-linecap="round" stroke-linejoin="round"/>
<path d="M121.498 35.2333C117.491 33.0961 118.422 24.9747 121.713 20.9446" stroke="#2D1F04" stroke-width="2.62" stroke-miterlimit="10" stroke-linecap="round" stroke-linejoin="round"/>
<path d="M100.461 29.7376C96.8838 26.0738 92.7337 24.7915 94.3078 13.8613" stroke="#2D1F04" stroke-width="2.62" stroke-miterlimit="10" stroke-linecap="round" stroke-linejoin="round"/>
<path d="M56.2411 55.6893C54.1661 55.5061 49.5866 55.323 46.2952 53.7353L56.2411 55.6893Z" fill="#689BD4"/>
<path d="M56.2411 55.6893C54.1661 55.5061 49.5866 55.323 46.2952 53.7353" stroke="#2D1F04" stroke-width="2.62" stroke-miterlimit="10" stroke-linecap="round" stroke-linejoin="round"/>
<path d="M50.7316 83.6561C50.5885 84.9995 49.3721 86.7092 45.9375 87.442L50.7316 83.6561Z" fill="#689BD4"/>
<path d="M50.7316 83.6561C50.5885 84.9995 49.3721 86.7092 45.9375 87.442" stroke="#2D1F04" stroke-width="2.62" stroke-miterlimit="10" stroke-linecap="round" stroke-linejoin="round"/>
<path d="M53.5937 91.2279C52.8066 92.266 52.8781 94.4642 48.728 95.8076L53.5937 91.2279Z" fill="#689BD4"/>
<path d="M53.5937 91.2279C52.8066 92.266 52.8781 94.4642 48.728 95.8076" stroke="#2D1F04" stroke-width="2.62" stroke-miterlimit="10" stroke-linecap="round" stroke-linejoin="round"/>
<path d="M86.3653 18.0135C86.2222 22.6543 87.0093 27.9057 93.6638 31.4474" stroke="#2D1F04" stroke-width="2.62" stroke-miterlimit="10" stroke-linecap="round" stroke-linejoin="round"/>
<path d="M128.797 30.7757C127.795 33.2182 126.507 36.8209 130.228 38.836" stroke="#2D1F04" stroke-width="2.62" stroke-miterlimit="10" stroke-linecap="round" stroke-linejoin="round"/>
<path d="M153.053 56.1778C152.553 47.7512 158.635 44.0874 163.5 42.0723" stroke="#2D1F04" stroke-width="2.62" stroke-miterlimit="10" stroke-linecap="round" stroke-linejoin="round"/>
<path d="M170.083 86.8314C170.083 86.7093 173.017 88.0526 175.45 87.5641L170.083 86.8314Z" fill="#689BD4"/>
<path d="M170.083 86.8314C170.083 86.7093 173.017 88.0526 175.45 87.5641" stroke="#2D1F04" stroke-width="2.62" stroke-miterlimit="10" stroke-linecap="round" stroke-linejoin="round"/>
<path d="M99.8176 87.0756C99.102 96.2961 108.976 90.4341 109.62 100.021" stroke="#2D1F04" stroke-width="3.05" stroke-miterlimit="10" stroke-linecap="round" stroke-linejoin="round"/>
<path d="M112.697 30.4093C112.483 30.2261 112.339 29.9819 112.125 29.7987L112.697 30.4093Z" fill="#9D7B51"/>
<path d="M72.627 68.4515C77.4211 68.4515 81.285 71.7489 81.285 75.779V76.2675C81.285 80.2977 77.4211 83.5951 72.627 83.5951C67.8329 83.5951 63.969 80.2977 63.969 76.2675V75.779C63.969 71.6878 67.8329 68.4515 72.627 68.4515Z" fill="white"/>
<path d="M72.627 68.4515C77.4211 68.4515 81.285 71.7489 81.285 75.779V76.2675C81.285 80.2977 77.4211 83.5951 72.627 83.5951C67.8329 83.5951 63.969 80.2977 63.969 76.2675V75.779C63.969 71.6878 67.8329 68.4515 72.627 68.4515Z" stroke="#2D1F04" stroke-width="2.6" stroke-miterlimit="10" stroke-linecap="round" stroke-linejoin="round"/>
<path d="M127.723 69.7338C132.518 69.7338 136.381 73.0312 136.381 77.0613V77.5498C136.381 81.58 132.518 84.8774 127.723 84.8774C122.929 84.8774 119.065 81.58 119.065 77.5498V77.0613C119.065 72.9701 122.929 69.7338 127.723 69.7338Z" fill="white"/>
<path d="M127.723 69.7338C132.518 69.7338 136.381 73.0312 136.381 77.0613V77.5498C136.381 81.58 132.518 84.8774 127.723 84.8774C122.929 84.8774 119.065 81.58 119.065 77.5498V77.0613C119.065 72.9701 122.929 69.7338 127.723 69.7338Z" stroke="#2D1F04" stroke-width="2.6" stroke-miterlimit="10" stroke-linecap="round" stroke-linejoin="round"/>
<path d="M70.7666 75.9011C70.7666 74.8631 71.6968 74.0082 72.8417 74.0082C73.9865 74.0082 74.9167 74.8631 74.9167 75.9011C74.9167 76.9392 73.9865 77.7941 72.8417 77.7941C71.6968 77.733 70.7666 76.8781 70.7666 75.9011Z" fill="#2D1F04"/>
<path d="M87.8679 11.4188C87.8679 10.3807 88.7981 9.5258 89.943 9.5258C91.0878 9.5258 92.018 10.3807 92.018 11.4188C92.018 12.4568 91.0878 13.3117 89.943 13.3117C88.7981 13.3117 87.8679 12.4568 87.8679 11.4188Z" fill="white"/>
<path d="M111.266 11.2966C111.266 10.2586 112.196 9.40369 113.341 9.40369C114.486 9.40369 115.416 10.2586 115.416 11.2966C115.416 12.3347 114.486 13.1896 113.341 13.1896C112.196 13.1896 111.266 12.3347 111.266 11.2966Z" fill="white"/>
<path d="M132.661 15.4489C132.661 14.4108 133.591 13.556 134.736 13.556C135.881 13.556 136.811 14.4108 136.811 15.4489C136.811 16.487 135.881 17.3418 134.736 17.3418C133.591 17.2808 132.661 16.4259 132.661 15.4489Z" fill="white"/>
<path d="M155.987 26.8066C155.987 25.7685 156.917 24.9137 158.062 24.9137C159.207 24.9137 160.137 25.7685 160.137 26.8066C160.137 27.8447 159.207 28.6995 158.062 28.6995C156.989 28.6995 155.987 27.8447 155.987 26.8066Z" fill="white"/>
<path d="M169.797 41.2174C169.797 40.1794 170.727 39.3245 171.872 39.3245C173.017 39.3245 173.947 40.1794 173.947 41.2174C173.947 42.2555 173.017 43.1104 171.872 43.1104C170.727 43.1104 169.797 42.2555 169.797 41.2174Z" fill="white"/>
<path d="M175.092 60.269C175.092 59.231 176.022 58.3761 177.167 58.3761C178.312 58.3761 179.242 59.231 179.242 60.269C179.242 61.3071 178.312 62.162 177.167 62.162C176.022 62.1009 175.092 61.3071 175.092 60.269Z" fill="white"/>
<path d="M179.385 76.5118C179.385 75.4737 180.315 74.6188 181.46 74.6188C182.605 74.6188 183.535 75.4737 183.535 76.5118C183.535 77.5498 182.605 78.4047 181.46 78.4047C180.315 78.4047 179.385 77.5498 179.385 76.5118Z" fill="white"/>
<path d="M65.6863 22.7154C65.6863 21.6773 66.6165 20.8224 67.7613 20.8224C68.9062 20.8224 69.8364 21.6773 69.8364 22.7154C69.8364 23.7535 68.9062 24.6083 67.7613 24.6083C66.6165 24.6083 65.6863 23.7535 65.6863 22.7154Z" fill="white"/>
<path d="M53.3792 33.2182C53.3792 32.1801 54.3094 31.3252 55.4542 31.3252C56.5991 31.3252 57.5293 32.1801 57.5293 33.2182C57.5293 34.2563 56.5991 35.1111 55.4542 35.1111C54.3094 35.1111 53.3792 34.2563 53.3792 33.2182Z" fill="white"/>
<path d="M44.7927 48.7282C44.7927 47.6901 45.7229 46.8352 46.8678 46.8352C48.0126 46.8352 48.9428 47.6901 48.9428 48.7282C48.9428 49.7662 48.0126 50.6211 46.8678 50.6211C45.7229 50.6211 44.7927 49.7662 44.7927 48.7282Z" fill="white"/>
<path d="M39.2114 69.1231C39.2114 68.0851 40.1416 67.2302 41.2865 67.2302C42.4313 67.2302 43.3615 68.0851 43.3615 69.1231C43.3615 70.1612 42.4313 71.0161 41.2865 71.0161C40.1416 71.0161 39.2114 70.1612 39.2114 69.1231Z" fill="white"/>
<path d="M44.7212 91.9606C44.7212 90.9226 45.6514 90.0677 46.7963 90.0677C47.9411 90.0677 48.8713 90.9226 48.8713 91.9606C48.8713 92.9987 47.9411 93.8536 46.7963 93.8536C45.6514 93.7925 44.7212 92.9376 44.7212 91.9606Z" fill="white"/>
<path d="M125.792 76.8781C125.792 75.8401 126.722 74.9852 127.867 74.9852C129.011 74.9852 129.942 75.8401 129.942 76.8781C129.942 77.9162 129.011 78.7711 127.867 78.7711C126.793 78.71 125.792 77.8552 125.792 76.8781Z" fill="#2D1F04"/>
<path d="M133.448 152.901C133.448 151.863 134.378 151.008 135.523 151.008C136.668 151.008 137.598 151.863 137.598 152.901C137.598 153.939 136.668 154.794 135.523 154.794C134.45 154.794 133.448 153.939 133.448 152.901Z" fill="#2D1F04"/>
<path d="M82.1438 148.932C82.1438 147.894 83.074 147.039 84.2189 147.039C85.3637 147.039 86.2939 147.894 86.2939 148.932C86.2939 149.97 85.3637 150.825 84.2189 150.825C83.074 150.764 82.1438 149.97 82.1438 148.932Z" fill="#2D1F04"/>
<path d="M28.0492 205.232C24.543 208.224 14.8117 212.071 10.4469 215.369C9.23052 216.285 6.15371 218.544 6.29682 220.132C6.36837 220.62 6.7977 220.437 7.08391 220.376C10.5185 220.071 15.6704 219.765 19.1049 220.254C22.468 220.742 36.5641 224.162 38.7822 222.33C39.784 221.536 39.4262 220.193 39.2115 219.216C38.2813 213.964 34.3459 210.545 30.1958 206.82C29.5518 206.27 28.6216 204.744 28.0492 205.232Z" fill="#D2D2D2"/>
<path d="M108.261 212.01L91.0879 227.215L87.7249 232.955C87.7964 233.016 89.2275 232.222 89.2275 232.222C92.3043 230.512 98.3864 228.192 102.107 227.52C106.615 226.726 111.695 225.688 115.989 224.467C116.275 224.406 117.849 224.406 117.706 223.917C116.418 219.826 108.261 212.01 108.261 212.01Z" fill="#D2D2D2"/>
<path d="M132.374 193.936C132.16 194.18 132.947 193.691 133.233 193.569C134.521 193.081 135.881 193.203 137.24 193.203C139.601 193.203 147.472 194.913 148.188 197.355C148.402 198.149 142.392 205.049 141.462 206.148C139.458 208.469 141.104 214.208 139.172 215.857C139.1 215.918 135.237 212.56 134.95 212.254C131.874 208.774 129.584 205.293 130.514 200.591C130.8 199.065 130.586 197.416 130.943 195.89C131.015 195.279 132.947 193.264 132.374 193.936Z" fill="#D2D2D2"/>
<path d="M168.938 87.7473C142.535 132.445 105.184 133.972 105.613 134.46C106.543 135.498 142.249 132.629 169.654 95.0748C171.3 92.7545 170.942 84.2667 168.938 87.7473Z" fill="#689BD4"/>
<path d="M35.8484 177.51C23.3265 172.869 23.8989 153.817 27.6197 146.368C37.6372 126.339 57.6007 113.027 80.1402 103.807C91.5172 99.1661 106.901 96.6625 106.901 96.9067C106.901 97.2731 102.536 99.1661 101.964 99.4714C98.5295 100.937 93.5207 103.868 92.7336 107.349C92.2328 109.364 94.2363 112.234 93.5923 114.676C92.519 118.462 87.6533 120.05 85.1489 122.858C82.9308 125.362 80.9988 128.354 79.3531 131.163C70.552 146.001 53.3791 184.043 35.8484 177.51Z" fill="#CAA77A"/>
<path d="M81.142 104.479C80.1403 105.15 83.861 106.371 84.8628 107.348C86.3654 108.814 87.3672 111.745 88.1543 113.638C88.7983 115.226 89.0845 116.996 89.4422 118.584C89.5138 118.889 89.0845 120.477 89.5853 120.416C90.7302 120.233 91.1595 119.256 92.0182 118.706C98.2434 114.737 91.3026 107.654 95.5959 104.051C96.7407 103.074 106.114 98.4944 106.114 98.2501C106.114 97.4563 100.819 98.3112 100.318 98.4944C94.0217 100.571 86.437 100.998 81.142 104.479Z" fill="#D2D2D2"/>
<path d="M60.2481 164.259C61.393 164.259 58.2446 168.411 57.386 169.633C54.8816 173.235 50.7315 174.518 47.44 177.265C47.2969 177.388 46.2952 177.876 46.2952 178.12C46.4383 178.914 52.735 178.487 53.6652 178.792C58.6024 180.319 63.6827 183.127 66.7595 186.73C68.9062 189.234 68.2622 192.043 68.4768 194.852C68.5484 196.134 70.695 198.271 71.1959 199.676C71.6252 200.714 70.4088 201.691 70.695 202.668C71.8399 206.698 77.9935 213.781 82.4298 215.674C84.7911 216.712 100.39 217.994 100.819 217.689C106.83 213.903 112.268 209.629 118.207 205.843C119.28 205.171 129.655 201.08 129.798 200.897C131.802 197.966 130.013 193.691 135.451 191.737C138.313 190.699 143.25 191.859 146.399 191.737C155.772 191.31 163.429 186.242 168.652 179.952C170.727 177.388 173.446 175.678 173.231 172.197C173.088 169.327 171.8 166.213 172.301 163.343C172.373 162.977 172.516 162.916 172.087 162.732C170.799 162.366 169.368 164.381 168.581 165.053C167.436 166.03 165.361 166.457 163.858 166.946C156.989 169.205 148.903 171.587 141.533 171.892C139.53 171.953 137.455 173.419 135.38 173.48C131.444 173.663 126.793 173.785 123.001 172.625C120.854 171.953 121.927 169.816 120.282 169.388C113.269 167.434 105.112 166.763 97.7423 165.847C93.3775 165.297 88.655 164.931 84.3618 165.847C81.5712 166.396 78.2081 166.885 75.6322 168.106C75.4891 168.167 74.702 168.595 74.5589 168.533C73.9149 168.045 73.3425 167.801 72.2692 167.556C69.5501 166.946 65.6147 166.641 63.1819 165.419C62.1801 164.931 60.9637 164.87 59.8904 164.748C59.5326 164.687 58.674 164.625 58.9602 164.503C59.3895 164.32 59.8188 164.259 60.2481 164.259Z" fill="white"/>
<path d="M80.5696 104.295C80.5696 105.517 89.3707 109.364 89.3707 120.172" stroke="#2D1F04" stroke-width="2.62" stroke-miterlimit="10" stroke-linecap="round" stroke-linejoin="round"/>
<path d="M106.043 98.128C102.68 99.5935 88.655 107.776 87.0093 110.646L106.043 98.128Z" fill="#CAA77A"/>
<path d="M106.043 98.128C102.68 99.5935 88.655 107.776 87.0093 110.646" stroke="#2D1F04" stroke-width="2.62" stroke-miterlimit="10" stroke-linecap="round" stroke-linejoin="round"/>
<path d="M93.95 110.829C93.6638 110.707 88.7981 114.737 88.7981 114.737L93.95 110.829Z" fill="#CAA77A"/>
<path d="M93.95 110.829C93.6638 110.707 88.7981 114.737 88.7981 114.737" stroke="#2D1F04" stroke-width="2.62" stroke-miterlimit="10" stroke-linecap="round" stroke-linejoin="round"/>
<path d="M36.8501 177.754C24.3282 173.113 24.9006 154.062 28.6214 146.612C38.639 126.583 58.6025 113.272 81.1419 104.051C92.5189 99.4103 107.903 96.9068 107.903 97.151C107.903 97.5174 103.538 99.4103 102.966 99.7156C99.5312 101.181 94.5224 104.112 93.7353 107.593C93.306 109.608 95.238 112.478 94.594 114.92C93.5207 118.706 88.655 120.294 86.1506 123.103C83.9325 125.606 82.0005 128.598 80.3548 131.407C71.6252 146.246 54.4523 184.227 36.8501 177.754Z" stroke="#2D1F04" stroke-width="2.62" stroke-miterlimit="10" stroke-linecap="round" stroke-linejoin="round"/>
<path d="M38.9252 178.365C26.8327 178.365 19.8204 189.051 24.0421 198.149C25.1154 200.408 26.0456 202.545 28.7646 203.706" stroke="#2D1F04" stroke-width="2.62" stroke-miterlimit="10" stroke-linecap="round" stroke-linejoin="round"/>
<path d="M43.1469 201.08C27.4051 200.897 4.22168 220.254 5.79586 220.254C28.7646 220.254 46.7962 225.505 58.2448 220.62C62.9673 218.605 64.613 212.254 62.0371 207.919" stroke="#2D1F04" stroke-width="2.62" stroke-miterlimit="10" stroke-linecap="round" stroke-linejoin="round"/>
<path d="M63.3967 214.331C67.3322 214.331 80.4981 214.453 84.2189 216.101" stroke="#2D1F04" stroke-width="2.62" stroke-miterlimit="10" stroke-linecap="round" stroke-linejoin="round"/>
<path d="M130.013 200.286C122.858 203.339 117.134 206.331 110.694 210.484C102.966 215.43 85.4353 232.527 85.7215 232.772C86.5086 233.443 105.971 224.711 120.854 223.918C131.731 223.368 180.029 231.611 192.193 222.025C204.358 212.438 196.988 201.996 189.474 199.737C169.225 193.569 148.689 197.722 148.546 198.027" stroke="#2D1F04" stroke-width="2.62" stroke-miterlimit="10" stroke-linecap="round" stroke-linejoin="round"/>
<path d="M170.083 92.5102C171.729 106.677 258.237 181.967 192.48 199.92" stroke="#2D1F04" stroke-width="2.62" stroke-miterlimit="10" stroke-linecap="round" stroke-linejoin="round"/>
<path d="M157.061 139.406C168.294 148.993 179.886 166.824 168.795 180.135C164.287 185.57 158.635 190.699 150.764 192.043C144.324 193.142 138.027 189.051 132.303 193.936C127.938 197.66 131.301 205.965 133.877 209.69C134.664 210.789 139.244 215.43 139.244 215.43C139.244 215.43 141.82 200.408 148.259 198.149" stroke="#2D1F04" stroke-width="2.62" stroke-miterlimit="10" stroke-linecap="round" stroke-linejoin="round"/>
<path d="M84.8628 124.629C86.6516 126.889 92.7337 132.506 102.608 134.766" stroke="#2D1F04" stroke-width="2.62" stroke-miterlimit="10" stroke-linecap="round" stroke-linejoin="round"/>
<path d="M86.0791 123.286C87.8679 125.545 94.0931 132.629 103.968 134.827" stroke="#2D1F04" stroke-width="2.62" stroke-miterlimit="10" stroke-linecap="round" stroke-linejoin="round"/>
<path d="M105.255 135.132C105.112 135.132 104.969 135.132 104.826 135.132" stroke="#2D1F04" stroke-width="2.62" stroke-miterlimit="10" stroke-linecap="round" stroke-linejoin="round"/>
<path d="M104.612 135.498C100.676 134.094 90.0146 143.986 94.594 145.696C97.6709 146.795 102.322 139.834 103.109 137.514C103.252 137.025 103.896 135.498 104.898 135.987C105.9 136.414 105.828 137.819 105.828 138.552C105.828 141.605 105.399 145.207 108.118 147.467C109.907 148.993 112.482 146.246 112.196 144.719C111.624 141.177 108.475 136.842 104.612 135.498Z" stroke="#2D1F04" stroke-width="2.62" stroke-miterlimit="10" stroke-linecap="round" stroke-linejoin="round"/>
<path d="M105.542 135.254C102.823 138.979 100.032 154.428 101.749 158.824" stroke="#2D1F04" stroke-width="2.62" stroke-miterlimit="10" stroke-linecap="round" stroke-linejoin="round"/>
<path d="M105.113 136.048C101.606 141.971 107.617 154.794 112.697 159.13" stroke="#2D1F04" stroke-width="2.62" stroke-miterlimit="10" stroke-linecap="round" stroke-linejoin="round"/>
<path d="M117.563 171.77C144.395 176.288 170.083 164.564 172.373 162.61" stroke="#2D1F04" stroke-width="2.62" stroke-miterlimit="10" stroke-linecap="round" stroke-linejoin="round"/>
<path d="M60.3198 164.442C61.9656 165.541 73.4857 167.74 76.4194 167.74" stroke="#2D1F04" stroke-width="2.62" stroke-miterlimit="10" stroke-linecap="round" stroke-linejoin="round"/>
<path d="M121.284 171.22C121.284 172.136 121.57 170.243 121.284 169.877C120.783 169.205 119.423 168.717 118.565 168.533C114.915 167.618 80.498 160.473 73.5573 170.854C64.6846 184.043 68.9778 206.637 78.9953 213.781C84.3619 217.567 94.0932 217.75 100.676 217.75" stroke="#2D1F04" stroke-width="2.62" stroke-miterlimit="10" stroke-linecap="round" stroke-linejoin="round"/>
<path d="M116.919 171.892C105.971 178.12 106.472 197.844 115.488 207.125" stroke="#2D1F04" stroke-width="2.62" stroke-miterlimit="10" stroke-linecap="round" stroke-linejoin="round"/>
<path d="M115.488 167.74C82.3584 165.419 74.6306 215.491 90.2293 217.139" stroke="#2D1F04" stroke-width="2.62" stroke-miterlimit="10" stroke-linecap="round" stroke-linejoin="round"/>
<path d="M113.985 175.678C132.374 178.609 148.402 176.777 157.848 174.396" stroke="#2D1F04" stroke-width="2.62" stroke-miterlimit="10" stroke-linecap="round" stroke-linejoin="round"/>
<path d="M58.1017 168.106C58.0302 167.801 63.7545 169.938 67.9046 170.426" stroke="#2D1F04" stroke-width="2.62" stroke-miterlimit="10" stroke-linecap="round" stroke-linejoin="round"/>
<path d="M45.9375 177.51C56.2412 178.731 64.1837 182.334 68.3338 187.28" stroke="#2D1F04" stroke-width="2.62" stroke-miterlimit="10" stroke-linecap="round" stroke-linejoin="round"/>
<path d="M133.09 193.508C137.741 192.165 145.898 193.691 148.259 197.721" stroke="#2D1F04" stroke-width="2.62" stroke-miterlimit="10" stroke-linecap="round" stroke-linejoin="round"/>
<path d="M140.389 193.325C131.444 195.89 135.165 209.568 138.027 214.392" stroke="#2D1F04" stroke-width="2.62" stroke-miterlimit="10" stroke-linecap="round" stroke-linejoin="round"/>
<path d="M28.55 205.477C33.1295 209.201 39.14 215.002 38.4245 221.841" stroke="#2D1F04" stroke-width="2.62" stroke-miterlimit="10" stroke-linecap="round" stroke-linejoin="round"/>
<path d="M7.58472 219.46C13.4521 215.308 25.4016 209.873 33.3441 210.484" stroke="#2D1F04" stroke-width="2.62" stroke-miterlimit="10" stroke-linecap="round" stroke-linejoin="round"/>
<path d="M9.15894 218.788C18.604 219.521 28.1207 215.613 37.5658 216.346" stroke="#2D1F04" stroke-width="2.62" stroke-miterlimit="10" stroke-linecap="round" stroke-linejoin="round"/>
<path d="M109.191 212.071C111.409 215.491 112.84 220.925 118.779 224.223" stroke="#2D1F04" stroke-width="2.62" stroke-miterlimit="10" stroke-linecap="round" stroke-linejoin="round"/>
<path d="M88.7266 230.757C95.9535 225.627 103.18 221.17 112.053 218.178" stroke="#2D1F04" stroke-width="2.62" stroke-miterlimit="10" stroke-linecap="round" stroke-linejoin="round"/>
<path opacity="0.23" d="M158.42 108.509C231.548 163.893 206.075 189.6 194.34 193.325C180.673 197.722 177.74 195.096 171.371 196.012C169.654 196.256 166.219 196.439 166.219 196.439C166.219 196.439 175.45 195.401 177.74 198.088C188.115 210.667 168.724 217.506 157.204 204.744C154.556 201.813 150.478 197.111 147.186 198.943C141.247 202.24 141.533 214.636 138.743 214.697C135.881 214.758 131.015 205.476 130.085 199.431C119.996 202.545 108.118 210.362 93.807 224.162C93.5208 224.467 86.5085 231.55 87.4387 232.1C89.7284 233.382 97.2415 229.108 99.3882 228.314C108.332 225.078 118.064 221.719 127.509 223.307C130.371 223.795 143.251 224.711 146.327 225.383C158.134 227.887 192.336 229.352 195.986 217.017C197.345 212.377 201.138 209.507 191.836 200.347C190.977 199.492 192.336 200.653 192.336 199.492C192.336 199.004 204 195.218 205.288 194.302C213.302 188.44 214.59 182.395 216.522 174.029C220.958 155.222 193.124 123.53 180.602 110.157C176.165 105.394 174.448 100.876 171.3 95.5634C171.157 95.2581 168.938 94.5253 168.581 94.5253C165.862 94.6474 159.923 108.814 158.42 108.509Z" fill="#3F2719"/>
<path opacity="0.23" d="M27.262 183.433C27.5482 182.761 26.2602 184.593 25.9025 185.204C25.1154 186.608 25.1869 188.684 25.7594 190.15C27.3335 194.119 33.201 196.5 37.7088 197.355C47.8695 199.248 60.7491 188.013 67.833 190.15C70.0511 190.821 70.4089 198.454 71.196 200.469C75.7754 212.193 95.3096 213.537 103.252 211.522C110.98 209.568 129.512 201.202 130.085 200.591C132.374 198.149 129.798 194.119 134.306 193.813C152.409 192.714 181.818 188.257 157.275 141.055C156.059 138.735 171.514 156.199 171.872 159.985C172.945 172.564 174.52 178.67 162.856 186.974C160.567 188.562 157.275 191.249 154.055 191.554C146.9 192.226 146.471 192.104 131.802 193.813C128.153 194.241 130.8 198.637 129.87 200.897C129.727 201.263 123.43 203.095 122.428 203.767C120.64 205.049 101.749 217.567 101.249 217.628C92.5906 218.422 70.0511 212.682 63.8259 215.552C60.3198 217.201 63.9691 218.91 58.8172 220.62C49.5868 223.673 29.8379 221.17 20.2497 220.437C18.2462 220.254 10.59 220.315 9.58822 218.788C8.08559 216.407 26.1171 204.561 30.0526 204.072C30.3388 204.011 27.906 204.377 27.906 204.072C28.1206 202.179 26.8327 201.874 25.4016 200.408C20.6075 195.34 24.9723 188.074 27.262 183.433Z" fill="#3F2719"/>
<path opacity="0.23" d="M119.28 171.709C120.783 172.197 116.847 173.602 116.275 174.823C115.058 177.204 115.13 180.929 115.345 183.494C115.845 189.173 119.709 194.974 124.575 198.699C124.933 199.004 127.223 200.836 127.008 201.202C126.364 202.545 117.42 206.942 115.631 206.392C103.037 202.729 106.186 167.556 119.28 171.709Z" fill="#3F2719"/>
<path opacity="0.23" d="M60.3914 164.87C64.4699 164.625 67.6183 166.946 71.7684 167.984C73.5573 168.411 77.6358 168.595 75.7754 168.472C72.9848 168.228 68.5485 178.487 68.3338 180.074C68.1192 181.845 69.6218 185.448 67.6183 185.265C66.545 185.204 53.3791 178.426 49.3006 177.449C48.7997 177.327 48.0841 177.327 47.7979 177.021C46.8677 176.105 52.3058 173.296 52.8782 172.808C55.6688 170.426 56.6706 165.114 60.3914 164.87Z" fill="#3F2719"/>
<path opacity="0.23" d="M112.769 167.373C84.8628 170.304 84.2189 209.69 83.6464 209.14C83.5033 208.957 83.2171 204.927 82.8593 202.179C81.5714 191.737 89.5854 175.006 108.404 168.533" fill="#3F2719"/>
<path opacity="0.23" d="M80.2118 130.552C57.0284 178.181 32.9864 171.892 27.3336 157.786C26.3319 157.725 28.1923 166.03 28.2638 166.946C29.3371 175.311 46.51 191.615 67.4753 154.306" fill="#3F2719"/>
<path opacity="0.23" d="M105.542 98.6776C103.896 98.0669 102.68 100.509 101.678 101.609C99.889 103.502 98.2433 106.249 98.7442 108.936C99.1735 111.012 100.962 114.676 99.5313 116.691C97.5278 119.561 93.4492 121.759 90.7301 124.019C86.7231 127.438 84.0041 132.262 81.929 136.659C81.3566 137.819 79.9971 141.91 78.4229 146.368C76.6341 151.436 74.4874 156.993 72.8417 159.557C71.6253 161.45 69.6933 164.931 67.3321 165.908C66.4019 166.274 61.5362 163.893 61.8224 163.282C63.2535 159.985 66.3303 157.481 67.8329 154.245C70.1227 149.299 72.1977 144.719 74.9883 139.956C77.4927 135.621 79.9971 131.652 82.9308 127.499C83.7894 126.217 84.0756 124.629 85.2205 123.469C87.1525 121.393 94.3794 117.668 94.9518 115.714C95.882 112.539 92.0897 108.875 93.5207 105.883C94.8803 102.952 98.3148 101.609 101.463 100.448C102.179 100.265 106.257 98.9829 105.542 98.6776Z" fill="#3F2719"/>
<path opacity="0.23" d="M169.368 89.0296C169.869 64.2992 159.565 25.4022 111.194 21.7994C33.7733 15.9374 54.2377 96.4182 56.3843 99.105C57.6007 100.632 58.9602 102.158 60.1766 103.685C60.3913 103.99 60.9637 104.479 60.9637 104.479C60.9637 104.479 60.5344 103.868 60.3913 103.502C59.3895 101.731 58.3162 100.143 57.386 98.3723C55.311 94.5253 55.311 90.0066 54.023 85.9765C52.4488 81.1525 50.5884 75.2294 51.0178 70.2223C51.304 66.5585 54.0946 62.2231 55.4541 58.8035C56.3843 56.4831 61.8939 50.1937 62.9672 47.9343C63.8259 46.0414 60.8922 47.568 62.7526 46.4688C63.0388 46.2856 65.9725 45.4308 65.6863 45.0644C65.1138 44.3316 58.1016 46.652 56.9567 47.0184C56.6705 47.0795 56.2412 47.4458 56.0981 47.2016C55.1679 45.9803 63.1103 43.2325 64.3268 42.9272C64.7561 42.8051 65.4716 42.8051 65.4716 42.4387C65.3285 41.4617 59.318 42.1334 59.2464 41.4006C59.1749 39.6298 64.2552 37.1262 65.6147 36.4545C66.4734 36.0882 67.5467 35.905 68.4053 35.7218C68.7631 35.6607 69.6933 35.6607 69.4786 35.4165C69.1924 35.0501 64.5414 34.928 64.6845 34.4395C64.7561 34.012 68.1907 33.5846 68.5484 33.5235C71.6968 32.9129 75.2029 32.4244 78.3513 32.9129C78.7806 32.9739 81.4281 33.8288 81.6428 33.4624C82.0721 32.6686 78.4944 27.4172 80.3548 26.7455C80.3548 26.7455 83.9325 28.8217 84.2902 28.9438C88.5835 30.7757 93.0914 33.035 98.0286 33.1571C98.4579 33.1571 98.8157 33.035 99.245 33.035C102.25 32.9129 99.6027 32.4244 99.6743 30.3482C99.6743 30.2261 99.3881 30.0429 99.5312 29.9819C99.9605 29.8597 107.187 31.8138 108.118 32.1191C111.982 33.4624 116.06 35.0501 120.854 35.2943C121.641 35.3554 123.001 35.6607 127.294 37.7368C131.659 39.813 131.158 39.3855 135.237 41.8281C139.315 44.2095 140.889 44.3927 144.467 47.9954C146.184 49.7052 149.333 53.1247 151.05 54.407C155.415 57.7655 157.418 62.1009 159.493 67.1081C160.28 68.94 161.211 69.2453 162.141 70.8329C162.642 71.6878 164.073 72.4816 164.788 73.1533C166.434 74.6799 167.937 77.9162 168.223 79.9313C168.366 80.9083 167.793 81.8242 167.793 82.8012C167.65 85.1216 169.654 88.6022 169.368 89.0296Z" fill="#3F2719"/>
<path d="M170.012 93.6093C164.86 101.914 142.75 131.285 104.039 134.766" stroke="#2D1F04" stroke-width="2.62" stroke-miterlimit="10" stroke-linecap="round" stroke-linejoin="round"/>
<path d="M169.225 88.2969C164.073 96.6014 144.395 126.278 111.552 133.606" stroke="#2D1F04" stroke-width="2.62" stroke-miterlimit="10" stroke-linecap="round" stroke-linejoin="round"/>
<path d="M115.989 33.5846C119.423 34.5616 122.643 35.7218 125.72 37.0041C158.992 50.9875 169.296 81.5189 170.083 92.327" stroke="#2D1F04" stroke-width="2.62" stroke-miterlimit="10" stroke-linecap="round" stroke-linejoin="round"/>
<path opacity="0.23" d="M150.549 156.077C147.401 156.443 146.471 163.465 129.441 160.901C119.352 159.374 117.348 156.626 111.195 155.588C103.753 154.306 100.533 155.283 93.0199 156.077C79.0669 157.603 77.5643 151.802 76.7056 155.405C75.847 158.947 102.107 154.916 108.189 156.932C117.921 160.168 127.079 165.969 139.101 164.992C145.827 164.503 156.703 155.344 150.549 156.077Z" fill="#3F2719"/>
<path d="M114.271 180.624C116.418 180.685 118.493 180.685 120.568 180.746C122.285 180.807 122.929 181.723 123.001 182.639C123.144 183.86 122.5 184.776 121.069 185.204C120.997 185.204 120.926 185.265 120.783 185.265C122.5 186.058 122.786 187.585 123.788 188.928C122.571 188.928 121.498 188.928 120.353 188.928C119.852 188.074 119.28 187.219 118.708 186.364C118.421 185.875 117.992 185.509 117.205 185.692C117.205 186.791 117.205 187.829 117.205 188.99C116.132 188.99 115.201 188.99 114.271 188.99C114.271 186.242 114.271 183.494 114.271 180.624ZM117.276 182.395C117.276 182.944 117.276 183.494 117.276 184.104C117.92 184.043 118.564 184.104 119.208 183.982C119.781 183.921 120.067 183.616 120.067 183.189C120.067 182.761 119.781 182.456 119.208 182.395C118.564 182.334 117.92 182.395 117.276 182.395Z" fill="#2D1F04"/>
<path d="M132.16 183.005C131.229 183.066 130.299 183.127 129.369 183.189C129.226 182.517 128.725 182.089 127.938 182.089C127.437 182.089 127.008 182.212 126.793 182.7C126.793 183.128 127.151 183.25 127.509 183.311C128.224 183.494 128.94 183.616 129.655 183.799C130.013 183.921 130.442 184.043 130.8 184.166C133.161 185.082 132.947 187.402 131.301 188.44C130.729 188.806 130.085 188.99 129.369 189.112C128.296 189.295 127.151 189.234 126.078 188.99C124.647 188.684 123.716 187.646 123.716 186.303C124.647 186.242 125.505 186.242 126.435 186.181C126.507 186.364 126.578 186.486 126.578 186.669C126.936 187.463 127.938 187.829 128.797 187.524C129.226 187.402 129.512 187.158 129.512 186.73C129.512 186.364 129.298 186.12 128.868 185.997C128.582 185.875 128.224 185.814 127.866 185.692C127.151 185.509 126.435 185.387 125.791 185.143C124.503 184.715 123.859 183.921 123.859 182.944C123.931 181.906 124.718 181.051 126.078 180.746C127.366 180.441 128.654 180.441 129.941 180.746C131.444 181.112 132.088 181.784 132.16 183.005Z" fill="#2D1F04"/>
<path d="M206.862 72.4205C206.79 72.7869 206.576 73.0922 206.29 73.3975C206.003 73.7029 205.717 73.8861 205.359 74.0692C205.002 74.2524 204.644 74.3746 204.215 74.4356C203.785 74.4967 203.427 74.4967 202.998 74.3746C202.354 74.2524 201.782 73.9471 201.424 73.5807C201.209 73.7029 200.995 73.825 200.708 73.8861C200.494 73.9471 200.279 74.0692 200.064 74.0692C199.85 74.1303 199.635 74.1303 199.42 74.1303C199.206 74.1303 198.92 74.0692 198.705 74.0692C198.276 74.0082 197.918 73.825 197.56 73.6418C197.202 73.4586 196.988 73.1533 196.773 72.909C196.558 72.6648 196.415 72.2984 196.344 71.932C196.272 71.5657 196.272 71.1993 196.415 70.894L197.488 67.3523C197.488 67.2302 197.56 67.1081 197.632 67.047C197.703 66.986 197.775 66.8638 197.918 66.8638C198.061 66.8028 198.132 66.8028 198.276 66.7417C198.419 66.7417 198.562 66.7417 198.633 66.7417L207.005 68.5125C207.148 68.5125 207.22 68.5736 207.363 68.6346C207.434 68.6957 207.578 68.7568 207.649 68.8789C207.721 69.001 207.792 69.0621 207.792 69.1842C207.792 69.3063 207.792 69.4285 207.792 69.4895L206.862 72.4205ZM198.347 71.1993C198.276 71.3214 198.276 71.4435 198.347 71.5657C198.347 71.6878 198.419 71.8099 198.49 71.932C198.562 72.0542 198.633 72.1152 198.776 72.2374C198.92 72.3595 199.063 72.3595 199.206 72.4205C199.349 72.4816 199.492 72.4816 199.707 72.4205C199.85 72.4205 199.993 72.3595 200.136 72.2984C200.279 72.2374 200.351 72.1763 200.494 72.0542C200.565 71.932 200.637 71.8099 200.708 71.6878L201.496 68.94L199.206 68.4515L198.347 71.1993ZM202.64 71.5046C202.569 71.6267 202.569 71.7488 202.64 71.871C202.64 71.9931 202.712 72.1152 202.783 72.2374C202.855 72.3595 202.927 72.4205 203.07 72.5427C203.213 72.6037 203.356 72.6648 203.499 72.7259C203.642 72.7869 203.785 72.7869 203.928 72.7259C204.071 72.7259 204.215 72.6648 204.358 72.6037C204.501 72.5427 204.572 72.4816 204.715 72.3595C204.787 72.2374 204.859 72.1152 204.93 71.9931L205.574 69.8559L203.284 69.3674L202.64 71.5046Z" fill="black"/>
<path d="M198.92 84.9384C197.488 84.7552 196.272 84.2057 195.413 83.1676C194.555 82.1906 194.197 81.0304 194.412 79.8091C194.626 78.5879 195.27 77.6109 196.487 76.8171C197.632 76.0843 198.92 75.779 200.422 75.9622C201.853 76.1454 202.998 76.6949 203.928 77.733C204.787 78.71 205.145 79.8091 204.93 81.0915C204.715 82.3127 204.071 83.2897 202.855 84.0835C202.283 84.4499 201.639 84.6942 200.995 84.8774C200.351 84.9384 199.635 84.9995 198.92 84.9384ZM202.927 80.8472C202.998 80.4808 202.927 80.0534 202.855 79.687C202.712 79.3206 202.569 79.0153 202.283 78.71C201.996 78.4047 201.71 78.1604 201.352 77.9773C200.995 77.7941 200.565 77.6719 200.136 77.6109C199.707 77.5498 199.277 77.6109 198.848 77.6719C198.419 77.7941 198.061 77.9162 197.703 78.1604C197.345 78.4047 197.059 78.6489 196.845 78.9543C196.63 79.2596 196.487 79.626 196.415 80.0534C196.344 80.4198 196.415 80.7861 196.487 81.1525C196.63 81.5189 196.773 81.8242 197.059 82.1295C197.345 82.4348 197.632 82.6791 197.989 82.8623C198.347 83.0455 198.776 83.1676 199.206 83.2287C199.635 83.2897 200.064 83.2287 200.494 83.1676C200.923 83.1065 201.281 82.9233 201.639 82.6791C201.996 82.4348 202.283 82.1906 202.497 81.8853C202.712 81.58 202.855 81.2136 202.927 80.8472Z" fill="black"/>
<path d="M196.344 88.1748C196.129 88.2969 195.986 88.419 195.914 88.5411C195.628 88.8465 195.557 89.2128 195.485 89.7013C195.485 90.1288 195.628 90.5562 195.843 90.8615C196.057 91.1668 196.415 91.35 196.701 91.35C197.059 91.35 197.417 91.2279 197.703 90.9226C197.989 90.6173 198.132 90.2509 198.132 89.7624C198.132 89.5181 198.204 89.335 198.419 89.1518C198.633 88.9686 198.848 88.9075 199.134 88.9075C199.42 88.9075 199.635 88.9686 199.85 89.1518C200.064 89.335 200.136 89.5181 200.136 89.7624C200.136 90.2509 200.208 90.6173 200.422 90.9226C200.565 91.2279 200.78 91.35 200.995 91.4111C201.281 91.4111 201.567 91.289 201.782 90.9837C201.996 90.6783 202.139 90.312 202.139 89.8235C202.139 89.396 202.068 88.9686 201.782 88.6633C201.71 88.5411 201.567 88.419 201.352 88.2969C201.281 88.2358 201.209 88.2358 201.209 88.1748C200.995 87.9916 200.923 87.8084 200.923 87.5641C200.923 87.3199 200.995 87.1367 201.209 86.9535C201.424 86.7703 201.639 86.7093 201.925 86.7093C202.139 86.7093 202.283 86.7703 202.426 86.8314C202.712 87.0146 202.998 87.1978 203.213 87.442C203.785 88.1137 204.071 88.8465 204.071 89.7624C204.071 90.6783 203.785 91.4111 203.141 92.0828C202.497 92.7545 201.853 93.0598 200.923 92.9987C199.993 92.9987 199.42 92.6934 198.991 92.0828C198.419 92.6324 197.56 92.9377 196.63 92.9377C195.771 92.9377 194.984 92.5713 194.412 91.9607C193.768 91.289 193.481 90.5562 193.481 89.6403C193.481 88.7243 193.839 87.9916 194.412 87.381C194.626 87.1367 194.841 86.9535 195.127 86.8314C195.27 86.7093 195.485 86.6482 195.7 86.7093C195.986 86.7093 196.2 86.7703 196.415 86.9535C196.63 87.1367 196.701 87.3199 196.701 87.5641C196.701 87.7473 196.558 87.9916 196.344 88.1748Z" fill="black"/>
<path d="M199.993 96.235L200.351 98.7386C200.422 99.105 200.351 99.4714 200.207 99.7767C200.064 100.143 199.921 100.387 199.635 100.693C199.42 100.937 199.063 101.181 198.705 101.364C198.347 101.548 197.918 101.67 197.56 101.67C197.131 101.731 196.701 101.67 196.344 101.548C195.986 101.425 195.628 101.303 195.27 101.059C194.984 100.876 194.698 100.571 194.483 100.265C194.268 99.9599 194.125 99.5935 194.125 99.2882L193.696 95.9297C193.696 95.8076 193.696 95.6855 193.696 95.6244C193.768 95.5023 193.768 95.4412 193.839 95.3191C193.911 95.197 193.982 95.1359 194.125 95.1359C194.268 95.0749 194.34 95.0749 194.483 95.0138L203.07 94.22C203.213 94.22 203.356 94.22 203.427 94.281C203.57 94.3421 203.642 94.3421 203.785 94.4032C203.857 94.4642 203.928 94.5253 204 94.6474C204.071 94.7695 204.071 94.8306 204.143 94.9527C204.143 95.0748 204.143 95.197 204.143 95.258C204.071 95.3802 204.071 95.4412 204 95.5634C203.928 95.6855 203.857 95.7465 203.714 95.7465C203.57 95.7465 203.499 95.8076 203.356 95.8687L199.993 96.235ZM196.057 99.1661C196.057 99.2882 196.129 99.4103 196.2 99.5324C196.272 99.6546 196.344 99.7767 196.487 99.8378C196.63 99.8988 196.701 99.9599 196.916 100.021C197.131 100.082 197.202 100.082 197.345 100.082C197.488 100.082 197.631 100.021 197.775 99.9599C197.918 99.8988 197.989 99.8378 198.132 99.7156C198.204 99.5935 198.275 99.4714 198.347 99.3492C198.419 99.2271 198.419 99.105 198.419 98.9829L198.061 96.4793L195.771 96.7235L196.057 99.1661Z" fill="black"/>
<path d="M197.345 109.241L202.211 106.127H195.986C195.843 106.127 195.7 106.066 195.485 106.005C195.342 105.883 195.199 105.761 195.127 105.578C195.056 105.456 195.056 105.333 195.056 105.272C195.056 105.15 195.127 105.089 195.127 104.967C195.199 104.845 195.27 104.784 195.342 104.723C195.413 104.662 195.557 104.601 195.7 104.54C195.771 104.54 195.914 104.479 196.057 104.479H205.073C205.288 104.479 205.431 104.54 205.646 104.662C205.86 104.784 205.932 104.906 206.003 105.089C206.075 105.272 206.075 105.456 206.003 105.639C205.932 105.822 205.86 105.944 205.646 106.005L200.708 109.119H206.862C207.005 109.119 207.22 109.18 207.363 109.241C207.506 109.364 207.649 109.486 207.721 109.669C207.792 109.852 207.792 110.035 207.721 110.218C207.649 110.402 207.578 110.524 207.363 110.585L200.136 115.226C199.993 115.287 199.921 115.348 199.778 115.409C199.635 115.47 199.492 115.47 199.42 115.47C199.349 115.47 199.134 115.409 199.063 115.409C198.92 115.348 198.848 115.287 198.776 115.226C198.705 115.165 198.633 115.042 198.562 114.92C198.49 114.737 198.49 114.554 198.49 114.432C198.562 114.31 198.633 114.188 198.776 114.065L203.785 110.89H197.703C197.202 110.89 196.844 110.707 196.701 110.341C196.844 109.852 196.916 109.547 197.345 109.241Z" fill="black"/>
<path d="M205.145 124.812C205.002 124.629 205.002 124.385 205.073 124.202C205.145 123.958 205.288 123.835 205.503 123.713C205.002 123.53 204.572 123.286 204.143 123.042C203.785 122.736 203.428 122.37 203.141 122.004C202.784 121.515 202.569 120.966 202.497 120.416C202.426 119.866 202.497 119.317 202.64 118.828C202.784 118.279 203.07 117.851 203.499 117.363C203.857 116.935 204.358 116.569 204.93 116.264L208.937 114.249C209.152 114.126 209.438 114.126 209.653 114.188C209.867 114.249 210.082 114.371 210.225 114.554C210.368 114.737 210.368 114.981 210.297 115.165C210.225 115.348 210.082 115.531 209.867 115.653L205.86 117.668C205.503 117.851 205.216 118.034 205.002 118.34C204.787 118.584 204.572 118.889 204.501 119.195C204.429 119.5 204.358 119.805 204.429 120.172C204.501 120.477 204.572 120.843 204.787 121.149C205.002 121.454 205.216 121.698 205.574 121.881C205.86 122.065 206.218 122.248 206.576 122.309C206.934 122.37 207.291 122.431 207.721 122.37C208.078 122.309 208.508 122.248 208.794 122.065L212.801 120.05C213.016 119.927 213.302 119.927 213.517 119.989C213.803 120.05 213.946 120.172 214.089 120.355C214.232 120.538 214.232 120.782 214.161 120.966C214.089 121.149 213.946 121.332 213.731 121.454L206.29 125.118C206.075 125.24 205.789 125.24 205.574 125.179C205.359 125.118 205.288 124.996 205.145 124.812Z" fill="black"/>
<path d="M216.092 137.025C215.878 137.147 215.591 137.208 215.377 137.147C215.162 137.086 214.876 136.964 214.733 136.781C214.59 136.598 214.518 136.353 214.59 136.17C214.661 135.926 214.804 135.743 215.019 135.621L219.455 133.056C219.67 132.934 219.885 132.751 220.099 132.506C220.242 132.323 220.386 132.079 220.386 131.835C220.386 131.59 220.457 131.346 220.386 131.102C220.314 130.858 220.242 130.613 220.028 130.369C219.885 130.125 219.67 130.003 219.384 129.82C219.098 129.636 218.883 129.575 218.597 129.575C218.31 129.514 218.024 129.514 217.738 129.575C217.452 129.636 217.166 129.697 216.951 129.881L212.515 132.445C212.3 132.567 212.014 132.629 211.799 132.567C211.584 132.506 211.298 132.384 211.155 132.201C211.012 132.018 210.94 131.774 211.012 131.59C211.084 131.346 211.227 131.163 211.441 131.041L215.878 128.476C216.164 128.354 216.307 128.171 216.522 127.927C216.665 127.682 216.808 127.499 216.808 127.255C216.879 127.011 216.879 126.766 216.808 126.522C216.736 126.278 216.665 126.034 216.45 125.851C216.235 125.667 216.092 125.484 215.806 125.301C215.591 125.179 215.305 125.057 215.019 125.057C214.733 124.996 214.447 124.996 214.16 125.057C213.874 125.118 213.588 125.179 213.373 125.362L208.937 127.927C208.722 128.049 208.436 128.11 208.221 128.049C208.007 127.988 207.721 127.866 207.577 127.682C207.434 127.499 207.363 127.255 207.434 127.072C207.506 126.828 207.649 126.644 207.864 126.522L214.947 122.431C215.162 122.309 215.448 122.248 215.663 122.309C215.949 122.37 216.164 122.492 216.307 122.675C216.45 122.858 216.522 122.981 216.45 123.164C216.45 123.347 216.379 123.53 216.235 123.652C216.951 123.897 217.595 124.324 218.096 124.935C218.454 125.362 218.668 125.851 218.811 126.339C218.883 126.828 218.883 127.377 218.668 127.927C219.956 128.049 221.03 128.598 221.745 129.453C222.031 129.881 222.246 130.308 222.389 130.736C222.532 131.163 222.461 131.652 222.389 132.14C222.317 132.567 222.103 132.995 221.817 133.422C221.53 133.85 221.101 134.155 220.672 134.46L216.092 137.025Z" fill="black"/>
<path d="M222.318 143.376C222.461 143.62 222.461 143.803 222.389 144.047C222.318 144.23 222.175 144.414 221.888 144.536C221.674 144.658 221.387 144.658 221.101 144.597C219.885 144.169 218.955 143.498 218.382 142.46C217.738 141.36 217.595 140.2 218.024 139.04C218.454 137.88 219.312 136.964 220.6 136.414C221.888 135.865 223.248 135.743 224.607 136.109C225.967 136.475 227.04 137.208 227.684 138.307C228.328 139.406 228.471 140.567 228.042 141.727C227.827 142.338 227.47 142.826 227.04 143.253C226.611 143.681 226.038 144.047 225.394 144.353C225.108 144.475 224.894 144.475 224.607 144.414C224.321 144.353 224.178 144.23 224.035 143.986L220.6 138.307C220.314 138.552 220.171 138.796 219.956 139.04C219.813 139.284 219.67 139.59 219.67 139.895C219.599 140.2 219.599 140.506 219.67 140.811C219.742 141.116 219.813 141.422 220.028 141.666C220.243 141.971 220.457 142.215 220.743 142.46C221.03 142.704 221.316 142.826 221.674 142.948C222.031 143.009 222.175 143.192 222.318 143.376ZM225.394 142.399C225.681 142.154 225.824 141.91 226.038 141.666C226.253 141.422 226.325 141.116 226.325 140.811C226.396 140.506 226.396 140.2 226.325 139.895C226.253 139.59 226.182 139.284 225.967 139.04C225.752 138.796 225.609 138.552 225.323 138.307C225.037 138.063 224.751 137.941 224.464 137.819C224.178 137.697 223.82 137.575 223.463 137.575C223.105 137.514 222.747 137.514 222.389 137.575L225.394 142.399Z" fill="black"/>
<path d="M226.253 158.092C225.251 157.481 224.607 156.626 224.321 155.588C223.963 154.367 224.178 153.268 224.894 152.169C225.609 151.069 226.682 150.398 228.113 150.092C229.545 149.787 230.832 149.97 232.12 150.581C233.408 151.192 234.196 152.108 234.553 153.329C234.911 154.55 234.696 155.649 233.981 156.748C233.265 157.847 232.192 158.519 230.761 158.824L225.681 159.924C225.251 160.046 224.822 160.046 224.393 160.046C223.963 160.046 223.534 159.924 223.176 159.801C222.818 159.679 222.389 159.496 222.103 159.252C221.745 159.008 221.459 158.763 221.173 158.519C220.887 158.275 220.672 157.909 220.457 157.603C220.243 157.298 220.099 156.932 220.028 156.565C219.885 156.138 219.813 155.71 219.813 155.283C219.813 154.855 219.885 154.428 220.028 154.001C220.171 153.573 220.386 153.207 220.6 152.84C220.887 152.474 221.173 152.108 221.602 151.802C221.745 151.68 221.888 151.619 222.103 151.558C222.389 151.497 222.604 151.497 222.818 151.619C223.033 151.741 223.176 151.924 223.248 152.169C223.319 152.352 223.319 152.474 223.248 152.596C223.176 152.718 223.033 152.901 222.818 153.146C222.604 153.39 222.389 153.573 222.318 153.756C221.817 154.489 221.674 155.283 221.888 156.138C222.175 156.993 222.675 157.603 223.534 158.031C224.178 158.275 224.679 158.336 225.18 158.214L226.253 158.092ZM232.621 153.756C232.478 153.39 232.335 153.024 232.049 152.718C231.763 152.413 231.476 152.169 231.119 151.985C230.761 151.802 230.332 151.68 229.902 151.619C229.473 151.558 229.044 151.558 228.614 151.68C228.185 151.802 227.756 151.924 227.469 152.169C227.112 152.413 226.825 152.657 226.611 152.962C226.396 153.268 226.253 153.634 226.182 154.001C226.11 154.367 226.11 154.733 226.253 155.161C226.396 155.527 226.539 155.893 226.825 156.199C227.112 156.504 227.398 156.748 227.756 156.932C228.113 157.115 228.543 157.237 228.972 157.298C229.401 157.359 229.831 157.359 230.26 157.237C230.689 157.115 231.119 156.993 231.405 156.748C231.763 156.504 232.049 156.26 232.264 155.955C232.478 155.649 232.621 155.283 232.693 154.916C232.764 154.55 232.764 154.184 232.621 153.756Z" fill="black"/>
<path d="M232.764 165.786L236.056 165.48C236.199 165.48 236.342 165.48 236.414 165.48C236.557 165.541 236.628 165.541 236.771 165.602C236.843 165.664 236.986 165.725 236.986 165.847C237.058 165.969 237.058 166.03 237.129 166.152C237.129 166.274 237.129 166.396 237.129 166.457C237.058 166.579 237.058 166.641 236.986 166.763C236.914 166.824 236.843 166.885 236.7 166.946C236.557 167.007 236.485 167.007 236.342 167.068L233.051 167.373L237.63 171.098C237.845 171.22 237.916 171.403 237.916 171.648C237.916 171.77 237.916 171.892 237.916 171.953C237.916 172.014 237.845 172.136 237.773 172.258C237.702 172.319 237.63 172.38 237.487 172.441C237.344 172.503 237.272 172.503 237.129 172.564C236.843 172.564 236.628 172.503 236.414 172.38L232.407 169.144L229.258 173.052C229.115 173.235 228.9 173.357 228.614 173.357C228.471 173.357 228.328 173.357 228.256 173.296C228.185 173.235 228.042 173.235 227.899 173.174C227.756 173.113 227.684 173.052 227.684 172.93C227.613 172.808 227.612 172.747 227.541 172.625C227.541 172.442 227.541 172.197 227.684 172.075L230.976 167.984L230.618 167.679L227.97 167.923C227.827 167.923 227.684 167.923 227.612 167.862C227.469 167.801 227.398 167.801 227.255 167.74C227.112 167.679 227.04 167.618 227.04 167.495C226.968 167.373 226.969 167.312 226.897 167.19C226.897 167.068 226.897 166.946 226.897 166.885C226.969 166.763 226.968 166.702 227.04 166.579C227.112 166.518 227.183 166.396 227.326 166.396C227.469 166.335 227.541 166.335 227.684 166.274L230.332 166.03L230.618 165.664L226.396 162.244C226.253 162.122 226.11 161.939 226.11 161.694C226.11 161.572 226.11 161.45 226.11 161.389C226.181 161.267 226.181 161.206 226.253 161.084C226.325 161.023 226.396 160.962 226.539 160.901C226.682 160.84 226.754 160.84 226.897 160.778C227.183 160.778 227.469 160.84 227.612 160.962L231.691 164.198L234.768 160.29C234.911 160.107 235.126 159.985 235.412 159.985C235.555 159.985 235.698 159.985 235.77 159.985C235.913 160.046 235.984 160.046 236.127 160.107C236.199 160.168 236.342 160.229 236.342 160.351C236.414 160.473 236.414 160.534 236.485 160.656C236.485 160.901 236.485 161.084 236.342 161.267L232.764 165.786Z" fill="black"/>
<path d="M228.185 177.51L236.485 174.884C236.628 174.823 236.771 174.823 236.914 174.823C237.058 174.823 237.201 174.823 237.272 174.884C237.415 174.945 237.487 175.006 237.558 175.067C237.63 175.128 237.702 175.25 237.773 175.311C237.845 175.434 237.845 175.556 237.845 175.617C237.845 175.8 237.773 175.922 237.63 176.105C237.487 176.227 237.344 176.35 237.129 176.411L230.689 178.487L236.914 180.929C237.129 180.99 237.272 181.112 237.344 181.235C237.487 181.357 237.487 181.54 237.487 181.723C237.487 181.845 237.487 181.967 237.415 182.028C237.344 182.15 237.272 182.212 237.201 182.273C237.129 182.334 236.986 182.395 236.843 182.456C236.7 182.517 236.628 182.517 236.485 182.517C236.342 182.517 236.199 182.456 236.056 182.395L223.248 177.388C223.033 177.327 222.89 177.204 222.818 177.082C222.747 176.96 222.675 176.777 222.675 176.594C222.675 176.35 222.818 176.166 222.962 175.983C223.105 175.8 223.391 175.739 223.677 175.739C223.82 175.739 223.963 175.8 224.106 175.861L228.185 177.51Z" fill="black"/>
<path d="M230.833 185.387L227.541 184.898C227.398 184.898 227.326 184.837 227.183 184.776C227.04 184.715 226.969 184.654 226.897 184.532C226.826 184.471 226.754 184.349 226.754 184.227C226.754 184.105 226.754 183.982 226.754 183.921C226.754 183.799 226.826 183.677 226.897 183.616C226.969 183.555 227.04 183.433 227.183 183.372C227.255 183.311 227.398 183.25 227.541 183.25C227.684 183.25 227.827 183.25 227.899 183.25L236.342 184.471C236.485 184.471 236.557 184.532 236.7 184.593C236.843 184.654 236.915 184.715 236.986 184.837C237.058 184.898 237.129 185.02 237.129 185.143C237.129 185.265 237.129 185.387 237.129 185.509C237.129 185.631 237.058 185.692 236.986 185.814C236.915 185.936 236.843 185.997 236.7 186.059C236.628 186.12 236.485 186.181 236.342 186.181C236.199 186.181 236.056 186.181 235.984 186.181L232.693 185.692L231.906 189.783L235.197 190.272C235.34 190.272 235.412 190.333 235.555 190.394C235.698 190.455 235.77 190.516 235.841 190.638C235.913 190.76 235.984 190.821 235.984 190.944C235.984 191.066 235.984 191.188 235.984 191.249C235.984 191.371 235.913 191.493 235.841 191.554C235.77 191.676 235.698 191.737 235.555 191.798C235.484 191.859 235.34 191.921 235.197 191.921C235.054 191.921 234.911 191.921 234.84 191.921L226.396 190.699C226.253 190.699 226.182 190.638 226.038 190.577C225.895 190.516 225.824 190.455 225.752 190.333C225.681 190.272 225.609 190.15 225.609 190.028C225.609 189.905 225.609 189.783 225.609 189.661C225.609 189.539 225.681 189.417 225.752 189.356C225.824 189.234 225.895 189.173 226.038 189.112C226.182 189.051 226.253 188.99 226.396 188.99C226.539 188.99 226.682 188.99 226.754 188.99L230.045 189.478L230.833 185.387Z" fill="black"/>
<path d="M227.04 201.324C225.609 200.958 224.607 200.225 223.963 199.126C223.319 198.027 223.176 196.867 223.606 195.706C224.035 194.546 224.893 193.63 226.181 193.081C227.469 192.531 228.829 192.409 230.188 192.775C231.548 193.142 232.621 193.875 233.265 194.974C233.909 196.073 234.052 197.233 233.623 198.393C233.194 199.553 232.335 200.469 231.047 201.019C230.403 201.324 229.759 201.446 229.044 201.507C228.471 201.568 227.756 201.507 227.04 201.324ZM231.834 197.844C231.977 197.477 232.049 197.111 231.977 196.745C231.906 196.378 231.834 196.012 231.62 195.706C231.405 195.401 231.19 195.096 230.832 194.852C230.475 194.607 230.117 194.424 229.688 194.302C229.258 194.18 228.829 194.119 228.4 194.18C227.97 194.241 227.541 194.302 227.183 194.485C226.825 194.668 226.468 194.852 226.181 195.157C225.895 195.462 225.681 195.768 225.537 196.134C225.394 196.5 225.323 196.867 225.394 197.233C225.466 197.599 225.537 197.966 225.752 198.271C225.967 198.576 226.181 198.882 226.539 199.126C226.897 199.37 227.255 199.553 227.684 199.676C228.113 199.798 228.543 199.859 228.972 199.798C229.401 199.737 229.831 199.676 230.188 199.492C230.546 199.309 230.904 199.126 231.19 198.821C231.476 198.576 231.691 198.21 231.834 197.844Z" fill="black"/>
<path d="M219.956 205.66L225.967 206.148L221.316 202.546C221.173 202.423 221.101 202.301 221.101 202.179C221.03 201.996 221.101 201.874 221.173 201.691C221.244 201.568 221.316 201.507 221.387 201.385C221.459 201.324 221.602 201.263 221.674 201.202C221.817 201.141 221.888 201.141 222.031 201.141C222.175 201.141 222.318 201.141 222.389 201.202C222.461 201.263 222.604 201.324 222.675 201.385L229.401 206.576C229.545 206.698 229.616 206.82 229.688 207.003C229.759 207.186 229.688 207.369 229.616 207.492C229.545 207.675 229.401 207.797 229.187 207.858C228.972 207.919 228.829 207.98 228.614 207.98L222.461 207.492L227.04 211.033C227.183 211.155 227.255 211.277 227.326 211.461C227.398 211.644 227.326 211.827 227.255 212.01C227.183 212.193 227.04 212.377 226.826 212.438C226.611 212.499 226.468 212.56 226.253 212.499L217.237 211.827C217.094 211.827 216.951 211.827 216.88 211.766C216.736 211.705 216.665 211.644 216.593 211.583C216.522 211.522 216.45 211.4 216.379 211.339C216.307 211.216 216.307 211.155 216.307 211.033C216.307 210.911 216.307 210.789 216.379 210.728C216.45 210.545 216.593 210.423 216.736 210.3C216.88 210.239 217.023 210.178 217.237 210.178L223.463 210.667L218.955 207.186C218.597 206.881 218.454 206.576 218.668 206.209C219.098 205.782 219.455 205.599 219.956 205.66Z" fill="black"/>
</g>
<defs>
<clipPath id="clip0_16_11">
<rect width="245" height="239" fill="white"/>
</clipPath>
</defs>
</svg>
