<svg width="302" height="316" viewBox="0 0 302 316" fill="none" xmlns="http://www.w3.org/2000/svg">
<path d="M256.23 220.297C253.732 218.692 251.134 217.488 248.435 216.485C243.239 214.278 237.143 212.874 230.048 212.874C226.95 212.874 224.052 213.074 221.253 213.476C220.354 213.576 219.455 213.776 218.655 213.877C206.663 216.184 197.069 222.404 189.674 231.934C189.674 232.034 189.574 232.034 189.574 232.135C185.277 237.552 182.279 243.27 180.48 248.286C179.981 249.59 179.381 250.994 178.882 252.399C176.383 253.402 173.385 254.305 170.187 255.107C170.087 255.107 169.987 255.107 169.887 255.208C154.997 258.719 124.418 262.932 89.5407 259.321C89.041 259.321 88.6413 259.22 88.1416 259.22C84.9437 258.819 81.6459 258.418 78.3481 257.916H77.9484C68.2548 256.411 58.3613 254.305 48.4679 251.396H48.368C47.2687 250.994 46.5692 250.693 46.1694 250.493C46.2694 249.69 46.0695 249.49 45.7697 249.59C45.6697 249.389 45.5698 249.189 45.4699 249.088C45.8696 244.173 46.3693 227.821 45.7697 227.52C44.5705 227.821 43.5711 229.025 43.5711 230.229C40.5731 223.808 44.8703 219.194 44.5705 215.783C43.0715 215.081 41.6724 215.983 40.5731 218.291C36.4758 210.165 39.9735 202.842 38.4745 199.632C21.086 162.815 12.3918 119.378 31.3792 79.6521C35.7763 70.4229 41.6724 63.4006 49.0675 58.0838C43.2713 58.0838 33.7776 60.2908 24.8835 65.6076C27.5817 59.087 35.2766 52.466 49.3673 49.4565C46.769 47.1492 39.6737 45.7448 31.8789 48.0521C40.8729 33.2051 58.3613 37.2178 58.3613 34.3086C58.3613 30.7975 43.8709 32.1016 42.7717 30.8978C55.1635 21.9695 69.5539 21.8692 79.7472 27.0857C74.3508 21.9695 74.3508 15.2483 78.1482 9.93143C86.2429 23.2736 116.723 26.0825 117.622 24.6781C112.426 23.1733 112.426 19.8629 114.124 18.1575C119.521 22.6717 136.31 25.9822 147.702 30.4965C231.447 64.0025 258.829 149.473 256.23 220.297Z" fill="#CAA77A"/>
<path d="M229.948 212.974C204.365 212.874 187.676 227.319 178.682 252.499C169.588 256.11 154.598 258.518 144.005 259.521C120.42 261.829 100.833 261.327 78.0483 258.017C55.5632 254.806 45.6698 250.794 45.6698 250.192C45.27 245.878 40.773 253.603 40.2733 258.317C39.8736 261.628 42.272 264.437 41.9722 264.938C37.9749 273.867 33.6777 282.093 30.6797 289.917C28.7809 294.933 26.9821 300.551 26.9821 305.768C33.5778 305.667 278.316 303.36 292.606 302.858C290.608 280.187 283.112 259.622 273.719 241.564C268.922 232.335 256.73 213.074 229.948 212.974Z" fill="#FFDB1F"/>
<path d="M60.2601 229.426L60.1602 239.257Z" fill="black"/>
<path d="M60.2601 229.426L60.1602 239.257" stroke="#9D7B51" stroke-width="3.87" stroke-miterlimit="10" stroke-linecap="round" stroke-linejoin="round"/>
<path d="M69.1542 234.442L69.0543 244.273Z" fill="black"/>
<path d="M69.1542 234.442L69.0543 244.173" stroke="#9D7B51" stroke-width="3.87" stroke-miterlimit="10" stroke-linecap="round" stroke-linejoin="round"/>
<path d="M256.23 220.297C258.829 149.473 231.447 64.0025 147.602 30.5968C136.21 26.0825 119.421 22.7721 114.024 18.2578C112.326 20.0635 112.326 23.2736 117.522 24.7784C116.623 26.1829 86.143 23.374 78.0483 10.0317C74.2508 15.3486 74.2508 22.1702 79.6473 27.186C69.454 21.9695 55.0635 22.0698 42.6717 30.9981C43.771 32.2019 58.2614 30.9981 58.2614 34.4089C58.2614 37.3181 40.8729 33.3054 31.779 48.1524C39.5738 45.7448 46.769 47.1492 49.2674 49.5568C35.0768 52.5663 27.4818 59.1873 24.6837 65.7079C33.6777 60.3911 43.0715 58.1841 48.8676 58.1841C41.5725 63.4006 35.6764 70.4229 31.1794 79.7524C12.1919 119.378 20.8862 162.916 37.9749 199.832C39.4739 203.043 35.9762 210.366 40.0735 218.491C41.0728 216.184 42.5718 215.281 44.0708 215.983C44.4705 219.394 40.0735 223.909 43.0715 230.429C43.0715 229.225 44.0708 228.022 45.27 227.721C45.9696 227.921 45.27 248.687 44.8703 250.493M45.9696 250.794C108.328 270.155 171.786 256.411 178.782 252.499" stroke="#2D1F04" stroke-width="2.62" stroke-miterlimit="10" stroke-linecap="round" stroke-linejoin="round"/>
<path d="M45.9696 250.894C46.6691 246.48 41.6724 254.305 40.6731 256.512C39.274 259.722 42.3719 262.631 42.1721 264.337C41.9722 266.343 29.9801 285.905 26.6823 305.065M176.183 280.287C182.879 287.008 188.975 293.93 192.772 303.561" stroke="#2D1F04" stroke-width="2.62" stroke-miterlimit="10" stroke-linecap="round" stroke-linejoin="round"/>
<path d="M189.874 297.341C189.075 291.222 188.475 283.397 185.877 277.879M178.682 254.305C181.78 237.953 201.766 205.25 242.24 214.78C251.433 216.987 259.828 220.598 267.223 231.131C283.013 253.903 288.709 282.494 292.206 302.256M151 272.462C133.312 279.183 64.4573 278.682 42.9715 263.333M55.6631 254.204C54.7637 257.013 53.8643 259.12 53.8643 262.23" stroke="#2D1F04" stroke-width="2.62" stroke-miterlimit="10" stroke-linecap="round" stroke-linejoin="round"/>
<path d="M71.5526 257.615C70.3534 260.123 70.1535 263.534 70.1535 266.343M90.64 260.324L89.5407 267.145M104.031 262.23V267.547M96.636 262.531V266.343M149.301 260.324V264.136M154.598 260.324V263.333" stroke="#2D1F04" stroke-width="2.62" stroke-miterlimit="10" stroke-linecap="round" stroke-linejoin="round"/>
<path opacity="0.23" d="M256.23 220.297C253.732 218.692 251.134 217.488 248.435 216.485C243.239 214.278 237.143 212.874 230.048 212.874C228.848 212.874 227.749 212.874 226.65 212.974C227.05 188.898 224.851 162.916 216.856 132.82C204.265 84.8686 173.685 60.4914 132.812 49.7574C126.316 48.0521 113.725 46.5473 113.825 42.7352C110.627 42.7352 110.527 46.3467 109.028 46.3467C107.229 46.2463 102.632 42.7352 107.729 36.4152C101.033 38.3213 100.633 46.3467 99.1343 46.447C97.7353 46.5473 94.5374 44.7416 94.9371 41.7321C91.3395 42.9359 92.5387 47.0489 91.3395 47.1492C89.9404 47.3498 89.041 42.9359 84.0443 40.4279C85.8431 44.4406 85.1436 48.1524 84.0443 48.353C82.9451 48.5536 81.2462 44.5409 76.949 44.9422C78.3481 46.447 76.949 49.9581 75.0503 50.56C60.5599 54.673 47.4686 61.3943 37.1754 69.8209C40.5731 65.2063 44.4705 61.3943 48.9676 58.1841C43.1714 58.1841 33.6777 60.3911 24.7836 65.7079C27.4818 59.1873 35.1767 52.5663 49.3673 49.5568C46.769 47.2495 39.6737 45.8451 31.8789 48.1524C40.8729 33.3054 58.3613 37.3181 58.3613 34.4089C58.3613 30.8978 43.8709 32.2019 42.7717 30.9981C55.1635 22.0698 69.5539 21.9695 79.7472 27.186C74.3508 22.0698 74.3508 15.3486 78.1482 10.0317C86.2429 23.374 116.723 26.1828 117.622 24.7784C112.426 23.2736 112.426 19.9632 114.124 18.2578C119.521 22.7721 136.31 26.0825 147.702 30.5968C231.447 64.0025 258.829 149.473 256.23 220.297Z" fill="#3F2719"/>
<path d="M28.1813 123.591C31.3792 109.446 34.9768 97.2076 42.9715 88.48C50.6664 80.0533 64.857 75.6394 78.448 73.7333C94.5374 71.5264 101.133 64.3035 96.7359 57.2813C111.626 58.786 106.829 71.2254 137.009 75.6394C171.886 80.7556 187.975 79.6521 204.065 111.051C207.662 118.074 213.259 134.225 209.461 152.182C203.965 178.364 201.067 189.399 174.684 209.062C143.305 232.436 78.448 243.972 46.0695 199.832C30.9795 179.167 22.1853 149.874 28.1813 123.591Z" fill="#FFDBAF"/>
<path d="M99.7339 132.72C88.8412 126.801 77.2488 153.385 78.1482 168.834C79.7472 198.227 109.328 201.839 127.715 191.907C154.298 177.562 129.414 122.588 110.427 130.814" fill="#9D7B51"/>
<path d="M22.4851 115.164C19.9868 128.005 28.9808 170.138 33.4778 173.75C36.9755 176.559 60.1601 172.446 77.049 150.978C93.1383 130.513 92.139 78.047 88.7412 74.3352C86.8425 72.2286 57.1621 71.3257 38.8743 80.3543C30.3799 84.5676 25.9828 97.2076 22.4851 115.164ZM129.214 79.6521C115.623 182.778 194.571 191.406 202.166 179.468C207.063 171.844 227.249 120.381 183.179 82.5613C181.68 81.2572 152.599 69.6203 129.214 79.6521Z" fill="#9D7B51"/>
<path d="M91.8392 135.93C91.6393 131.516 96.1363 127.203 106.03 126.601C115.923 126.099 124.118 129.209 124.318 133.623C124.518 138.037 116.623 142.05 106.729 142.651C96.8359 143.253 92.039 140.344 91.8392 135.93Z" fill="#251707"/>
<path d="M159.794 125.497C159.294 125.397 158.795 125.397 158.395 125.297Z" fill="#2D1F04"/>
<path opacity="0.8258" d="M168.888 87.4768H169.288C187.476 87.4768 202.166 104.43 202.166 125.397C202.166 146.363 187.476 163.317 169.288 163.317H168.888C150.7 163.317 136.01 146.363 136.01 125.397C136.01 104.43 150.7 87.4768 168.888 87.4768Z" fill="#B2B2B2"/>
<path d="M168.888 87.5771H169.288C186.876 87.5771 201.067 101.923 201.067 119.478C201.067 137.134 186.776 151.379 169.288 151.379H168.888C151.3 151.379 137.109 137.034 137.109 119.478C137.109 101.923 151.3 87.5771 168.888 87.5771Z" fill="white"/>
<path d="M168.888 87.5771H169.288C186.876 87.5771 201.067 101.923 201.067 119.478C201.067 137.034 186.776 151.479 169.288 151.479H168.888C151.3 151.479 137.109 137.134 137.109 119.578C137.109 102.023 151.3 87.5771 168.888 87.5771Z" stroke="#2D1F04" stroke-width="2.79" stroke-miterlimit="10" stroke-linecap="round" stroke-linejoin="round"/>
<path d="M168.488 118.776C170.42 118.776 171.986 116.71 171.986 114.161C171.986 111.613 170.42 109.547 168.488 109.547C166.557 109.547 164.991 111.613 164.991 114.161C164.991 116.71 166.557 118.776 168.488 118.776Z" fill="#2D1F04"/>
<path opacity="0.8258" d="M51.8657 88.3797H52.1655C68.8544 88.3797 82.4454 105.333 82.4454 126.3C82.4454 147.266 68.8544 164.22 52.1655 164.22H51.8657C35.1767 164.22 21.5857 147.266 21.5857 126.3C21.6856 105.333 35.1767 88.3797 51.8657 88.3797Z" fill="#B2B2B2"/>
<path d="M51.9656 88.5803H52.2654C68.4547 88.5803 81.546 102.926 81.546 120.481C81.546 138.137 68.4547 152.382 52.2654 152.382H51.9656C35.7763 152.382 22.685 138.037 22.685 120.481C22.585 102.825 35.7763 88.5803 51.9656 88.5803Z" fill="white"/>
<path d="M51.9656 88.5803H52.2654C68.4547 88.5803 81.546 102.926 81.546 120.481C81.546 138.037 68.4547 152.382 52.2654 152.382H51.9656C35.7763 152.382 22.685 138.037 22.685 120.481C22.685 102.926 35.7763 88.5803 51.9656 88.5803Z" stroke="#2D1F04" stroke-width="2.79" stroke-miterlimit="10" stroke-linecap="round" stroke-linejoin="round"/>
<path d="M51.4659 119.679C53.2321 119.679 54.6638 117.613 54.6638 115.064C54.6638 112.516 53.2321 110.45 51.4659 110.45C49.6998 110.45 48.268 112.516 48.268 115.064C48.268 117.613 49.6998 119.679 51.4659 119.679Z" fill="#2D1F04"/>
<path d="M106.43 153.385C97.4355 153.385 81.0463 160.207 82.6453 170.941C84.2442 181.575 95.6367 176.96 104.331 177.662C113.025 178.364 129.015 187.594 132.712 178.063C136.51 168.533 124.817 153.385 106.43 153.385Z" fill="#251707"/>
<path d="M128.715 78.3479C180.58 66.1092 207.063 100.117 207.063 100.117M91.4394 75.2381C44.0708 58.1841 10.7928 105.233 10.7928 105.233" stroke="#2D1F04" stroke-width="7.6" stroke-miterlimit="10" stroke-linecap="round" stroke-linejoin="round"/>
<path d="M199.268 140.846C195.271 151.078 187.076 159.605 171.886 160.608M202.766 145.561C201.866 151.58 196.47 160.207 189.375 163.317M23.9841 140.846C26.6823 151.078 37.0754 159.204 47.0688 161.812M26.8822 154.89C29.4805 161.411 33.4778 165.724 37.775 167.831" stroke="#2D1F04" stroke-width="2.79" stroke-miterlimit="10" stroke-linecap="round" stroke-linejoin="round"/>
<path d="M222.952 239.157C227.749 237.953 232.446 236.95 237.243 236.448C241.14 236.047 243.339 238.354 244.438 240.662C245.937 243.872 245.138 246.179 242.439 247.684C242.34 247.784 242.14 247.784 241.84 247.985C246.437 249.59 248.535 253.603 251.933 257.013C249.135 257.114 246.737 257.214 244.138 257.515C242.14 255.408 240.141 253.402 238.142 251.396C237.043 250.292 235.844 249.49 234.145 250.192C235.044 252.9 236.044 255.609 237.043 258.518C234.745 258.919 232.646 259.321 230.347 259.722C227.849 252.8 225.451 246.079 222.952 239.157ZM231.147 241.865C231.647 243.27 232.046 244.574 232.646 246.079C234.045 245.677 235.544 245.477 236.843 245.076C238.042 244.775 238.442 243.872 238.042 242.768C237.743 241.665 236.643 240.963 235.344 241.063C233.945 241.163 232.646 241.564 231.147 241.865ZM258.729 235.144C255.531 234.141 252.633 234.241 250.034 235.144C247.236 236.047 246.137 238.455 246.936 241.163C247.636 243.571 249.835 245.577 253.132 246.681C254.831 247.283 256.63 247.684 258.329 248.185C259.128 248.486 260.028 248.687 260.827 249.088C261.827 249.49 262.626 250.292 262.826 251.195C263.126 252.198 262.726 252.9 261.927 253.201C260.128 253.903 257.629 252.8 256.13 250.693C255.831 250.292 255.631 249.891 255.331 249.49C253.232 249.59 251.234 249.79 249.235 249.991C250.534 253.502 253.532 256.11 257.03 257.114C259.728 257.816 262.226 258.017 264.525 257.816C265.924 257.716 267.323 257.214 268.222 256.411C271.02 254.104 269.322 247.383 263.326 244.474C262.426 244.072 261.427 243.671 260.428 243.37C258.729 242.869 257.03 242.367 255.231 241.966C254.332 241.765 253.432 241.364 253.032 240.26C253.032 238.956 253.832 238.555 255.031 238.655C256.83 238.655 258.329 239.759 259.228 241.665C261.327 241.564 263.226 241.564 265.324 241.665C263.925 238.154 261.927 236.147 258.729 235.144Z" fill="black"/>
</svg>
