<svg width="50" height="50" viewBox="0 0 50 50" fill="none" xmlns="http://www.w3.org/2000/svg">
<path opacity="0.8" d="M37.7904 45.0413C35.9571 45.5829 33.7904 45.8329 31.2487 45.8329H18.7487C16.207 45.8329 14.0404 45.5829 12.207 45.0413C12.6654 39.6246 18.2279 35.3535 24.9987 35.3535C31.7696 35.3535 37.3321 39.6246 37.7904 45.0413Z" stroke="#BCBEC1" stroke-width="3.125" stroke-linecap="round" stroke-linejoin="round"/>
<path d="M45.8333 18.75V31.25C45.8333 39.125 43.4583 43.4375 37.7917 45.0417C35.9583 45.5834 33.7917 45.8334 31.25 45.8334H18.75C16.2083 45.8334 14.0417 45.5834 12.2083 45.0417C6.54166 43.4375 4.16666 39.125 4.16666 31.25V18.75C4.16666 8.33335 8.33333 4.16669 18.75 4.16669H31.25C41.6667 4.16669 45.8333 8.33335 45.8333 18.75Z" stroke="#BCBEC1" stroke-width="3.125" stroke-linecap="round" stroke-linejoin="round"/>
<path opacity="0.8" d="M32.4581 22.0416C32.4581 26.1666 29.1248 29.5208 24.9998 29.5208C20.8748 29.5208 17.5415 26.1666 17.5415 22.0416C17.5415 17.9167 20.8748 14.5833 24.9998 14.5833C29.1248 14.5833 32.4581 17.9167 32.4581 22.0416Z" stroke="#BCBEC1" stroke-width="3.125" stroke-linecap="round" stroke-linejoin="round"/>
</svg>
